/* XPM */
static char *networkout_xpm[] = {
"24 24 8 1",
"0	c #000000",
"1	c #FF0000",
"2	c #00FF00",
"3	c #B2B240",
"4	c #3333B6",
"5	c #A0A0A0",
" 	c None",
"7	c #FFFFFF",
"                        ",
"       00000            ",
"     004433400          ",
"    04444444440         ",
"   0334444444430        ",
"  033344444443330       ",
"  03344440400000000000  ",
" 03344400777707777777700",
" 03443407777770777707770",
" 04444407777770777770770",
" 0444430770007077777700 ",
" 04444307777707777777770",
"  0443307722277777722770",
"  0443307222227777722770",
"   044307222227777777770",
"    04407222227772227770",
"    02207722277222277770",
"   02000777777772277070 ",
"  020   077770777000770 ",
"  020    0777700077770  ",
"   020000 07777777770   ",
"    022222 007777700    ",
"     0000000 00000      ",
"                        "
};
