/* XPM */
static char *networkin_xpm[] = {
"24 24 8 1",
"0	c #000000",
"1	c #FF0000",
"2	c #00FF00",
"3	c #B2B240",
"4	c #3333B6",
"5	c #00C800",
" 	c None",
"7	c #FFFFFF",
"                        ",
"       00000            ",
"     002255200          ",
"    02222222220         ",
"   0552222222250        ",
"  055522222225550       ",
"  05522220200000000000  ",
" 05522200777707777777700",
" 05225207777770777707770",
" 02222207777770777770770",
" 0222250770007077777700 ",
" 02222507777707777777770",
"  0225507700077777700770",
"  0225507007707777700770",
"   022507007707777777770",
"    02207000007770007770",
"    02207700077000077770",
"   02000777777770077070 ",
"  020   077770777000770 ",
"  020    0777700077770  ",
"   020000 07777777770   ",
"    022222 007777700    ",
"     0000000 00000      ",
"                        "
};
