/* XPM */
static char *networkdead_xpm[] = {
"24 24 8 1",
"0	c #000000",
"1	c #FF0000",
"2	c #00FF00",
"3	c #B2B240",
"4	c #3333B6",
"5	c #A0A0A0",
" 	c None",
"7	c #FFFFFF",
"                        ",
"       00000     000    ",
"     004433400     0    ",
"    04444444440   0     ",
"   0334444444430 000    ",
"  033344444443330       ",
"  03344440400000000000  ",
" 03344400777707777777700",
" 03443407777770777707770",
" 04444407777770777770770",
" 0444430770007077777700 ",
" 04444307777707777777770",
"  0443307777777777777770",
"  0443307700077777000770",
"   044307000007777777770",
"    04407700077770007770",
"    07707777777000077770",
"   07000777777770077070 ",
"  070   077770777000770 ",
"  070    0777700077770  ",
"   070000 07777777770   ",
"    077777 007777700    ",
"     0000000 00000      ",
"                        "
};
