/* XPM */
static char * networkout_xpm[] = {
"24 24 172 2",
"  	c None",
". 	c #434343",
"+ 	c #737373",
"@ 	c #727272",
"# 	c #686868",
"$ 	c #5A5A5A",
"% 	c #4A4A4A",
"& 	c #454545",
"* 	c #414141",
"= 	c #232323",
"- 	c #6E6E6E",
"; 	c #848E96",
"> 	c #6E7C86",
", 	c #74818C",
"' 	c #7B8791",
") 	c #808D96",
"! 	c #87939B",
"~ 	c #8D98A0",
"{ 	c #939EA5",
"] 	c #9AA3AB",
"^ 	c #9FA8AF",
"/ 	c #CFD0D0",
"( 	c #363636",
"_ 	c #5A6B77",
": 	c #06F87D",
"< 	c #14ED2E",
"[ 	c #C7C9CA",
"} 	c #3F3F3F",
"| 	c #5C6C78",
"1 	c #C0C2C3",
"2 	c #484848",
"3 	c #676767",
"4 	c #5E6E7A",
"5 	c #C1C2C3",
"6 	c #505050",
"7 	c #555555",
"8 	c #61717C",
"9 	c #C0C2C2",
"0 	c #595959",
"a 	c #677681",
"b 	c #616161",
"c 	c #4A5A65",
"d 	c #3C4349",
"e 	c #6A6A6B",
"f 	c #464646",
"g 	c #383838",
"h 	c #353535",
"i 	c #2D2D2D",
"j 	c #262626",
"k 	c #222222",
"l 	c #191919",
"m 	c #E3E7EC",
"n 	c #474747",
"o 	c #DEDEDE",
"p 	c #E0E0E0",
"q 	c #6B6B6B",
"r 	c #B9BBBD",
"s 	c #AAAEB1",
"t 	c #ABAFB2",
"u 	c #ACB0B3",
"v 	c #A9AEB0",
"w 	c #A8ACAE",
"x 	c #A8ACAF",
"y 	c #BABCBC",
"z 	c #393939",
"A 	c #2B2B2B",
"B 	c #545454",
"C 	c #585858",
"D 	c #5B5B5B",
"E 	c #636363",
"F 	c #626262",
"G 	c #808D97",
"H 	c #25435A",
"I 	c #324E64",
"J 	c #3F596E",
"K 	c #4B6477",
"L 	c #586F80",
"M 	c #657A8A",
"N 	c #718493",
"O 	c #7D8F9D",
"P 	c #8999A6",
"Q 	c #B9C0C4",
"R 	c #4E4E4E",
"S 	c #0F0F0F",
"T 	c #A3A3A3",
"U 	c #ACACAC",
"V 	c #A4A4A4",
"W 	c #828E98",
"X 	c #324F64",
"Y 	c #3F5A6E",
"Z 	c #627888",
"` 	c #5D7384",
" .	c #597081",
"..	c #536B7D",
"+.	c #A7AFB6",
"@.	c #2F2F2F",
"#.	c #6D6D6D",
"$.	c #868686",
"%.	c #707070",
"&.	c #4B4B4B",
"*.	c #84909A",
"=.	c #304D63",
"-.	c #3C576C",
";.	c #425C70",
">.	c #365267",
",.	c #28455C",
"'.	c #9CA5AC",
").	c #5C5C5C",
"!.	c #6F6C40",
"~.	c #B0A87E",
"{.	c #5C4A13",
"].	c #494949",
"^.	c #849099",
"/.	c #244259",
"(.	c #304C62",
"_.	c #2F4B61",
":.	c #A49D41",
"<.	c #FDE94F",
"[.	c #BFA32D",
"}.	c #6D5E35",
"|.	c #85919A",
"1.	c #26445B",
"2.	c #6A6A6A",
"3.	c #797536",
"4.	c #EFE558",
"5.	c #FDE449",
"6.	c #8B7E51",
"7.	c #444444",
"8.	c #87929B",
"9.	c #415B6F",
"0.	c #455E72",
"a.	c #9EA7AE",
"b.	c #383813",
"c.	c #4F481C",
"d.	c #474015",
"e.	c #2C2C2C",
"f.	c #B2B7BB",
"g.	c #939EA6",
"h.	c #96A0A8",
"i.	c #97A1A9",
"j.	c #97A1AA",
"k.	c #98A2AB",
"l.	c #99A3AB",
"m.	c #9AA4AB",
"n.	c #9BA5AC",
"o.	c #BDC1C4",
"p.	c #282828",
"q.	c #9E9E9E",
"r.	c #A7A7A7",
"s.	c #A9A9A9",
"t.	c #ABABAB",
"u.	c #ADADAD",
"v.	c #AFAFAF",
"w.	c #B0B0B0",
"x.	c #B1B1B1",
"y.	c #575757",
"z.	c #090909",
"A.	c #0A0A0A",
"B.	c #3C3C3C",
"C.	c #4F4F4F",
"D.	c #515151",
"E.	c #202020",
"F.	c #060606",
"G.	c #171717",
"H.	c #B6B6B6",
"I.	c #B8B8B8",
"J.	c #969696",
"K.	c #212121",
"L.	c #0D0D0D",
"M.	c #000000",
"N.	c #070707",
"O.	c #3B3B3B",
"                                                ",
"                                                ",
"  . + @ @ @ # $ % & & & * =                     ",
"  - ; > , ' ) ! ~ { ] ^ / (                     ",
"  - _ : : : : : : : < < [ }                     ",
"  - | : : : : : : : < < 1 2                     ",
"  3 4 : : : : : : : < < 5 6                     ",
"  7 8 : : : : < < < < < 9 0                     ",
"  * a : : : : < < < < < 9 b                     ",
"  } > : : : : < < < c d e f g g h i j k k k l m ",
"  n o p p p p p p p q r s t u u v w x v t y z   ",
"  A 6 B C C D E F # 7 G H I J K L M N O P Q R   ",
"        S $ T U V z R W H X Y K L Z `  ...+.7   ",
"        @.#.- $.#.%.&.*.H =.-.;.>.,.H H H '.).  ",
"            !.~.{.m ].^./.(._.H H H H H H '.E   ",
"            :.<.[.}.* |./.1.H H H H H H H '.2.  ",
"            3.4.5.6.7.8.9.0.0.0.0.0.0.0.0.a.#.  ",
"            m b.c.d.e.f.g.h.i.j.k.l.m.n.n.o.#.m ",
"                    p.q.r.s.t.u.v.w.x.x.x.x.y.  ",
"                      z.A.A.z.B.C.D.E.A.A.A.F.  ",
"                          G.# H.I.I.J.i         ",
"                          K.L.M.M.M.M.N.O.      ",
"                                                ",
"                                                "};
