/* XPM */
static char * networkblank_xpm[] = {
"24 24 193 2",
"  	c None",
". 	c #434343",
"+ 	c #737373",
"@ 	c #727272",
"# 	c #686868",
"$ 	c #5A5A5A",
"% 	c #4A4A4A",
"& 	c #454545",
"* 	c #414141",
"= 	c #232323",
"- 	c #6E6E6E",
"; 	c #848E96",
"> 	c #6E7C86",
", 	c #74818C",
"' 	c #7B8791",
") 	c #808D96",
"! 	c #87939B",
"~ 	c #8D98A0",
"{ 	c #939EA5",
"] 	c #9AA3AB",
"^ 	c #9FA8AF",
"/ 	c #CFD0D0",
"( 	c #363636",
"_ 	c #5A6B77",
": 	c #263E50",
"< 	c #32495A",
"[ 	c #3F5464",
"} 	c #4B5F6E",
"| 	c #586A78",
"1 	c #647682",
"2 	c #70808C",
"3 	c #7C8B96",
"4 	c #818E99",
"5 	c #C7C9CA",
"6 	c #3F3F3F",
"7 	c #5C6C78",
"8 	c #253D4F",
"9 	c #304758",
"0 	c #3C5262",
"a 	c #495D6C",
"b 	c #4A5E6D",
"c 	c #314859",
"d 	c #284051",
"e 	c #C0C2C3",
"f 	c #484848",
"g 	c #676767",
"h 	c #5E6E7A",
"i 	c #304657",
"j 	c #364C5C",
"k 	c #294052",
"l 	c #C1C2C3",
"m 	c #505050",
"n 	c #555555",
"o 	c #61717C",
"p 	c #C0C2C2",
"q 	c #595959",
"r 	c #677681",
"s 	c #455969",
"t 	c #415665",
"u 	c #616161",
"v 	c #566774",
"w 	c #566875",
"x 	c #4A5A65",
"y 	c #3C4349",
"z 	c #6A6A6B",
"A 	c #464646",
"B 	c #383838",
"C 	c #353535",
"D 	c #2D2D2D",
"E 	c #262626",
"F 	c #222222",
"G 	c #191919",
"H 	c #E3E7EC",
"I 	c #474747",
"J 	c #DEDEDE",
"K 	c #E0E0E0",
"L 	c #6B6B6B",
"M 	c #B9BBBD",
"N 	c #AAAEB1",
"O 	c #ABAFB2",
"P 	c #ACB0B3",
"Q 	c #A9AEB0",
"R 	c #A8ACAE",
"S 	c #A8ACAF",
"T 	c #BABCBC",
"U 	c #393939",
"V 	c #2B2B2B",
"W 	c #545454",
"X 	c #585858",
"Y 	c #5B5B5B",
"Z 	c #636363",
"` 	c #626262",
" .	c #808D97",
"..	c #25435A",
"+.	c #324E64",
"@.	c #3F596E",
"#.	c #4B6477",
"$.	c #586F80",
"%.	c #657A8A",
"&.	c #718493",
"*.	c #7D8F9D",
"=.	c #8999A6",
"-.	c #B9C0C4",
";.	c #4E4E4E",
">.	c #0F0F0F",
",.	c #A3A3A3",
"'.	c #ACACAC",
").	c #A4A4A4",
"!.	c #828E98",
"~.	c #324F64",
"{.	c #3F5A6E",
"].	c #627888",
"^.	c #5D7384",
"/.	c #597081",
"(.	c #536B7D",
"_.	c #A7AFB6",
":.	c #2F2F2F",
"<.	c #6D6D6D",
"[.	c #868686",
"}.	c #707070",
"|.	c #4B4B4B",
"1.	c #84909A",
"2.	c #304D63",
"3.	c #3C576C",
"4.	c #425C70",
"5.	c #365267",
"6.	c #28455C",
"7.	c #9CA5AC",
"8.	c #5C5C5C",
"9.	c #6F6C40",
"0.	c #B0A87E",
"a.	c #5C4A13",
"b.	c #494949",
"c.	c #849099",
"d.	c #244259",
"e.	c #304C62",
"f.	c #2F4B61",
"g.	c #A49D41",
"h.	c #FDE94F",
"i.	c #BFA32D",
"j.	c #6D5E35",
"k.	c #85919A",
"l.	c #26445B",
"m.	c #6A6A6A",
"n.	c #797536",
"o.	c #EFE558",
"p.	c #FDE449",
"q.	c #8B7E51",
"r.	c #444444",
"s.	c #87929B",
"t.	c #415B6F",
"u.	c #455E72",
"v.	c #9EA7AE",
"w.	c #383813",
"x.	c #4F481C",
"y.	c #474015",
"z.	c #2C2C2C",
"A.	c #B2B7BB",
"B.	c #939EA6",
"C.	c #96A0A8",
"D.	c #97A1A9",
"E.	c #97A1AA",
"F.	c #98A2AB",
"G.	c #99A3AB",
"H.	c #9AA4AB",
"I.	c #9BA5AC",
"J.	c #BDC1C4",
"K.	c #282828",
"L.	c #9E9E9E",
"M.	c #A7A7A7",
"N.	c #A9A9A9",
"O.	c #ABABAB",
"P.	c #ADADAD",
"Q.	c #AFAFAF",
"R.	c #B0B0B0",
"S.	c #B1B1B1",
"T.	c #575757",
"U.	c #090909",
"V.	c #0A0A0A",
"W.	c #3C3C3C",
"X.	c #4F4F4F",
"Y.	c #515151",
"Z.	c #202020",
"`.	c #060606",
" +	c #171717",
".+	c #B6B6B6",
"++	c #B8B8B8",
"@+	c #969696",
"#+	c #212121",
"$+	c #0D0D0D",
"%+	c #000000",
"&+	c #070707",
"*+	c #3B3B3B",
"                                                ",
"                                                ",
"  . + @ @ @ # $ % & & & * =                     ",
"  - ; > , ' ) ! ~ { ] ^ / (                     ",
"  - _ : < [ } | 1 2 3 4 5 6                     ",
"  - 7 8 9 0 a b [ c d 8 e f                     ",
"  g h 8 i j k 8 8 8 8 8 l m                     ",
"  n o 8 k 8 8 8 8 8 8 8 p q                     ",
"  * r s s s s s s s s t p u                     ",
"  6 > v v v v w w w x y z A B B C D E F F F G H ",
"  I J K K K K K K K L M N O P P Q R S Q O T U   ",
"  V m W X X Y Z ` # n  ...+.@.#.$.%.&.*.=.-.;.  ",
"        >.$ ,.'.).U ;.!...~.{.#.$.].^./.(._.n   ",
"        :.<.- [.<.}.|.1...2.3.4.5.6.......7.8.  ",
"            9.0.a.H b.c.d.e.f.............7.Z   ",
"            g.h.i.j.* k.d.l...............7.m.  ",
"            n.o.p.q.r.s.t.u.u.u.u.u.u.u.u.v.<.  ",
"            H w.x.y.z.A.B.C.D.E.F.G.H.I.I.J.<.H ",
"                    K.L.M.N.O.P.Q.R.S.S.S.S.T.  ",
"                      U.V.V.U.W.X.Y.Z.V.V.V.`.  ",
"                           +# .+++++@+D         ",
"                          #+$+%+%+%+%+&+*+      ",
"                                                ",
"                                                "};
