/* XPM */
static char * networkdead_xpm[] = {
"24 24 116 2",
"  	c None",
". 	c #D22C2C",
"+ 	c #686868",
"@ 	c #5A5A5A",
"# 	c #4A4A4A",
"$ 	c #454545",
"% 	c #414141",
"& 	c #232323",
"* 	c #87939B",
"= 	c #8D98A0",
"- 	c #939EA5",
"; 	c #9AA3AB",
"> 	c #9FA8AF",
", 	c #CFD0D0",
"' 	c #363636",
") 	c #6E6E6E",
"! 	c #70808C",
"~ 	c #7C8B96",
"{ 	c #818E99",
"] 	c #C7C9CA",
"^ 	c #3F3F3F",
"/ 	c #5C6C78",
"( 	c #314859",
"_ 	c #284051",
": 	c #253D4F",
"< 	c #C0C2C3",
"[ 	c #484848",
"} 	c #676767",
"| 	c #5E6E7A",
"1 	c #C1C2C3",
"2 	c #505050",
"3 	c #555555",
"4 	c #61717C",
"5 	c #294052",
"6 	c #C0C2C2",
"7 	c #595959",
"8 	c #677681",
"9 	c #455969",
"0 	c #6E7C86",
"a 	c #566774",
"b 	c #566875",
"c 	c #262626",
"d 	c #222222",
"e 	c #191919",
"f 	c #E3E7EC",
"g 	c #474747",
"h 	c #DEDEDE",
"i 	c #E0E0E0",
"j 	c #A9AEB0",
"k 	c #A8ACAE",
"l 	c #A8ACAF",
"m 	c #ABAFB2",
"n 	c #BABCBC",
"o 	c #393939",
"p 	c #2B2B2B",
"q 	c #545454",
"r 	c #585858",
"s 	c #5B5B5B",
"t 	c #636363",
"u 	c #626262",
"v 	c #586F80",
"w 	c #657A8A",
"x 	c #718493",
"y 	c #7D8F9D",
"z 	c #8999A6",
"A 	c #B9C0C4",
"B 	c #4E4E4E",
"C 	c #0F0F0F",
"D 	c #A3A3A3",
"E 	c #ACACAC",
"F 	c #A4A4A4",
"G 	c #627888",
"H 	c #5D7384",
"I 	c #597081",
"J 	c #536B7D",
"K 	c #A7AFB6",
"L 	c #2F2F2F",
"M 	c #6D6D6D",
"N 	c #868686",
"O 	c #28455C",
"P 	c #25435A",
"Q 	c #9CA5AC",
"R 	c #5C5C5C",
"S 	c #6F6C40",
"T 	c #B0A87E",
"U 	c #A49D41",
"V 	c #26445B",
"W 	c #6A6A6A",
"X 	c #415B6F",
"Y 	c #455E72",
"Z 	c #9EA7AE",
"` 	c #B2B7BB",
" .	c #939EA6",
"..	c #96A0A8",
"+.	c #97A1A9",
"@.	c #9BA5AC",
"#.	c #BDC1C4",
"$.	c #282828",
"%.	c #9E9E9E",
"&.	c #A7A7A7",
"*.	c #A9A9A9",
"=.	c #ABABAB",
"-.	c #ADADAD",
";.	c #B1B1B1",
">.	c #575757",
",.	c #090909",
"'.	c #0A0A0A",
").	c #3C3C3C",
"!.	c #4F4F4F",
"~.	c #060606",
"{.	c #171717",
"].	c #B6B6B6",
"^.	c #B8B8B8",
"/.	c #212121",
"(.	c #0D0D0D",
"_.	c #000000",
". . .                                     . . . ",
". . . . .                               . . . . ",
". . . . . . + @ # $ $ $ % &           . . . . . ",
". . . . . . . * = - ; > , '         . . . . . . ",
"  ) . . . . . . . ! ~ { ] ^         . . . . .   ",
"  ) / . . . . . . ( _ : < [       . . . . .     ",
"  } | : . . . . . . . : 1 2   . . . . . .       ",
"  3 4 : 5 : . . . . . . 6 7 . . . . . .         ",
"  % 8 9 9 9 9 . . . . . . . . . . . .           ",
"  ^ 0 a a a a b . . . . . . . . . . c d d d e f ",
"  g h i i i i i i . . . . . . . j k l j m n o   ",
"  p 2 q r r s t u + . . . . . . v w x y z A B   ",
"        C @ D E F o . . . . . . . G H I J K 3   ",
"        L M ) N M . . . . . . . . O P P P Q R   ",
"            S T . . . . . . . . . . P P P Q t   ",
"            U . . . . . . V . . . . . P P Q W   ",
"          . . . . . . . X Y Y . . . . . Y Z M   ",
"        . . . . . . . `  ...+.. . . . . @.#.M f ",
"      . . . . . . . $.%.&.*.=.-.. . . . . ;.>.  ",
"    . . . . . .       ,.'.'.,.).!.. . . . . ~.  ",
"  . . . . . .             {.+ ].^.^.. . . . .   ",
". . . . . .               /.(._._._.. . . . . . ",
". . . . .                             . . . . . ",
". . . .                                   . . . "};
