/* XPM */
static char * networkboth_xpm[] = {
"24 24 146 2",
"  	c None",
". 	c #434343",
"+ 	c #737373",
"@ 	c #727272",
"# 	c #686868",
"$ 	c #5A5A5A",
"% 	c #4A4A4A",
"& 	c #454545",
"* 	c #414141",
"= 	c #232323",
"- 	c #6E6E6E",
"; 	c #848E96",
"> 	c #6E7C86",
", 	c #74818C",
"' 	c #7B8791",
") 	c #808D96",
"! 	c #87939B",
"~ 	c #8D98A0",
"{ 	c #939EA5",
"] 	c #9AA3AB",
"^ 	c #9FA8AF",
"/ 	c #CFD0D0",
"( 	c #363636",
"_ 	c #5A6B77",
": 	c #34FD25",
"< 	c #C7C9CA",
"[ 	c #3F3F3F",
"} 	c #5C6C78",
"| 	c #C0C2C3",
"1 	c #484848",
"2 	c #676767",
"3 	c #5E6E7A",
"4 	c #06F87D",
"5 	c #C1C2C3",
"6 	c #505050",
"7 	c #555555",
"8 	c #61717C",
"9 	c #C0C2C2",
"0 	c #595959",
"a 	c #677681",
"b 	c #616161",
"c 	c #4A5A65",
"d 	c #3C4349",
"e 	c #6A6A6B",
"f 	c #464646",
"g 	c #383838",
"h 	c #353535",
"i 	c #2D2D2D",
"j 	c #262626",
"k 	c #222222",
"l 	c #191919",
"m 	c #E3E7EC",
"n 	c #474747",
"o 	c #DEDEDE",
"p 	c #E0E0E0",
"q 	c #6B6B6B",
"r 	c #B9BBBD",
"s 	c #AAAEB1",
"t 	c #ABAFB2",
"u 	c #ACB0B3",
"v 	c #A9AEB0",
"w 	c #A8ACAE",
"x 	c #A8ACAF",
"y 	c #BABCBC",
"z 	c #393939",
"A 	c #2B2B2B",
"B 	c #545454",
"C 	c #585858",
"D 	c #5B5B5B",
"E 	c #636363",
"F 	c #626262",
"G 	c #808D97",
"H 	c #B9C0C4",
"I 	c #4E4E4E",
"J 	c #0F0F0F",
"K 	c #A3A3A3",
"L 	c #ACACAC",
"M 	c #A4A4A4",
"N 	c #828E98",
"O 	c #A7AFB6",
"P 	c #2F2F2F",
"Q 	c #6D6D6D",
"R 	c #868686",
"S 	c #707070",
"T 	c #4B4B4B",
"U 	c #84909A",
"V 	c #9CA5AC",
"W 	c #5C5C5C",
"X 	c #6F6C40",
"Y 	c #B0A87E",
"Z 	c #5C4A13",
"` 	c #494949",
" .	c #849099",
"..	c #A49D41",
"+.	c #FDE94F",
"@.	c #BFA32D",
"#.	c #6D5E35",
"$.	c #85919A",
"%.	c #6A6A6A",
"&.	c #797536",
"*.	c #EFE558",
"=.	c #FDE449",
"-.	c #8B7E51",
";.	c #444444",
">.	c #87929B",
",.	c #9EA7AE",
"'.	c #383813",
").	c #4F481C",
"!.	c #474015",
"~.	c #2C2C2C",
"{.	c #B2B7BB",
"].	c #939EA6",
"^.	c #96A0A8",
"/.	c #97A1A9",
"(.	c #97A1AA",
"_.	c #98A2AB",
":.	c #99A3AB",
"<.	c #9AA4AB",
"[.	c #9BA5AC",
"}.	c #BDC1C4",
"|.	c #282828",
"1.	c #9E9E9E",
"2.	c #A7A7A7",
"3.	c #A9A9A9",
"4.	c #ABABAB",
"5.	c #ADADAD",
"6.	c #AFAFAF",
"7.	c #B0B0B0",
"8.	c #B1B1B1",
"9.	c #575757",
"0.	c #090909",
"a.	c #0A0A0A",
"b.	c #3C3C3C",
"c.	c #4F4F4F",
"d.	c #515151",
"e.	c #202020",
"f.	c #060606",
"g.	c #171717",
"h.	c #B6B6B6",
"i.	c #B8B8B8",
"j.	c #969696",
"k.	c #212121",
"l.	c #0D0D0D",
"m.	c #000000",
"n.	c #070707",
"o.	c #3B3B3B",
"                                                ",
"                                                ",
"  . + @ @ @ # $ % & & & * =                     ",
"  - ; > , ' ) ! ~ { ] ^ / (                     ",
"  - _ : : : : : : : : : < [                     ",
"  - } : : : : : : : : : | 1                     ",
"  2 3 : : 4 4 4 4 4 : : 5 6                     ",
"  7 8 : : 4 4 : : : : : 9 0                     ",
"  * a : : : : : : 4 : : 9 b                     ",
"  [ > : : : : : : : c d e f g g h i j k k k l m ",
"  n o p p p p p p p q r s t u u v w x v t y z   ",
"  A 6 B C C D E F # 7 G 4 4 4 4 4 4 4 4 4 H I   ",
"        J $ K L M z I N 4 4 4 4 4 4 4 4 4 O 7   ",
"        P Q - R Q S T U 4 4 4 4 4 4 4 4 4 V W   ",
"            X Y Z m `  .4 4 4 4 4 : : : : V E   ",
"            ..+.@.#.* $.4 4 4 : : : : : : V %.  ",
"            &.*.=.-.;.>.4 4 4 : : : : : : ,.Q   ",
"            m '.).!.~.{.].^./.(._.:.<.[.[.}.Q m ",
"                    |.1.2.3.4.5.6.7.8.8.8.8.9.  ",
"                      0.a.a.0.b.c.d.e.a.a.a.f.  ",
"                          g.# h.i.i.j.i         ",
"                          k.l.m.m.m.m.n.o.      ",
"                                                ",
"                                                "};
