/* XPM */
static char * networkin_xpm[] = {
"24 24 169 2",
"  	c None",
". 	c #434343",
"+ 	c #737373",
"@ 	c #727272",
"# 	c #686868",
"$ 	c #5A5A5A",
"% 	c #4A4A4A",
"& 	c #454545",
"* 	c #414141",
"= 	c #232323",
"- 	c #6E6E6E",
"; 	c #848E96",
"> 	c #6E7C86",
", 	c #74818C",
"' 	c #7B8791",
") 	c #808D96",
"! 	c #87939B",
"~ 	c #8D98A0",
"{ 	c #939EA5",
"] 	c #9AA3AB",
"^ 	c #9FA8AF",
"/ 	c #CFD0D0",
"( 	c #363636",
"_ 	c #5A6B77",
": 	c #263E50",
"< 	c #32495A",
"[ 	c #3F5464",
"} 	c #4B5F6E",
"| 	c #586A78",
"1 	c #647682",
"2 	c #70808C",
"3 	c #7C8B96",
"4 	c #818E99",
"5 	c #C7C9CA",
"6 	c #3F3F3F",
"7 	c #5C6C78",
"8 	c #253D4F",
"9 	c #304758",
"0 	c #3C5262",
"a 	c #495D6C",
"b 	c #4A5E6D",
"c 	c #314859",
"d 	c #284051",
"e 	c #C0C2C3",
"f 	c #484848",
"g 	c #676767",
"h 	c #5E6E7A",
"i 	c #304657",
"j 	c #364C5C",
"k 	c #294052",
"l 	c #C1C2C3",
"m 	c #505050",
"n 	c #555555",
"o 	c #61717C",
"p 	c #C0C2C2",
"q 	c #595959",
"r 	c #677681",
"s 	c #455969",
"t 	c #415665",
"u 	c #616161",
"v 	c #566774",
"w 	c #566875",
"x 	c #4A5A65",
"y 	c #3C4349",
"z 	c #6A6A6B",
"A 	c #464646",
"B 	c #383838",
"C 	c #353535",
"D 	c #2D2D2D",
"E 	c #262626",
"F 	c #222222",
"G 	c #191919",
"H 	c #E3E7EC",
"I 	c #474747",
"J 	c #DEDEDE",
"K 	c #E0E0E0",
"L 	c #6B6B6B",
"M 	c #B9BBBD",
"N 	c #AAAEB1",
"O 	c #ABAFB2",
"P 	c #ACB0B3",
"Q 	c #A9AEB0",
"R 	c #A8ACAE",
"S 	c #A8ACAF",
"T 	c #BABCBC",
"U 	c #393939",
"V 	c #2B2B2B",
"W 	c #545454",
"X 	c #585858",
"Y 	c #5B5B5B",
"Z 	c #636363",
"` 	c #626262",
" .	c #808D97",
"..	c #06F87D",
"+.	c #B9C0C4",
"@.	c #4E4E4E",
"#.	c #0F0F0F",
"$.	c #A3A3A3",
"%.	c #ACACAC",
"&.	c #A4A4A4",
"*.	c #828E98",
"=.	c #A7AFB6",
"-.	c #2F2F2F",
";.	c #6D6D6D",
">.	c #868686",
",.	c #707070",
"'.	c #4B4B4B",
").	c #84909A",
"!.	c #9CA5AC",
"~.	c #5C5C5C",
"{.	c #6F6C40",
"].	c #B0A87E",
"^.	c #5C4A13",
"/.	c #494949",
"(.	c #849099",
"_.	c #34FD25",
":.	c #A49D41",
"<.	c #FDE94F",
"[.	c #BFA32D",
"}.	c #6D5E35",
"|.	c #85919A",
"1.	c #6A6A6A",
"2.	c #797536",
"3.	c #EFE558",
"4.	c #FDE449",
"5.	c #8B7E51",
"6.	c #444444",
"7.	c #87929B",
"8.	c #9EA7AE",
"9.	c #383813",
"0.	c #4F481C",
"a.	c #474015",
"b.	c #2C2C2C",
"c.	c #B2B7BB",
"d.	c #939EA6",
"e.	c #96A0A8",
"f.	c #97A1A9",
"g.	c #97A1AA",
"h.	c #98A2AB",
"i.	c #99A3AB",
"j.	c #9AA4AB",
"k.	c #9BA5AC",
"l.	c #BDC1C4",
"m.	c #282828",
"n.	c #9E9E9E",
"o.	c #A7A7A7",
"p.	c #A9A9A9",
"q.	c #ABABAB",
"r.	c #ADADAD",
"s.	c #AFAFAF",
"t.	c #B0B0B0",
"u.	c #B1B1B1",
"v.	c #575757",
"w.	c #090909",
"x.	c #0A0A0A",
"y.	c #3C3C3C",
"z.	c #4F4F4F",
"A.	c #515151",
"B.	c #202020",
"C.	c #060606",
"D.	c #171717",
"E.	c #B6B6B6",
"F.	c #B8B8B8",
"G.	c #969696",
"H.	c #212121",
"I.	c #0D0D0D",
"J.	c #000000",
"K.	c #070707",
"L.	c #3B3B3B",
"                                                ",
"                                                ",
"  . + @ @ @ # $ % & & & * =                     ",
"  - ; > , ' ) ! ~ { ] ^ / (                     ",
"  - _ : < [ } | 1 2 3 4 5 6                     ",
"  - 7 8 9 0 a b [ c d 8 e f                     ",
"  g h 8 i j k 8 8 8 8 8 l m                     ",
"  n o 8 k 8 8 8 8 8 8 8 p q                     ",
"  * r s s s s s s s s t p u                     ",
"  6 > v v v v w w w x y z A B B C D E F F F G H ",
"  I J K K K K K K K L M N O P P Q R S Q O T U   ",
"  V m W X X Y Z ` # n  ...................+.@.  ",
"        #.$ $.%.&.U @.*...................=.n   ",
"        -.;.- >.;.,.'.)...................!.~.  ",
"            {.].^.H /.(..........._._._._.!.Z   ",
"            :.<.[.}.* |......._._._._._._.!.1.  ",
"            2.3.4.5.6.7......._._._._._._.8.;.  ",
"            H 9.0.a.b.c.d.e.f.g.h.i.j.k.k.l.;.H ",
"                    m.n.o.p.q.r.s.t.u.u.u.u.v.  ",
"                      w.x.x.w.y.z.A.B.x.x.x.C.  ",
"                          D.# E.F.F.G.D         ",
"                          H.I.J.J.J.J.K.L.      ",
"                                                ",
"                                                "};
