/* XPM */
static char *inkscape_xpm[] = {
"16 16 47 2",
"  	c None",
"01	c #414100",
"02	c #6C6C00",
"03	c #1E1E09",
"04	c #8C8C8C",
"05	c #747474",
"06	c #2D2D02",
"07	c #3E3E28",
"08	c #D4D4D4",
"09	c #FFFFFF",
"0A	c #B9B9B9",
"0B	c #414116",
"0C	c #31311C",
"0D	c #E6E6E6",
"0E	c #F3F3F3",
"0F	c #EAEAEA",
"10	c #A0A0A0",
"11	c #67673C",
"12	c #161600",
"13	c #939393",
"14	c #979797",
"15	c #9E9E9E",
"16	c #B3B3B3",
"17	c #8B8B8B",
"18	c #060606",
"19	c #171717",
"1A	c #2B2B00",
"1B	c #000000",
"1C	c #242424",
"1D	c #252525",
"1E	c #070707",
"1F	c #141414",
"20	c #323200",
"21	c #0E0E00",
"22	c #1D1D00",
"23	c #656500",
"24	c #040404",
"25	c #070700",
"26	c #4D4E4E",
"27	c #515252",
"28	c #030303",
"29	c #565600",
"2A	c #242400",
"2B	c #5D5D00",
"2C	c #484800",
"2D	c #393900",
"2E	c #4F4F00",
"              0101              ",
"          0203040506            ",
"        02070809090A0B          ",
"      020C0D0E0F09091011        ",
"    021213091415161718191A      ",
"  02121B1C1D1E1F1B1B1B1B1B1A    ",
"02121B1B1B1B1B1B1B1B1B1B1B1B1A  ",
"201B1B1B1B1B1B1B1B1B1B1B1B1B1B20",
"01211B1B1B1B1B1B1B1B1B1B1B1B1B22",
"    23201B241B1B1B1B1B1B1B1B1A23",
"    01251B1C2627281B1B1A29      ",
"    2320211B1B1B1B1B1B2A022B29  ",
"      02292C1B1B1B1B1B25292D20  ",
"      2C202A1B1B1B252D022D29    ",
"          232E251B2523          ",
"              2E2D29            "
};
