/* XPM */
static char * mini_desktop_xpm[] = {
"24 24 4 1",
" 	c None",
".	c #754E27",
"+	c #000000",
"@	c #198515",
"                        ",
"                        ",
"                        ",
"++++++++++++++++++++++++",
"+......................+",
"+....@@@@@@@@@@@@@@....+",
"+...@@@@@@@@@@@@@@@@...+",
"+..@@@@@@@@@@@@@@@@@@..+",
"+.@@@@@@@@@@@@@@@@@@@@.+",
"+.@@@@@@@@@@@@@@@@@@@@.+",
"+.@@@@@@@@@@@@@@@@@@@@.+",
"+.@@@@@@@@@@@@@@@@@@@@.+",
"+.@@@@@@@@@@@@@@@@@@@@.+",
"+.@@@@@@@@@@@@@@@@@@@@.+",
"+.@@@@@@@@@@@@@@@@@@@@.+",
"+.@@@@@@@@@@@@@@@@@@@@.+",
"+..@@@@@@@@@@@@@@@@@@..+",
"+...@@@@@@@@@@@@@@@@...+",
"+....@@@@@@@@@@@@@@....+",
"+......................+",
"++++++++++++++++++++++++",
"                        ",
"                        ",
"                        ",
"                        "};
