/* XPM */
static char * 5_xpm[] = {
"24 24 13 1",
" 	c None",
".	c #000000",
"+	c #96A1AF",
"@	c #4F5867",
"#	c #A62C33",
"$	c #D21619",
"%	c #714652",
"&	c #DC1114",
"*	c #FF0000",
"=	c #A72B33",
"-	c #B72329",
";	c #ED080A",
">	c #E30D10",
"                        ",
"                        ",
".............           ",
".+++++++++++.           ",
".+++++++++++.           ",
".+++++++++++.           ",
".++++++.................",
".++++++.@@@@@@@@@@@@@@@.",
".++++++.@#$@@@@@@@%$&*&.",
".++++++.@=$*##@@@#&$%@@.",
".++++++.@@@@=##-*=@@@@@.",
".++++++.@@@@@@=;*%@@@@@.",
".++++++.@@@@@@&%@&#@@@@.",
"........@@@@@;#@@@$#@@@.",
"       .@@@@@>%@@@%&@@@.",
"       .@@@@$#@@@@@$$@@.",
"       .@@@@;%@@@@@@*#@.",
"       .@@@@@@@@@@@@@@@.",
"       .@@@@@@@@@@@@@@@.",
"       .................",
"               .        ",
"          ...........   ",
"         ..         ..  ",
"                        "};
