/* XPM */
static char *xscanimage_xpm[] = {
"16 16 173 2",
"  	c None",
"BA	c #131313",
"CA	c #666666",
"DA	c #070707",
"EA	c #6A6A6A",
"FA	c #1A1A1A",
"GA	c #9A9A9A",
"HA	c #BCBCBC",
"IA	c #A7A7A7",
"JA	c #8C8C8C",
"KA	c #626262",
"LA	c #262626",
"MA	c #4B4B4B",
"NA	c #252525",
"OA	c #525252",
"PA	c #7D7D7D",
"QA	c #A2A2A2",
"RA	c #B0B0B1",
"SA	c #B2B2B2",
"TA	c #A5A5A5",
"UA	c #636363",
"VA	c #1F1F1F",
"WA	c #4A4949",
"XA	c #464544",
"YA	c #565554",
"ZA	c #737272",
"aA	c #939393",
"bA	c #A9AAAA",
"cA	c #ACACAC",
"dA	c #9C9C9C",
"eA	c #787878",
"fA	c #454545",
"gA	c #353535",
"hA	c #7F7D7C",
"iA	c #788085",
"jA	c #76828B",
"kA	c #63696F",
"lA	c #4D5053",
"mA	c #424242",
"nA	c #464443",
"oA	c #504F4E",
"pA	c #616060",
"qA	c #777777",
"rA	c #6F6F6F",
"sA	c #434444",
"tA	c #7A7876",
"uA	c #8A969F",
"vA	c #B3C7D4",
"wA	c #EFF6FB",
"xA	c #D9E6EF",
"yA	c #B4C6D4",
"zA	c #8BA0AF",
"0A	c #687987",
"1A	c #505962",
"2A	c #46484B",
"3A	c #3E3E3E",
"4A	c #202020",
"5A	c #3B3B3B",
"6A	c #8B8988",
"7A	c #AAAFB4",
"8A	c #C6D7E2",
"9A	c #FEFFFF",
"+A	c #F9FCFF",
"/A	c #FAFDFF",
"AB	c #FCFFFF",
"BB	c #F9FFFF",
"CB	c #E9F5FC",
"DB	c #C3D6E1",
"EB	c #708491",
"FB	c #515151",
"GB	c #2F2F2F",
"HB	c #A2A09E",
"IB	c #B4BBC2",
"JB	c #D6DFE6",
"KB	c #FFFFFF",
"LB	c #FEFDFF",
"MB	c #FAFBFF",
"NB	c #F5F9FF",
"OB	c #F1F8FF",
"PB	c #EFF8FF",
"QB	c #F1FAFF",
"RB	c #F5FFFF",
"SB	c #89969F",
"TB	c #2A2A2A",
"UB	c #979594",
"VB	c #BDC4CA",
"WB	c #A3C8DF",
"XB	c #C7ECFF",
"YB	c #DBF0FF",
"ZB	c #F3F9FF",
"aB	c #FFFEFF",
"bB	c #F7FBFF",
"cB	c #F4FDFF",
"dB	c #CADDEA",
"eB	c #757A7F",
"fB	c #484746",
"gB	c #6C6C6D",
"hB	c #EDEBEA",
"iB	c #A8BBCB",
"jB	c #97C2DF",
"kB	c #A7D4F1",
"lB	c #B2E1FD",
"mB	c #BDE8FF",
"nB	c #CDEEFF",
"oB	c #E1F4FF",
"pB	c #F3F9FD",
"qB	c #FEFDFD",
"rB	c #A5B3BF",
"sB	c #6D6C6C",
"tB	c #3B3B3C",
"uB	c #0F0F0F",
"vB	c #707070",
"wB	c #E7E7E7",
"xB	c #E6E5E4",
"yB	c #DBDDE1",
"zB	c #C2CED8",
"0B	c #ACC2D3",
"1B	c #A9C6D9",
"2B	c #B5D7EB",
"3B	c #BFE5FA",
"4B	c #C4E9FE",
"5B	c #D8F3FF",
"6B	c #CBE0EE",
"7B	c #8E969E",
"8B	c #626160",
"9B	c #2A2B2B",
"+B	c #060606",
"/B	c #565656",
"AC	c #B0B0B0",
"BC	c #C0C0C0",
"CC	c #CECDCC",
"DC	c #DAD8D7",
"EC	c #E1DFDE",
"FC	c #DCDCDD",
"GC	c #CED2D5",
"HC	c #C1CAD1",
"IC	c #B1C7D4",
"JC	c #B2D3E6",
"KC	c #94B2C8",
"LC	c #8B8B8A",
"MC	c #1B1B1B",
"NC	c #080808",
"OC	c #343434",
"PC	c #5E5E5E",
"QC	c #828282",
"RC	c #9D9D9D",
"SC	c #BDBEBD",
"TC	c #CACAC9",
"UC	c #D3D1D0",
"VC	c #D0CFCE",
"WC	c #C4C6C9",
"XC	c #B8B9BB",
"YC	c #767676",
"ZC	c #0D0D0D",
"aC	c #282828",
"bC	c #535353",
"cC	c #757575",
"dC	c #8E8E8E",
"eC	c #A1A2A2",
"fC	c #B7B6B6",
"gC	c #B0AFAF",
"hC	c #2B2B2B",
"iC	c #242424",
"jC	c #4E4E4E",
"kC	c #6C6C6C",
"lC	c #898989",
"mC	c #969696",
"nC	c #60605F",
"oC	c #262426",
"pC	c #3E3F3E",
"qC	c #0F0F10",
"rC	c #363636",
"sC	c #121211",
"    BACADA            EA        ",
"    FAGAHAIAJAKALA            MA",
"      NAOAPAQARASATAJAUALA      ",
"          VAWAXAYAZAaAbAcAdAeAfA",
"    gA    hAiAjAkAlAmAnAoApAqArA",
"  sA    tAuAvAwAxAyAzA0A1A2A3A4A",
"5A    6A7A8A9A+A/AABBBCBDBEBFBGB",
"    HBIBJBKBLBMBNBOBPBQBRBSBXATB",
"  UBVBWBXBYBZBaBKBLBbBcBdBeBfBFA",
"gBhBiBjBkBlBmBnBoBpBqBKBrBsBtBuB",
"vBwBxByBzB0B1B2B3B4B5B6B7B8B9B+B",
"/BACBCCCDCECFCGCHCICJCKCLCFBMC+B",
"NCOCPCQCRCACSCTCUCVCWCXCYCmAZC  ",
"        aCbCcCdCeCcAfCgCEAhCNC  ",
"              iCjCkClCmCnCBAoC  ",
"        pC          qCrCGBsC    "
};
