/* XPM */
static char * backon2_xpm[] = {
"22 22 243 2",
"  	c None",
". 	c #A3A5A0",
"+ 	c #B6BBC0",
"@ 	c #ADB5BD",
"# 	c #B0B7BF",
"$ 	c #B2B3B2",
"% 	c #B0B1AE",
"& 	c #5A89C2",
"* 	c #147BDC",
"= 	c #1F8CDC",
"- 	c #2695DC",
"; 	c #2A9BDC",
"> 	c #2EA0DC",
", 	c #32A6DC",
"' 	c #35ABDC",
") 	c #39B1DC",
"! 	c #3BB6DB",
"~ 	c #37B8D5",
"{ 	c #359FBF",
"] 	c #B2B9C0",
"^ 	c #B1B2AF",
"/ 	c #528BC8",
"( 	c #169BFF",
"_ 	c #24AFFF",
": 	c #2BB8FF",
"< 	c #30C0FF",
"[ 	c #36C8FF",
"} 	c #3CCFFF",
"| 	c #41D7FF",
"1 	c #46DFFF",
"2 	c #44E4FA",
"3 	c #3EE6F1",
"4 	c #34BDCF",
"5 	c #B0B8C0",
"6 	c #558FC8",
"7 	c #20A8FF",
"8 	c #28B5FF",
"9 	c #2EBDFF",
"0 	c #33C4FF",
"a 	c #39CCFF",
"b 	c #3ED4FF",
"c 	c #44DCFF",
"d 	c #46E2FD",
"e 	c #3EE3F4",
"f 	c #3AE8EC",
"g 	c #32BECB",
"h 	c #AEB0AC",
"i 	c #5A93C5",
"j 	c #2AAFFA",
"k 	c #2FB7FA",
"l 	c #35BFFA",
"m 	c #3AC6FA",
"n 	c #3FCEFA",
"o 	c #42D8FE",
"p 	c #46E0FF",
"q 	c #43E4F8",
"r 	c #3CE7F0",
"s 	c #36EAE7",
"t 	c #2EC9CE",
"u 	c #B0BEC3",
"v 	c #B0B2AF",
"w 	c #B4B9BE",
"x 	c #B2B8BD",
"y 	c #B5BABF",
"z 	c #6DC1D5",
"A 	c #45E3FC",
"B 	c #3FE6F3",
"C 	c #38E8EB",
"D 	c #32EBE2",
"E 	c #2AD5CF",
"F 	c #B1C5C6",
"G 	c #B3BAC2",
"H 	c #4F70A0",
"I 	c #5C7BA7",
"J 	c #758EB4",
"K 	c #8CC1C8",
"L 	c #42E4F7",
"M 	c #3BE7EE",
"N 	c #35EAE5",
"O 	c #2EEDDD",
"P 	c #26D7CB",
"Q 	c #B0B8C1",
"R 	c #5374A3",
"S 	c #6B87B0",
"T 	c #728CB3",
"U 	c #8BC2C7",
"V 	c #3FE6F2",
"W 	c #38E8E9",
"X 	c #2FE8E1",
"Y 	c #28E8D9",
"Z 	c #20CCC4",
"` 	c #B0C1C3",
" .	c #476A9C",
"..	c #5A79A6",
"+.	c #5A7AA7",
"@.	c #5B7BA8",
"#.	c #5C7BA9",
"$.	c #5778A6",
"%.	c #4B6D9F",
"&.	c #416599",
"*.	c #6581AB",
"=.	c #B5C0C1",
"-.	c #C1E2E7",
";.	c #C1E3E6",
">.	c #BEE0E5",
",.	c #BCE0E4",
"'.	c #BBD9DF",
").	c #C7CACB",
"!.	c #3C6197",
"~.	c #4A6D9F",
"{.	c #4B6FA2",
"].	c #4D71A3",
"^.	c #4E72A5",
"/.	c #4E73A5",
"(.	c #486EA2",
"_.	c #39619A",
":.	c #2A5591",
"<.	c #24508D",
"[.	c #224C8A",
"}.	c #B7B8B5",
"|.	c #A0A3A0",
"1.	c #8B9AA6",
"2.	c #8B9CA9",
"3.	c #8A9DAD",
"4.	c #899BA9",
"5.	c #315992",
"6.	c #3B629A",
"7.	c #3C659C",
"8.	c #3E679F",
"9.	c #3B669F",
"0.	c #33609C",
"a.	c #2C5A98",
"b.	c #2B5896",
"c.	c #295694",
"d.	c #275391",
"e.	c #25508D",
"f.	c #5D7CA9",
"g.	c #BFC0BD",
"h.	c #E0E0DF",
"i.	c #D9DAD8",
"j.	c #ACAEAB",
"k.	c #6888A9",
"l.	c #6289B2",
"m.	c #6B95C3",
"n.	c #26518E",
"o.	c #2B5793",
"p.	c #2D5A97",
"q.	c #2E5C9A",
"r.	c #2E5E9C",
"s.	c #30609E",
"t.	c #2F5F9E",
"u.	c #2E5D9B",
"v.	c #2B5998",
"w.	c #265290",
"x.	c #5E7DA9",
"y.	c #B0B2AD",
"z.	c #ADAFA9",
"A.	c #ADAFAA",
"B.	c #AAADA7",
"C.	c #ACB6BB",
"D.	c #BCBFBA",
"E.	c #A1A39E",
"F.	c #26508D",
"G.	c #295591",
"H.	c #2B5895",
"I.	c #2E5B98",
"J.	c #305D9B",
"K.	c #31609D",
"L.	c #315F9C",
"M.	c #2F5C99",
"N.	c #2D5997",
"O.	c #295490",
"P.	c #BEBFBB",
"Q.	c #D4D6D1",
"R.	c #CFD1CC",
"S.	c #D0D3CE",
"T.	c #D5D7D1",
"U.	c #DADCD7",
"V.	c #CACCC8",
"W.	c #C8CBCC",
"X.	c #B7C3D4",
"Y.	c #B7C3D3",
"Z.	c #B6C3D3",
"`.	c #B6C2D2",
" +	c #C7D0DD",
".+	c #D1D2CF",
"++	c #CECFCC",
"@+	c #CECFCD",
"#+	c #D0D1CE",
"$+	c #CDCFCC",
"%+	c #989A95",
"&+	c #9C9E99",
"*+	c #A0A29E",
"=+	c #9C9E9A",
"-+	c #999A96",
";+	c #A1A29E",
">+	c #B3B4B1",
",+	c #B5B6B3",
"'+	c #B8B9B6",
")+	c #B6B7B4",
"!+	c #979EA0",
"~+	c #91A0AC",
"{+	c #92A1AD",
"]+	c #90A1B1",
"^+	c #8C989E",
"/+	c #B8B8B6",
"(+	c #DEDEDD",
"_+	c #E3E4E2",
":+	c #E4E4E3",
"<+	c #CFD0CF",
"[+	c #899194",
"}+	c #658CB7",
"|+	c #6791BC",
"1+	c #6A94C2",
"2+	c #B5B8B2",
"3+	c #B3B6AF",
"4+	c #ABAEA8",
"5+	c #ADB0AA",
"6+	c #A9ABA6",
"7+	c #ABADA7",
"8+	c #A7ABA8",
"9+	c #AEB9BE",
"0+	c #B2B5AF",
"a+	c #B8BAB6",
"b+	c #D0D3CC",
"c+	c #D8DBD4",
"d+	c #D9DCD6",
"e+	c #DBDDD8",
"f+	c #DCDFD9",
"g+	c #DEE0DB",
"h+	c #D0D3CD",
"i+	c #CED0CB",
"j+	c #D2D4CF",
"k+	c #D9DBD6",
"l+	c #D8DBD6",
"m+	c #B5B7B3",
"n+	c #C2C3C0",
"o+	c #CDCECB",
"p+	c #CED0CD",
"q+	c #CFD1CE",
"r+	c #D2D3D1",
"s+	c #D5D6D3",
"t+	c #D1D3D0",
"                                            ",
"              . + @ @ @ @ @ @ @ @ @ @ # $   ",
"              % & * = - ; > , ' ) ! ~ { ]   ",
"              ^ / ( _ : < [ } | 1 2 3 4 5   ",
"              ^ 6 7 8 9 0 a b c d e f g 5   ",
"              h i j k l m n o p q r s t u   ",
"  v w x x x x x x x x x x y z A B C D E F   ",
"  G H I I I I I I I I I I J K L M N O P F   ",
"  Q R S S S S S S S S S S T U V W X Y Z `   ",
"  Q  ...+.@.#.#.#.@.$.%.&.*.=.-.;.>.,.'.).  ",
"  Q !.~.{.].^./.(._.:.<.[.I ^ }.|.1.2.3.4.  ",
"  Q 5.6.7.8.9.0.a.b.c.d.e.f.g.h.i.j.k.l.m.  ",
"  Q n.o.p.q.r.s.t.u.v.c.w.x.y.z.A.B.C.D.E.  ",
"  Q F.G.H.I.J.K.L.M.N.o.O.x.P.Q.R.S.T.U.V.  ",
"  W.X.X.X.X.X.X.X.Y.Y.Z.`. +}..+++@+#+$+@+%+",
"  &+*+=+-+;+>+,+'+)+!+~+{+]+^+              ",
"        /+(+_+:+:+:+<+[+}+|+1+              ",
"    2+3+4+z.A.5+A.6+7+8+9+0+                ",
"  a+b+c+d+e+f+g+e+h+i+j+k+l+m+              ",
"  n+o+o+$+p+q+#+r+s+t+#+t+#+g.              ",
"                                            ",
"                                            "};
