/* XPM */
static char * bothon4_xpm[] = {
"22 22 248 2",
"  	c None",
". 	c #B4C8CD",
"+ 	c #B1CBD1",
"@ 	c #B2CCD1",
"# 	c #B3CDD1",
"$ 	c #B3CED1",
"% 	c #B4CED1",
"& 	c #B3CFD0",
"* 	c #B2CFCF",
"= 	c #B2CFCE",
"- 	c #B1D0CD",
"; 	c #B0B7B4",
"> 	c #B0B1AE",
", 	c #6AD8FF",
"' 	c #3BCFFF",
") 	c #3ED3FF",
"! 	c #41D7FF",
"~ 	c #44DBFF",
"{ 	c #46DFFF",
"] 	c #47E3FD",
"^ 	c #43E4F9",
"/ 	c #40E5F5",
"( 	c #3CE7EF",
"_ 	c #39E8EB",
": 	c #35EAE6",
"< 	c #B1D0CE",
"[ 	c #B1B2AF",
"} 	c #6CDAFF",
"| 	c #3CD1FF",
"1 	c #3FD6FF",
"2 	c #43DAFF",
"3 	c #46DEFF",
"4 	c #47E2FE",
"5 	c #45E3FA",
"6 	c #41E5F6",
"7 	c #3EE7F1",
"8 	c #3AE8EC",
"9 	c #36E9E8",
"0 	c #33EBE3",
"a 	c #B2D2CE",
"b 	c #6DDCFF",
"c 	c #3FD4FF",
"d 	c #42D8FF",
"e 	c #45DDFF",
"f 	c #47E1FF",
"g 	c #46E3FC",
"h 	c #42E5F7",
"i 	c #3FE6F2",
"j 	c #3BE7EE",
"k 	c #37E9E9",
"l 	c #34EAE5",
"m 	c #30ECE0",
"n 	c #B1D2CD",
"o 	c #AEB0AC",
"p 	c #70DBFA",
"q 	c #44D4FA",
"r 	c #46D8FA",
"s 	c #49DCFA",
"t 	c #49DFF8",
"u 	c #46E1F4",
"v 	c #41E5F3",
"w 	c #38E8EA",
"x 	c #31EBE1",
"y 	c #2EEDDC",
"z 	c #AEB4B2",
"A 	c #B3C6CC",
"B 	c #B4C7CC",
"C 	c #B5C8CC",
"D 	c #B5C9CC",
"E 	c #B6C9CC",
"F 	c #B6CACC",
"G 	c #B6CBCC",
"H 	c #B6CBCB",
"I 	c #B5C6C7",
"J 	c #68C6CD",
"K 	c #35EAE7",
"L 	c #32EBE2",
"M 	c #2FEDDE",
"N 	c #2BEED9",
"O 	c #B0D2CC",
"P 	c #B2CBD4",
"Q 	c #30C0FF",
"R 	c #33C4FF",
"S 	c #36C8FF",
"T 	c #39CDFF",
"U 	c #3FD5FF",
"V 	c #42D9FF",
"W 	c #45E4FB",
"X 	c #42E5F6",
"Y 	c #6EECF5",
"Z 	c #87C3C2",
"` 	c #33EAE4",
" .	c #30ECDF",
"..	c #2CEDDA",
"+.	c #29EFD6",
"@.	c #B3CDD5",
"#.	c #32C3FF",
"$.	c #35C7FF",
"%.	c #38CBFF",
"&.	c #3ED4FF",
"*.	c #41D8FF",
"=.	c #44DCFF",
"-.	c #47E0FF",
";.	c #43E4F8",
">.	c #3FE6F3",
",.	c #6DEDF3",
"'.	c #87C0C0",
").	c #34E9E4",
"!.	c #2DEDDC",
"~.	c #2AEED7",
"{.	c #26F0D2",
"].	c #AFD2CB",
"^.	c #B4CDD5",
"/.	c #34C6FF",
"(.	c #37CAFF",
"_.	c #3ACEFF",
":.	c #3DD3FF",
"<.	c #40D7FF",
"[.	c #43DBFF",
"}.	c #47E2FD",
"|.	c #44E4F9",
"1.	c #40E5F4",
"2.	c #3CE7F0",
"3.	c #6BEEF1",
"4.	c #B5BFBF",
"5.	c #C0E1E5",
"6.	c #C0E3E5",
"7.	c #BEE3E4",
"8.	c #BEE3E3",
"9.	c #BDE3E2",
"0.	c #C7CFCD",
"a.	c #37C9FF",
"b.	c #3ACDFF",
"c.	c #42DAFF",
"d.	c #45DEFF",
"e.	c #47E1FE",
"f.	c #3AE8ED",
"g.	c #69EEEE",
"h.	c #B7B8B5",
"i.	c #A0A3A0",
"j.	c #8B9AA6",
"k.	c #8B9CA9",
"l.	c #8A9DAD",
"m.	c #899BA9",
"n.	c #B4CED5",
"o.	c #39CCFF",
"p.	c #3CD0FF",
"q.	c #3BE8EE",
"r.	c #38E9E9",
"s.	c #67EFEC",
"t.	c #BFC0BD",
"u.	c #E0E0DF",
"v.	c #D9DAD8",
"w.	c #ACAEAB",
"x.	c #6888A9",
"y.	c #6289B2",
"z.	c #6B95C3",
"A.	c #B5CED5",
"B.	c #40E6F4",
"C.	c #38E9EB",
"D.	c #65F0E9",
"E.	c #B0B2AD",
"F.	c #ADAFA9",
"G.	c #ADAFAA",
"H.	c #AAADA7",
"I.	c #ACB6BB",
"J.	c #BCBFBA",
"K.	c #B5CFD5",
"L.	c #3DD2FF",
"M.	c #40D6FF",
"N.	c #45E4FA",
"O.	c #41E5F5",
"P.	c #3DE7F1",
"Q.	c #36EAE7",
"R.	c #63F1E7",
"S.	c #BEBFBB",
"T.	c #D4D6D1",
"U.	c #CFD1CC",
"V.	c #D0D3CE",
"W.	c #D5D7D1",
"X.	c #DADCD7",
"Y.	c #CACCC8",
"Z.	c #C9D0D0",
"`.	c #BBDEEC",
" +	c #BCDFEB",
".+	c #BCE0EB",
"++	c #BBE1E9",
"@+	c #BAE1E8",
"#+	c #B9E1E7",
"$+	c #B9E1E6",
"%+	c #B8E1E5",
"&+	c #B7E2E4",
"*+	c #C8E9E9",
"=+	c #D1D2CF",
"-+	c #CECFCC",
";+	c #CECFCD",
">+	c #D0D1CE",
",+	c #CDCFCC",
"'+	c #9C9E99",
")+	c #A0A29E",
"!+	c #9C9E9A",
"~+	c #999A96",
"{+	c #A1A29E",
"]+	c #B3B4B1",
"^+	c #B5B6B3",
"/+	c #B8B9B6",
"(+	c #B6B7B4",
"_+	c #979EA0",
":+	c #91A0AC",
"<+	c #92A1AD",
"[+	c #90A1B1",
"}+	c #B8B8B6",
"|+	c #DEDEDD",
"1+	c #E3E4E2",
"2+	c #E4E4E3",
"3+	c #CFD0CF",
"4+	c #899194",
"5+	c #658CB7",
"6+	c #6791BC",
"7+	c #B5B8B2",
"8+	c #B3B6AF",
"9+	c #ABAEA8",
"0+	c #ADB0AA",
"a+	c #A9ABA6",
"b+	c #ABADA7",
"c+	c #A7ABA8",
"d+	c #AEB9BE",
"e+	c #B2B5AF",
"f+	c #B8BAB6",
"g+	c #D0D3CC",
"h+	c #D8DBD4",
"i+	c #D9DCD6",
"j+	c #DBDDD8",
"k+	c #DCDFD9",
"l+	c #DEE0DB",
"m+	c #D0D3CD",
"n+	c #CED0CB",
"o+	c #D2D4CF",
"p+	c #D9DBD6",
"q+	c #D8DBD6",
"r+	c #B5B7B3",
"s+	c #C2C3C0",
"t+	c #CDCECB",
"u+	c #CED0CD",
"v+	c #CFD1CE",
"w+	c #D2D3D1",
"x+	c #D5D6D3",
"y+	c #D1D3D0",
"                                            ",
"                . + @ @ # $ % & & * = - ;   ",
"              > , ' ) ! ~ { ] ^ / ( _ : <   ",
"              [ } | 1 2 3 4 5 6 7 8 9 0 a   ",
"              [ b c d e f g h i j k l m n   ",
"              o p q r s t u v ( w : x y n   ",
"  z A B B C C D E F F G H I J 8 K L M N O   ",
"  P Q R S T | U V e f W X Y Z k `  ...+.O   ",
"  @.#.$.%.' &.*.=.-.] ;.>.,.'.).x !.~.{.].  ",
"  ^./.(._.:.<.[.{ }.|.1.2.3.4.5.6.7.8.9.0.  ",
"  ^.a.b.| U c.d.e.W X 7 f.g.[ h.i.j.k.l.m.  ",
"  n.o.p.U d e f g h >.q.r.s.t.u.v.w.x.y.z.  ",
"  A.' ) ! ~ -.] ;.B.( C.: D.E.F.G.H.I.J.    ",
"  K.L.M.2 { 4 N.O.P.8 Q.0 R.S.T.U.V.W.X.Y.  ",
"  Z.`.`. +.+.+++@+#+$+%+&+*+h.=+-+;+>+,+;+  ",
"  '+)+!+~+{+]+^+/+(+_+:+<+[+                ",
"        }+|+1+2+2+2+3+4+5+6+                ",
"    7+8+9+F.G.0+G.a+b+c+d+e+                ",
"  f+g+h+i+j+k+l+j+m+n+o+p+q+r+              ",
"  s+t+t+,+u+v+>+w+x+y+>+y+>+t.              ",
"                                            ",
"                                            "};
