/* XPM */
static char * networkdead_xpm[] = {
"22 22 240 2",
"  	c None",
". 	c #B6BBC0",
"+ 	c #ADB5BD",
"@ 	c #B0B7BF",
"# 	c #B2B3B2",
"$ 	c #B0B1AE",
"% 	c #718CB2",
"& 	c #5F7DA9",
"* 	c #607DA9",
"= 	c #5474A3",
"- 	c #B2B9C0",
"; 	c #B1B2AF",
"> 	c #6C88B0",
", 	c #6A86AF",
"' 	c #6B87AF",
") 	c #5877A5",
"! 	c #B0B8C0",
"~ 	c #6784AD",
"{ 	c #5978A6",
"] 	c #5979A6",
"^ 	c #5A7AA7",
"/ 	c #5B7BA8",
"( 	c #5B7BA9",
"_ 	c #4E70A1",
": 	c #42669A",
"< 	c #365C92",
"[ 	c #AEB0AC",
"} 	c #6481AA",
"| 	c #4B6D9D",
"1 	c #4D6F9F",
"2 	c #4E71A1",
"3 	c #5072A3",
"4 	c #5073A3",
"5 	c #4B71A3",
"6 	c #3E669D",
"7 	c #2D5893",
"8 	c #25518E",
"9 	c #234E8B",
"0 	c #244D8A",
"a 	c #B0B2AF",
"b 	c #B4B9BE",
"c 	c #B2B8BD",
"d 	c #ACABAF",
"e 	c #9D8084",
"f 	c #AFB2B7",
"g 	c #9E8083",
"h 	c #5E7090",
"i 	c #2B5997",
"j 	c #2A5795",
"k 	c #285593",
"l 	c #26528F",
"m 	c #25508C",
"n 	c #B3BAC2",
"o 	c #4F70A0",
"p 	c #5C7BA7",
"q 	c #5C729B",
"r 	c #763A4B",
"s 	c #A32326",
"t 	c #6D475F",
"u 	c #5C77A1",
"v 	c #A42225",
"w 	c #86434B",
"x 	c #335690",
"y 	c #2C5B99",
"z 	c #2A5896",
"A 	c #275492",
"B 	c #26518E",
"C 	c #B0B8C1",
"D 	c #5374A3",
"E 	c #6B87B0",
"F 	c #6B5E7A",
"G 	c #A12225",
"H 	c #CE1414",
"I 	c #AD1E21",
"J 	c #75485D",
"K 	c #AE2023",
"L 	c #CF1414",
"M 	c #A52425",
"N 	c #42406A",
"O 	c #2E5A97",
"P 	c #2C5894",
"Q 	c #2A5591",
"R 	c #28528E",
"S 	c #B0B7C0",
"T 	c #476A9C",
"U 	c #5A79A6",
"V 	c #5C77A4",
"W 	c #6C4761",
"X 	c #AA1E21",
"Y 	c #CA1111",
"Z 	c #AE1B1D",
"` 	c #AD1C1E",
" .	c #C91212",
"..	c #AD1F21",
"+.	c #9D696A",
"@.	c #BCC3D0",
"#.	c #BFCAD8",
"$.	c #BFCAD7",
"%.	c #BEC9D7",
"&.	c #C7CACB",
"*.	c #3C6197",
"=.	c #4A6D9F",
"-.	c #4B6FA2",
";.	c #4D71A3",
">.	c #4E72A5",
",.	c #4E6FA0",
"'.	c #633B55",
").	c #AD1B1E",
"!.	c #C61010",
"~.	c #C51010",
"{.	c #AB1B1E",
"].	c #6E4258",
"^.	c #AEACA9",
"/.	c #B7B8B5",
"(.	c #A0A3A0",
"_.	c #8B9AA6",
":.	c #8B9CA9",
"<.	c #8A9DAD",
"[.	c #899BA9",
"}.	c #315992",
"|.	c #3B629A",
"1.	c #3C659C",
"2.	c #3E679F",
"3.	c #3B669F",
"4.	c #345C97",
"5.	c #553150",
"6.	c #AA1A1C",
"7.	c #C31010",
"8.	c #C01010",
"9.	c #A81A1D",
"0.	c #6E4359",
"a.	c #BCB9B7",
"b.	c #E0E0DF",
"c.	c #D9DAD8",
"d.	c #ACAEAB",
"e.	c #6888A9",
"f.	c #6289B2",
"g.	c #6B95C3",
"h.	c #2B5793",
"i.	c #2D5A97",
"j.	c #2E5C9A",
"k.	c #305B97",
"l.	c #54385A",
"m.	c #A81B20",
"n.	c #C71212",
"o.	c #A61B1E",
"p.	c #A4191C",
"q.	c #C21111",
"r.	c #AB1D20",
"s.	c #9B6563",
"t.	c #ABA9A3",
"u.	c #ADAFAA",
"v.	c #AAADA7",
"w.	c #ACB6BB",
"x.	c #BCBFBA",
"y.	c #26508D",
"z.	c #295591",
"A.	c #2B5895",
"B.	c #2E5B98",
"C.	c #42406B",
"D.	c #9E2024",
"E.	c #A61C20",
"F.	c #54304F",
"G.	c #532F4E",
"H.	c #A61B1F",
"I.	c #CE1313",
"J.	c #A92726",
"K.	c #B59592",
"L.	c #CFD1CC",
"M.	c #D0D3CE",
"N.	c #D5D7D1",
"O.	c #DADCD7",
"P.	c #CACCC8",
"Q.	c #C8CBCC",
"R.	c #B7C3D4",
"S.	c #B1B4C4",
"T.	c #9A555C",
"U.	c #A72527",
"V.	c #9E6E77",
"W.	c #B4BCCC",
"X.	c #B3BCCC",
"Y.	c #AA2728",
"Z.	c #9B5251",
"`.	c #CAC4C1",
" +	c #CECFCC",
".+	c #CECFCD",
"++	c #D0D1CE",
"@+	c #CDCFCC",
"#+	c #9C9E99",
"$+	c #A0A29E",
"%+	c #9C9E9A",
"&+	c #999A96",
"*+	c #A1A29E",
"=+	c #B3B4B1",
"-+	c #AFA9A6",
";+	c #A1807E",
">+	c #B3B1AE",
",+	c #979EA0",
"'+	c #91A0AC",
")+	c #909BA7",
"!+	c #85707B",
"~+	c #B8B8B6",
"{+	c #DEDEDD",
"]+	c #E3E4E2",
"^+	c #E4E4E3",
"/+	c #CFD0CF",
"(+	c #899194",
"_+	c #658CB7",
":+	c #6791BC",
"<+	c #B5B8B2",
"[+	c #B3B6AF",
"}+	c #ABAEA8",
"|+	c #ADAFA9",
"1+	c #ADB0AA",
"2+	c #A9ABA6",
"3+	c #ABADA7",
"4+	c #A7ABA8",
"5+	c #AEB9BE",
"6+	c #B2B5AF",
"7+	c #B8BAB6",
"8+	c #D0D3CC",
"9+	c #D8DBD4",
"0+	c #D9DCD6",
"a+	c #DBDDD8",
"b+	c #DCDFD9",
"c+	c #DEE0DB",
"d+	c #D0D3CD",
"e+	c #CED0CB",
"f+	c #D2D4CF",
"g+	c #D9DBD6",
"h+	c #D8DBD6",
"i+	c #B5B7B3",
"j+	c #C2C3C0",
"k+	c #CDCECB",
"l+	c #CED0CD",
"m+	c #CFD1CE",
"n+	c #D2D3D1",
"o+	c #D5D6D3",
"p+	c #D1D3D0",
"q+	c #BFC0BD",
"                                            ",
"                . + + + + + + + + + + @ #   ",
"              $ % & * * * * * * * * * = -   ",
"              ; > , ' ' ' ' ' ' ' ' ' ) !   ",
"              ; ~ { ] ^ / / ( / ^ _ : < !   ",
"              [ } | 1 2 3 4 5 6 7 8 9 0 !   ",
"  a b c c c c d e f c c f g h i j k l m !   ",
"  n o p p p q r s t u u t v w x y z A B !   ",
"  C D E E E F G H I J J K L M N O P Q R S   ",
"  C T U ^ / V W X Y Z `  ...+.@.#.$.$.%.&.  ",
"  C *.=.-.;.>.,.'.).!.~.{.].^./.(._.:.<.[.  ",
"  C }.|.1.2.3.4.5.6.7.8.9.0.a.b.c.d.e.f.g.  ",
"  C B h.i.j.k.l.m.n.o.p.q.r.s.t.u.v.w.x.    ",
"  C y.z.A.B.C.D.L E.F.G.H.I.J.K.L.M.N.O.P.  ",
"  Q.R.R.R.R.S.T.U.V.W.X.V.Y.Z.`. +.+++@+.+  ",
"  #+$+%+&+*+=+-+;+>+,+'+)+!+                ",
"        ~+{+]+^+^+^+/+(+_+:+                ",
"    <+[+}+|+u.1+u.2+3+4+5+6+                ",
"  7+8+9+0+a+b+c+a+d+e+f+g+h+i+              ",
"  j+k+k+@+l+m+++n+o+p+++p+++q+              ",
"                                            ",
"                                            "};
