/* XPM */
static char * fronton3_xpm[] = {
"22 22 254 2",
"  	c None",
". 	c #A3A5A0",
"+ 	c #B6BBC0",
"@ 	c #ADB5BD",
"# 	c #B0B7BF",
"$ 	c #B2B3B2",
"% 	c #B0B1AE",
"& 	c #718CB2",
"* 	c #5F7DA9",
"= 	c #607DA9",
"- 	c #5474A3",
"; 	c #B2B9C0",
"> 	c #B1B2AF",
", 	c #6C88B0",
"' 	c #6A86AF",
") 	c #6B87AF",
"! 	c #5877A5",
"~ 	c #B0B8C0",
"{ 	c #6784AD",
"] 	c #5978A6",
"^ 	c #5979A6",
"/ 	c #5A7AA7",
"( 	c #5B7BA8",
"_ 	c #5B7BA9",
": 	c #4E70A1",
"< 	c #42669A",
"[ 	c #365C92",
"} 	c #AEB0AC",
"| 	c #6481AA",
"1 	c #4B6D9D",
"2 	c #4D6F9F",
"3 	c #4E71A1",
"4 	c #5072A3",
"5 	c #5073A3",
"6 	c #4B71A3",
"7 	c #3E669D",
"8 	c #2D5893",
"9 	c #25518E",
"0 	c #234E8B",
"a 	c #244D8A",
"b 	c #ADB2B1",
"c 	c #AEBDCB",
"d 	c #AFC0CC",
"e 	c #B1C3CC",
"f 	c #B2C4CC",
"g 	c #B3C5CC",
"h 	c #B3C6CC",
"i 	c #B4C7CC",
"j 	c #B4C8CC",
"k 	c #B5C8CC",
"l 	c #B6C9CC",
"m 	c #B6CACC",
"n 	c #B4C5C7",
"o 	c #5E7A9C",
"p 	c #2B5997",
"q 	c #2A5795",
"r 	c #285593",
"s 	c #26528F",
"t 	c #25508C",
"u 	c #AABFD3",
"v 	c #0582FF",
"w 	c #1295FF",
"x 	c #1FA8FF",
"y 	c #27B3FF",
"z 	c #2CB9FF",
"A 	c #30BFFF",
"B 	c #34C6FF",
"C 	c #39CCFF",
"D 	c #3DD2FF",
"E 	c #42D9FF",
"F 	c #46DFFF",
"G 	c #74E9FD",
"H 	c #8595A8",
"I 	c #2F5E9C",
"J 	c #2C5B99",
"K 	c #2A5896",
"L 	c #275492",
"M 	c #26518E",
"N 	c #ACC1D4",
"O 	c #0D8EFF",
"P 	c #1BA1FF",
"Q 	c #25B0FF",
"R 	c #2AB7FF",
"S 	c #2EBDFF",
"T 	c #33C3FF",
"U 	c #37CAFF",
"V 	c #3CD0FF",
"W 	c #40D6FF",
"X 	c #44DDFF",
"Y 	c #47E2FE",
"Z 	c #72EBFA",
"` 	c #8696A8",
" .	c #305D9A",
"..	c #2E5A97",
"+.	c #2C5894",
"@.	c #2A5591",
"#.	c #28528E",
"$.	c #B0B7C0",
"%.	c #AEC3D4",
"&.	c #169AFF",
"*.	c #22ACFF",
"=.	c #28B5FF",
"-.	c #2DBBFF",
";.	c #31C1FF",
">.	c #36C7FF",
",.	c #3ACEFF",
"'.	c #3FD4FF",
").	c #42DAFE",
"!.	c #46E1FF",
"~.	c #44E4FA",
"{.	c #70ECF7",
"].	c #B4B9BB",
"^.	c #BFCAD7",
"/.	c #BFCAD8",
"(.	c #BEC9D7",
"_.	c #C7CACB",
":.	c #AFC6D4",
"<.	c #1EA7FF",
"[.	c #27B2FF",
"}.	c #2BB9FF",
"|.	c #34C5FF",
"1.	c #38CBFF",
"2.	c #41D8FF",
"3.	c #46DEFF",
"4.	c #46E3FC",
"5.	c #41E5F5",
"6.	c #6DEDF4",
"7.	c #B7B8B5",
"8.	c #A0A3A0",
"9.	c #8B9AA6",
"0.	c #8B9CA9",
"a.	c #8A9DAD",
"b.	c #899BA9",
"c.	c #B0C8D4",
"d.	c #2AB6FF",
"e.	c #44DCFF",
"f.	c #47E1FE",
"g.	c #43E5F8",
"h.	c #3DE7F1",
"i.	c #6BEEF0",
"j.	c #BFC0BD",
"k.	c #E0E0DF",
"l.	c #D9DAD8",
"m.	c #ACAEAB",
"n.	c #6888A9",
"o.	c #6289B2",
"p.	c #6B95C3",
"q.	c #B1C9D4",
"r.	c #28B4FF",
"s.	c #2DBAFF",
"t.	c #35C7FF",
"u.	c #3ACDFF",
"v.	c #3ED3FF",
"w.	c #42DAFF",
"x.	c #47E0FF",
"y.	c #45E4FA",
"z.	c #3FE6F3",
"A.	c #3AE8EC",
"B.	c #68EFED",
"C.	c #B0B2AD",
"D.	c #ADAFA9",
"E.	c #ADAFAA",
"F.	c #AAADA7",
"G.	c #ACB6BB",
"H.	c #BCBFBA",
"I.	c #A1A39E",
"J.	c #B1CAD4",
"K.	c #2BB8FF",
"L.	c #2FBFFF",
"M.	c #3CD2FF",
"N.	c #45DEFF",
"O.	c #46E2FC",
"P.	c #42E5F6",
"Q.	c #3CE7EF",
"R.	c #37E9E8",
"S.	c #65F0E9",
"T.	c #BEBFBB",
"U.	c #D4D6D1",
"V.	c #CFD1CC",
"W.	c #D0D3CE",
"X.	c #D5D7D1",
"Y.	c #DADCD7",
"Z.	c #CACCC8",
"`.	c #C8CECF",
" +	c #B7D9EC",
".+	c #B8DAEC",
"++	c #B9DBEB",
"@+	c #B9DCEB",
"#+	c #BADDEB",
"$+	c #BBDEEB",
"%+	c #BCE0EB",
"&+	c #BBE1E9",
"*+	c #BAE1E8",
"=+	c #B9E1E6",
"-+	c #B8E1E5",
";+	c #C8E8EA",
">+	c #D1D2CF",
",+	c #CECFCC",
"'+	c #CECFCD",
")+	c #D0D1CE",
"!+	c #CDCFCC",
"~+	c #989A95",
"{+	c #9C9E99",
"]+	c #A0A29E",
"^+	c #9C9E9A",
"/+	c #999A96",
"(+	c #A1A29E",
"_+	c #B3B4B1",
":+	c #B5B6B3",
"<+	c #B8B9B6",
"[+	c #B6B7B4",
"}+	c #979EA0",
"|+	c #91A0AC",
"1+	c #92A1AD",
"2+	c #90A1B1",
"3+	c #8C989E",
"4+	c #B8B8B6",
"5+	c #DEDEDD",
"6+	c #E3E4E2",
"7+	c #E4E4E3",
"8+	c #CFD0CF",
"9+	c #899194",
"0+	c #658CB7",
"a+	c #6791BC",
"b+	c #6A94C2",
"c+	c #B5B8B2",
"d+	c #B3B6AF",
"e+	c #ABAEA8",
"f+	c #ADB0AA",
"g+	c #A9ABA6",
"h+	c #ABADA7",
"i+	c #A7ABA8",
"j+	c #AEB9BE",
"k+	c #B2B5AF",
"l+	c #B8BAB6",
"m+	c #D0D3CC",
"n+	c #D8DBD4",
"o+	c #D9DCD6",
"p+	c #DBDDD8",
"q+	c #DCDFD9",
"r+	c #DEE0DB",
"s+	c #D0D3CD",
"t+	c #CED0CB",
"u+	c #D2D4CF",
"v+	c #D9DBD6",
"w+	c #D8DBD6",
"x+	c #B5B7B3",
"y+	c #C2C3C0",
"z+	c #CDCECB",
"A+	c #CED0CD",
"B+	c #CFD1CE",
"C+	c #D2D3D1",
"D+	c #D5D6D3",
"E+	c #D1D3D0",
"                                            ",
"              . + @ @ @ @ @ @ @ @ @ @ # $   ",
"              % & * = = = = = = = = = - ;   ",
"              > , ' ) ) ) ) ) ) ) ) ) ! ~   ",
"              > { ] ^ / ( ( _ ( / : < [ ~   ",
"              } | 1 2 3 4 5 6 7 8 9 0 a ~   ",
"  b c d e f g h i j k l m n o p q r s t ~   ",
"  u v w x y z A B C D E F G H I J K L M ~   ",
"  N O P Q R S T U V W X Y Z `  ...+.@.#.$.  ",
"  %.&.*.=.-.;.>.,.'.).!.~.{.].^./.^.^.(._.  ",
"  :.<.[.}.A |.1.D 2.3.4.5.6.> 7.8.9.0.a.b.  ",
"  c.Q d.S T U V W e.f.g.h.i.j.k.l.m.n.o.p.  ",
"  q.r.s.;.t.u.v.w.x.y.z.A.B.C.D.E.F.G.H.I.  ",
"  J.K.L.|.1.M.2.N.O.P.Q.R.S.T.U.V.W.X.Y.Z.  ",
"  `. +.+++@+#+$+%+&+*+=+-+;+7.>+,+'+)+!+'+~+",
"  {+]+^+/+(+_+:+<+[+}+|+1+2+3+              ",
"        4+5+6+7+7+7+8+9+0+a+b+              ",
"    c+d+e+D.E.f+E.g+h+i+j+k+                ",
"  l+m+n+o+p+q+r+p+s+t+u+v+w+x+              ",
"  y+z+z+!+A+B+)+C+D+E+)+E+)+j.              ",
"                                            ",
"                                            "};
