/* XPM */
static char * gnome_netstatus_idle_xpm[] = {
"22 22 211 2",
"  	c None",
". 	c #B6BBC0",
"+ 	c #ADB5BD",
"@ 	c #B0B7BF",
"# 	c #B2B3B2",
"$ 	c #B0B1AE",
"% 	c #718CB2",
"& 	c #5F7DA9",
"* 	c #607DA9",
"= 	c #5474A3",
"- 	c #B2B9C0",
"; 	c #B1B2AF",
"> 	c #6C88B0",
", 	c #6A86AF",
"' 	c #6B87AF",
") 	c #5877A5",
"! 	c #B0B8C0",
"~ 	c #6784AD",
"{ 	c #5978A6",
"] 	c #5979A6",
"^ 	c #5A7AA7",
"/ 	c #5B7BA8",
"( 	c #5B7BA9",
"_ 	c #4E70A1",
": 	c #42669A",
"< 	c #365C92",
"[ 	c #AEB0AC",
"} 	c #6481AA",
"| 	c #4B6D9D",
"1 	c #4D6F9F",
"2 	c #4E71A1",
"3 	c #5072A3",
"4 	c #5073A3",
"5 	c #4B71A3",
"6 	c #3E669D",
"7 	c #2D5893",
"8 	c #25518E",
"9 	c #234E8B",
"0 	c #244D8A",
"a 	c #B0B2AF",
"b 	c #B4B9BE",
"c 	c #B2B8BD",
"d 	c #B4B9BD",
"e 	c #5E7A9C",
"f 	c #2B5997",
"g 	c #2A5795",
"h 	c #285593",
"i 	c #26528F",
"j 	c #25508C",
"k 	c #B3BAC2",
"l 	c #4F70A0",
"m 	c #5C7BA7",
"n 	c #758EB4",
"o 	c #8595A8",
"p 	c #2F5E9C",
"q 	c #2C5B99",
"r 	c #2A5896",
"s 	c #275492",
"t 	c #26518E",
"u 	c #B0B8C1",
"v 	c #5374A3",
"w 	c #6B87B0",
"x 	c #728CB3",
"y 	c #8696A8",
"z 	c #305D9A",
"A 	c #2E5A97",
"B 	c #2C5894",
"C 	c #2A5591",
"D 	c #28528E",
"E 	c #B0B7C0",
"F 	c #476A9C",
"G 	c #5A79A6",
"H 	c #5C7BA9",
"I 	c #5778A6",
"J 	c #4B6D9F",
"K 	c #416599",
"L 	c #6581AB",
"M 	c #B4B9BB",
"N 	c #BFCAD7",
"O 	c #BFCAD8",
"P 	c #BEC9D7",
"Q 	c #C7CACB",
"R 	c #3C6197",
"S 	c #4A6D9F",
"T 	c #4B6FA2",
"U 	c #4D71A3",
"V 	c #4E72A5",
"W 	c #4E73A5",
"X 	c #486EA2",
"Y 	c #39619A",
"Z 	c #24508D",
"` 	c #224C8A",
" .	c #B7B8B5",
"..	c #A0A3A0",
"+.	c #8B9AA6",
"@.	c #8B9CA9",
"#.	c #8A9DAD",
"$.	c #899BA9",
"%.	c #315992",
"&.	c #3B629A",
"*.	c #3C659C",
"=.	c #3E679F",
"-.	c #3B669F",
";.	c #33609C",
">.	c #2C5A98",
",.	c #2B5896",
"'.	c #295694",
").	c #275391",
"!.	c #25508D",
"~.	c #5D7CA9",
"{.	c #BFC0BD",
"].	c #E0E0DF",
"^.	c #D9DAD8",
"/.	c #ACAEAB",
"(.	c #6888A9",
"_.	c #6289B2",
":.	c #6B95C3",
"<.	c #2B5793",
"[.	c #2D5A97",
"}.	c #2E5C9A",
"|.	c #2E5E9C",
"1.	c #30609E",
"2.	c #2F5F9E",
"3.	c #2E5D9B",
"4.	c #2B5998",
"5.	c #265290",
"6.	c #5E7DA9",
"7.	c #B0B2AD",
"8.	c #ADAFA9",
"9.	c #ADAFAA",
"0.	c #AAADA7",
"a.	c #ACB6BB",
"b.	c #BCBFBA",
"c.	c #26508D",
"d.	c #295591",
"e.	c #2B5895",
"f.	c #2E5B98",
"g.	c #305D9B",
"h.	c #31609D",
"i.	c #315F9C",
"j.	c #2F5C99",
"k.	c #2D5997",
"l.	c #295490",
"m.	c #BEBFBB",
"n.	c #D4D6D1",
"o.	c #CFD1CC",
"p.	c #D0D3CE",
"q.	c #D5D7D1",
"r.	c #DADCD7",
"s.	c #CACCC8",
"t.	c #C8CBCC",
"u.	c #B7C3D4",
"v.	c #B7C3D3",
"w.	c #B6C3D3",
"x.	c #B6C2D2",
"y.	c #C7D0DD",
"z.	c #D1D2CF",
"A.	c #CECFCC",
"B.	c #CECFCD",
"C.	c #D0D1CE",
"D.	c #CDCFCC",
"E.	c #9C9E99",
"F.	c #A0A29E",
"G.	c #9C9E9A",
"H.	c #999A96",
"I.	c #A1A29E",
"J.	c #B3B4B1",
"K.	c #B5B6B3",
"L.	c #B8B9B6",
"M.	c #B6B7B4",
"N.	c #979EA0",
"O.	c #91A0AC",
"P.	c #92A1AD",
"Q.	c #90A1B1",
"R.	c #B8B8B6",
"S.	c #DEDEDD",
"T.	c #E3E4E2",
"U.	c #E4E4E3",
"V.	c #CFD0CF",
"W.	c #899194",
"X.	c #658CB7",
"Y.	c #6791BC",
"Z.	c #B5B8B2",
"`.	c #B3B6AF",
" +	c #ABAEA8",
".+	c #ADB0AA",
"++	c #A9ABA6",
"@+	c #ABADA7",
"#+	c #A7ABA8",
"$+	c #AEB9BE",
"%+	c #B2B5AF",
"&+	c #B8BAB6",
"*+	c #D0D3CC",
"=+	c #D8DBD4",
"-+	c #D9DCD6",
";+	c #DBDDD8",
">+	c #DCDFD9",
",+	c #DEE0DB",
"'+	c #D0D3CD",
")+	c #CED0CB",
"!+	c #D2D4CF",
"~+	c #D9DBD6",
"{+	c #D8DBD6",
"]+	c #B5B7B3",
"^+	c #C2C3C0",
"/+	c #CDCECB",
"(+	c #CED0CD",
"_+	c #CFD1CE",
":+	c #D2D3D1",
"<+	c #D5D6D3",
"[+	c #D1D3D0",
"                                            ",
"                . + + + + + + + + + + @ #   ",
"              $ % & * * * * * * * * * = -   ",
"              ; > , ' ' ' ' ' ' ' ' ' ) !   ",
"              ; ~ { ] ^ / / ( / ^ _ : < !   ",
"              [ } | 1 2 3 4 5 6 7 8 9 0 !   ",
"  a b c c c c c c c c c c d e f g h i j !   ",
"  k l m m m m m m m m m m n o p q r s t !   ",
"  u v w w w w w w w w w w x y z A B C D E   ",
"  u F G ^ / H H H / I J K L M N O N N P Q   ",
"  u R S T U V W X Y C Z ` m ;  ...+.@.#.$.  ",
"  u %.&.*.=.-.;.>.,.'.).!.~.{.].^./.(._.:.  ",
"  u t <.[.}.|.1.2.3.4.'.5.6.7.8.9.0.a.b.    ",
"  u c.d.e.f.g.h.i.j.k.<.l.6.m.n.o.p.q.r.s.  ",
"  t.u.u.u.u.u.u.u.v.v.w.x.y. .z.A.B.C.D.B.  ",
"  E.F.G.H.I.J.K.L.M.N.O.P.Q.                ",
"        R.S.T.U.U.U.V.W.X.Y.                ",
"    Z.`. +8.9..+9.++@+#+$+%+                ",
"  &+*+=+-+;+>+,+;+'+)+!+~+{+]+              ",
"  ^+/+/+D.(+_+C.:+<+[+C.[+C.{.              ",
"                                            ",
"                                            "};
