/* XPM */
static char *gnotravex_xpm[] = {
"24 24 97 2",
"AA	c #000000",
"BA	c #010101",
"CA	c #020202",
"DA	c #030303",
"EA	c #040404",
"FA	c #050505",
"GA	c #060606",
"HA	c #0A0A0A",
"IA	c #0B0B0B",
"JA	c #0C0C0C",
"KA	c #0D0D0D",
"LA	c #0E0E0E",
"MA	c #0F0F0F",
"NA	c #111111",
"OA	c #121212",
"PA	c #131313",
"QA	c #141414",
"RA	c #171717",
"SA	c #191919",
"TA	c #1B1B1B",
"UA	c #252525",
"VA	c #262626",
"WA	c #2F2F2F",
"XA	c #303030",
"YA	c #313131",
"ZA	c #3C3C3C",
"aA	c #3D3D3D",
"bA	c #404040",
"cA	c #414141",
"dA	c #454545",
"eA	c #464646",
"fA	c #515151",
"gA	c #525252",
"hA	c #585858",
"iA	c #595959",
"jA	c #5A5A5A",
"kA	c #5E5E5E",
"lA	c #616161",
"mA	c #626262",
"nA	c #636363",
"oA	c #656565",
"pA	c #6D6D6D",
"qA	c #717171",
"rA	c #727272",
"sA	c #737373",
"tA	c #787878",
"uA	c #7A7A7A",
"vA	c #7D7D7D",
"wA	c #7E7E7E",
"xA	c #7F7F7F",
"yA	c #808080",
"zA	c #818181",
"0A	c #858585",
"1A	c #868686",
"2A	c #888888",
"3A	c #898989",
"4A	c #8A8A8A",
"5A	c #8B8B8B",
"6A	c #8C8C8C",
"7A	c #8D8D8D",
"8A	c #8F8F8F",
"9A	c #909090",
"+A	c #9A9A9A",
"/A	c #A4A4A4",
"AB	c #A5A5A5",
"BB	c #AEAEAE",
"CB	c #B1B1B1",
"DB	c #BEBEBE",
"EB	c #C1C1C1",
"FB	c #D0D0D0",
"GB	c #D7D7D7",
"HB	c #DBDBDB",
"IB	c #DCDCDC",
"JB	c #DDDDDD",
"KB	c #DEDEDE",
"LB	c #E0E0E0",
"MB	c #E1E1E1",
"NB	c #E2E2E2",
"OB	c #E5E5E5",
"PB	c #E6E6E6",
"QB	c #E7E7E7",
"RB	c #E8E8E8",
"SB	c #EAEAEA",
"TB	c #EBEBEB",
"UB	c #EEEEEE",
"VB	c #EFEFEF",
"WB	c #F0F0F0",
"XB	c #F3F3F3",
"YB	c #F4F4F4",
"ZB	c #F5F5F5",
"aB	c #F6F6F6",
"bB	c #F7F7F7",
"cB	c #F8F8F8",
"dB	c #FAFAFA",
"eB	c #FCFCFC",
"fB	c #FFFFFF",
"  	c None",
"UAlAlAlAnAnAnAnAnAnAnAnAnAlAnAnAnAlAlAnAnAnAgANA",
"lAOBXBkASASAQASASAQASAQASASASASASASASAQASAhAwAXA",
"lA+AIBMB            AAAAAAAAAA        AAaAwA4AXA",
"lAqA4AIBdA          AAAAAAAAAA        bAxADB8AWA",
"nASAKAjAIBOBdA      AAAAAAAAAA    AAbADBdBwAqAXA",
"nAQA  KA9AIBMB      AAAAAAAAAA  AAbAxAXB0AAAsAXA",
"nASA    kA8AIBdA    AAAAAAAAAA  bAxADBwAFA  qAXA",
"lASA      KAjAIBOBdAAAAAAAAAAAbADBdBwA      sAXA",
"nASA  AAAA  KA9AIBOB      FAaAxAXB0AAAAAAA  sAYA",
"nAQAAAAAAAAAAAjA8AIBdA    bAwADBwAFAAAAAAAAAqAXA",
"nASAAAAAAAAAAA  KAjAIBMBpADBdBwA  AAAA  AAAAsAXA",
"nASAAAAAAAAAAA    KA8AIBVBXBxAFA  AAAAAAAAAAsAXA",
"lASAAAAAAAAAAA      sA9AXBBBFA    AAAAAAAAAAqAXA",
"nAQAAAAAAAAAAA  AAbADBXB/AIBOBdA  AAAAAAAAAAsAXA",
"nASAAAAAAAAA  FAbAxAdBxAQA8AIBMB  AAAAAAAAAAsAYA",
"nASA          bAxADBwAFA  jA8AIBdA          qAXA",
"lASA      AAbADBdBwAAAAAAAAAKAjAIBOBdA      sAXA",
"nASA    FAaAwAdBxAFAAAAAAAAAAAKA8AIBOB      sAXA",
"nASA    bAwADBwAFA  AAAAAAAAAA  jA8AIBdA    sAYA",
"nASAAAaADBdBwA        AAAAAA      KAjAHBOBdAsAYA",
"nATAaAwAdBxAFA        AAAA          KA8AIBOBsAYA",
"nAhAwADBwAFA        AAAAAA            jA8AIB4AWA",
"nA0A4A8AsAsAsAsAsAqAsAsAsAsAsAsAsAsAqAqAwAwAwAXA",
"UAWAXAXAXAXAYAXAXAXAYAXAXAXAXAYAXAXAXAXAXAXAXANA"
};
