/* XPM */
static char * info_xpm[] = {
"46 46 64 1",
" 	c None",
".	c #E5E5EA",
"+	c #D3D5D1",
"@	c #C6C8CB",
"#	c #CFCED4",
"$	c #BFBDC1",
"%	c #C0C2BF",
"&	c #AEB2C0",
"*	c #9AA6C7",
"=	c #9AAAD8",
"-	c #879ACB",
";	c #A7B1C8",
">	c #BDC0CC",
",	c #88A4E1",
"'	c #6F90E5",
")	c #6386DF",
"!	c #5A81DB",
"~	c #6E8AD3",
"{	c #778BC5",
"]	c #7B9DE6",
"^	c #5977D1",
"/	c #547AD2",
"(	c #5C7ECB",
"_	c #5271CB",
":	c #486BC5",
"<	c #B3BFE0",
"[	c #4771C9",
"}	c #4566BF",
"|	c #EFF0F4",
"1	c #3B63C0",
"2	c #576DB9",
"3	c #F3F4F1",
"4	c #4461B3",
"5	c #627BBC",
"6	c #3F5FB7",
"7	c #7F8CBB",
"8	c #3458B3",
"9	c #E8E7E4",
"0	c #4B65AF",
"a	c #B3B3B7",
"b	c #6B82B8",
"c	c #6175B3",
"d	c #3F57A9",
"e	c #2B4BA8",
"f	c #1949AA",
"g	c #3A54B2",
"h	c #2C4BA1",
"i	c #848CAA",
"j	c #6C7CAA",
"k	c #2645A1",
"l	c #99A1BC",
"m	c #435AB9",
"n	c #B3B5B1",
"o	c #ABAAA8",
"p	c #2444A7",
"q	c #A6A5A9",
"r	c #2E41A6",
"s	c #2643AD",
"t	c #1748B0",
"u	c #2746B7",
"v	c #2E44BB",
"w	c #364FB4",
"x	c #304AB5",
"y	c #1B48BF",
"                    ..+++..                   ",
"                ..@#@@@@$@$$#.                ",
"              .+%@&*=-----*;>$$#.             ",
"            .#@;=,')!!!!))!!~{*>@+.           ",
"          .++;=]'!!!!!!))!!!!^/(->$+.         ",
"         .#>=]'')!!!!!!)!!!/^//_:(*>$.        ",
"        .#<,'')))))!!))!!!/////[[[[{>$.       ",
"       .#<]')))))))!!!~~'/!///__[[[}(;+.      ",
"      .#<')))))))))!!=||.,/^[[[_[[1112;+.     ",
"     .#<'))))))!!!!!=||||.,___[[[}1}}}2;$.    ",
"    .#<]!!!!!!!!//!)<3|333<[[[[:11111145&+    ",
"    .>,!!!!!!!/////)<33|3|;[:::}111}4461{$.   ",
"   .@-!/!/////////^/=|3|3.7[::}}}11666668;$   ",
"   @;)/^//^/^^///^^/!*.9.*0::}}}}466668885a.  ",
"  .>-/_[_[_///__[_[__[5bc0}:}}}11464688888*.  ",
"  #;(:__[[_[__[[___[[_1}81}:11}1666888888dc$  ",
" .$-^[[[_[_[[___[[::/{~~~~211188defffe888gd;. ",
" .>5::::::::[[[[:::[<|..+#b88ffffffffffffhei. ",
" +;[::::::::::::::11<9#@@$jffkkkkkkkkkkfffec+ ",
" +l:1}}}:::::::111m6;9%%nnjkkkkkkkkkkkkkfff0+.",
" $7}}}}}}}:}111118fe;$$aoojkkkkkkkkkkkkkkkfd+.",
".$b11}}111}111}mpkhel$$ooojkkkkkkkkkkkkkkkkh&#",
".%j}11111111}1g8kkfhl$aoqojkkkkkkkkkkkpppkkkl+",
"+$b641111}118ffkkfeflnooqojpkppppkkkkkkkkkkhq+",
"#%bm4411m6m8efkkfffeinqqqojppppppppppppkkkfh;+",
".>b1111mmm6eekkefffkiqqqqqjrpppprprppppprrph&#",
" %71}6mm88efkkfefeppiqqqqojprprppprppprppppd&.",
" $l4mm888fkkffeefkpkioqqoojrpsssssspprppppt0+.",
" .&0m8888kkeftefppppiooooncrsssssssssssssppj# ",
" .a5888efkffeeftpppkiooannjrssssssssssssssel. ",
"  >i8gghefffeeepppppiona%%crsuuussssssssssd+. ",
"  #;48fffefeffpfpppplnn%@+jsuuuuuuuussssss7+  ",
"  .$beeefefefpppppppl$%%#.bruuuuuuuuvuusse&.  ",
"   a&4ffffefpppppsstl%##.9bvuuuuuuuuuuuss{#.  ",
"   .%ieeepfppppptttwl++9.9{vuuuuuuuuuuuud>.   ",
"    $>5fpefppppftsxu*9..|9{uuuuuvvvuvuvx*@.   ",
"    .a&2pepppptttuux<9.9..{vvuuuvuvuuuv7+.    ",
"     .$;4rppfpttsuux<99|93cuvuuuuuuyvub#.     ",
"      .$l6fppsstxxuu47777jduuyvvvvyyv5#.      ",
"       .@;2ptpssuuxvxvssvvvyyyyyyyvu7#.       ",
"        .$>{etrxuuuuuvvvyvvyyyvuvv6=#.        ",
"         .#%l2fuuuxyxxyyvyyyyvvvw{#..         ",
"           .@>l5wsvuvvvyvyvvvx17##..          ",
"             .#$&-54gwwwwxm2{<.#..            ",
"               .###>>&&;>>#+##..              ",
"                  ..#$#%#...                  "};
