/* XPM */
static char *networkout_xpm[] = {
"24 24 8 1",
"0	c #000000",
"1	c #FF0000",
"2	c #00FF00",
"3	c #B2B240",
"4	c #3333B6",
"5	c #A0A0A0",
" 	c None",
"7	c #00C800",
"                        ",
"       00000            ",
"     004433400          ",
"    04444444440         ",
"   0334444444430        ",
"  033344444443330       ",
"  033444444443330       ",
" 03344444444443330      ",
" 03443443344444330      ",
" 04444444444444430      ",
" 044443443440000000000  ",
" 0444433333022222222270 ",
"  044333333022222222270 ",
"  044333333022222222270 ",
"   04433434022222222270 ",
"    0444444022222222270 ",
"    0204333022222222270 ",
"   02000000022222222270 ",
"  020      077777777770 ",
"  020     020000000000  ",
"   020000020   0000     ",
"    0222220   000000    ",
"     00000    000000    ",
"                        "
};
