/* XPM */
static char * Boss2_xpm[] = {
"100 150 18 1",
" 	c None",
".	c #606060606060",
"X	c #202020202020",
"o	c #C0C0C0C0C0C0",
"O	c #C0C090900000",
"+	c #C0C000006060",
"@	c #A0A000005050",
"#	c #808000004040",
"$	c #FFFFC0C00000",
"%	c #808060600000",
"&	c #E0E000007070",
"*	c #606000003030",
"=	c #C0C060600000",
"-	c #FFFF80800000",
";	c #808040400000",
":	c #404040404040",
">	c #FFFFFFFF0000",
",	c #51515151FBFB",
"                         .....X                                     o.....                          ",
"                         .....XX                                   oo.....                          ",
"                         .....XXXX                               oooo.....                          ",
"                         .....XXXXX                             ooooo.....                          ",
"                         .....XXXXXX                           oooooo.....                          ",
"                         .....XXXXXXXX                       oooooooo.....                          ",
"                         .....XXXXXXXXX                     ooooooooo.....                          ",
"                         .....XXXXXXXXXX                   oooooooooo.....                          ",
"                         .....XXXXXXXXXX                   oooooooooo.....                          ",
"                  OOOOOOO.....XXXXXXXXXX                   oooooooooo.....OOOOOOOO                  ",
"  +@@#           $OOOOOOO.....XXXXXXXXXX                   oooooooooo.....OOOOOOOO%           +@@#  ",
" ++@@##         $$OOOOOOO.....XXXXXXXXXX                   oooooooooo.....OOOOOOOO%%         ++@@## ",
"&++@@##*       $$$OOOOOOO.....XXXXXXXXXX                   oooooooooo.....OOOOOOOO%%%       &++@@##*",
"&++@@##*      $$$$OOOOOOO.....XXXXXXXXXX                   oooooooooo.....OOOOOOOO%%%%      &++@@##*",
"&++@@##*     $$$$$OOOOOOO.....XXXXXXXXXX                   oooooooooo.....OOOOOOOO%%%%%     &++@@##*",
"&++@@##*    $$$$$$OOOOOOO.....XXXXXXXXXX   =============   oooooooooo.....OOOOOOOO%%%%%%    &++@@##*",
"&++@@##*   $$$$$$$OOOOOOO.....XXXXXXXXXX   =============   oooooooooo.....OOOOOOOO%%%%%%%   &++@@##*",
"&++@@##*   $$$$$$$OOOOOOO.....XXXXXXXXXX   =============   oooooooooo.....OOOOOOOO%%%%%%%   &++@@##*",
"&++@@##*   $$$$$$OOOOOOOO.....XXXXXXXXXX  --===========;;  oooooooooo.....OOOOOOOOO%%%%%%   &++@@##*",
"&++@@##*...$$$$$$OOOOOOOO.....XXXXXXXXXX  --===========;;  oooooooooo.....OOOOOOOOO%%%%%%...&++@@##*",
"&++@@##*...$$$$$$OOOOOOOO.....XXXXXXXXXX ---===========;;; oooooooooo.....OOOOOOOOO%%%%%%...&++@@##*",
"&++@@##*...$$$$$$OOOOOOOO.....XXXXXXXXXX ---===========;;; oooooooooo.....OOOOOOOOO%%%%%%...&++@@##*",
"&++@@##*...$$$$$$OOOOOOOO.....XXXXXXXXXX----===========;;;;oooooooooo.....OOOOOOOOO%%%%%%...&++@@##*",
"&++@@##*...$$$$$$OOOOOOOO.....XXXXXXXXXX----===========;;;;oooooooooo.....OOOOOOOOO%%%%%%...&++@@##*",
"&++@@##*...$$$$$$OOOOOOOO.....XXXXXXXXXX----===========;;;;oooooooooo.....OOOOOOOOO%%%%%%...&++@@##*",
"&++@@##*...$$$$$$OOOOOOOO.....XXXXXXXXXX----===========;;;;oooooooooo.....OOOOOOOOO%%%%%%...&++@@##*",
"&++@@##*...$$$$$$OOOOOOOO.....XXXXXXXXXX----===========;;;;oooooooooo.....OOOOOOOOO%%%%%%...&++@@##*",
"&++@@##*...$$$$$$OOOOOOOO.....XXXXXXXXXX----===========;;;;oooooooooo.....OOOOOOOOO%%%%%%...&++@@##*",
"&++@@##*...$$$$$$OOOOOOOO.....XXXXXXXXXX----===========;;;;oooooooooo.....OOOOOOOOO%%%%%%...&++@@##*",
"&++@@##*...$$$$$$OOOOOOOO.....XXXXXXXXXX----===========;;;;oooooooooo.....OOOOOOOOO%%%%%%...&++@@##*",
"&++@@##*...$$$$$$OOOOOOOO.....XXXXXXXXXX----===========;;;;oooooooooo.....OOOOOOOOO%%%%%%...&++@@##*",
"&++@@##*...$$$$$$OOOOOOOO.....XXXXXXXXXX----===========;;;;oooooooooo.....OOOOOOOOO%%%%%%...&++@@##*",
"&++@@##*...$$$$$$OOOOOOOO.....XXXXXXXXXX----===========;;;;oooooooooo.....OOOOOOOOO%%%%%%...&++@@##*",
"&++@@##*...$$$$$OOOOOOOOO.....XXXXXXXXXX----===========;;;;oooooooooo.....OOOOOOOOOO%%%%%...&++@@##*",
"&++@@##*...$$$$$OOOOOOOOO.....XXXXXXXXXX----===========;;;;oooooooooo.....OOOOOOOOOO%%%%%...&++@@##*",
"&++@@##*...$$$$$OOOOOOOOO.....XXXXXXXXXX----===========;;;;oooooooooo.....OOOOOOOOOO%%%%%...&++@@##*",
"&++@@##*...$$$$$OOOOOOOOO.....XXXXXXXXXX----===========;;;;oooooooooo.....OOOOOOOOOO%%%%%...&++@@##*",
"&++@@##*...$$$$$OOOOOOOOO.....XXXXXXXXXX----===========;;;;oooooooooo.....OOOOOOOOOO%%%%%...&++@@##*",
"&++@@##*...$$$$$OOOOOOOOO.....XXXXXXXXXX----===========;;;;oooooooooo.....OOOOOOOOOO%%%%%...&++@@##*",
"&++@@##*...$$$$$OOOOOOOOO.....XXXXXXXXXX----===========;;;;oooooooooo.....OOOOOOOOOO%%%%%...&++@@##*",
"&++@@##*...$$$$$OOOOOOOOO.....XXXXXXXXXX----===========;;;;oooooooooo.....OOOOOOOOOO%%%%%...&++@@##*",
"&++@@##*...$$$$$OOOOOOOOO.....XXXXXXXXXX----===========;;;;oooooooooo.....OOOOOOOOOO%%%%%...&++@@##*",
"&++@@##*...$$$$$OOOOOOOOO.....XXXXXXXXXX----===========;;;;oooooooooo.....OOOOOOOOOO%%%%%...&++@@##*",
"&++@@##*...$$$$$OOOOOOOOO.....XXXXXXXXXX----===========;;;;oooooooooo.....OOOOOOOOOO%%%%%...&++@@##*",
"&++@@##*...$$$$$OOOOOOOOO.....XXXXXXXXXX----===========;;;;oooooooooo.....OOOOOOOOOO%%%%%...&++@@##*",
"&++@@##*...$$$$$OOOOOOOOO.....XXXXXXXXXX----===========;;;;oooooooooo.....OOOOOOOOOO%%%%%...&++@@##*",
"&++@@##*...$$$$$OOOOOOOOO.....XXXXXXXXXX----===========;;;;oooooooooo.....OOOOOOOOOO%%%%%...&++@@##*",
"&++@@##*...$$$$$OOOOOOOOO.....XXXXXXXXXX----===========;;;;oooooooooo.....OOOOOOOOOO%%%%%...&++@@##*",
"&++@@##*...$$$$OOOOOOOOOO.....XXXXXXXXXX----===========;;;;oooooooooo.....OOOOOOOOOOO%%%%...&++@@##*",
"&++@@##*...$$$$OOOOOOOOOO.....XXXXXXXXXX----===========;;;;oooooooooo.....OOOOOOOOOOO%%%%...&++@@##*",
"&++@@##*...$$$$OOOOOOOOOO.....XXXXXXXXXX----===========;;;;oooooooooo.....OOOOOOOOOOO%%%%...&++@@##*",
"&++@@##*...$$$$OOOOOOOOOO.....XXXXXXXXXX----===========;;;;oooooooooo.....OOOOOOOOOOO%%%%...&++@@##*",
"&++@@##*...$$$$OOOOOOOOOO.....XXXXXXXXXX----===========;;;;oooooooooo.....OOOOOOOOOOO%%%%...&++@@##*",
"&++@@##*...$$$$OOOOOOOOOO.....XXXXXXXXXX----===========;;;;oooooooooo.....OOOOOOOOOOO%%%%...&++@@##*",
"&++@@##*...$$$$OOOOOOOOOO.....XXXXXXXXXX----===========;;;;oooooooooo.....OOOOOOOOOOO%%%%...&++@@##*",
"&++@@##*...$$$$OOOOOOOOOO.....XXXXXXXXXX----===========;;;;oooooooooo.....OOOOOOOOOOO%%%%...&++@@##*",
"&++@@##*...$$$$OOOOOOOOOO.....XXXXXXXXXX----===========;;;;oooooooooo.....OOOOOOOOOOO%%%%...&++@@##*",
"&++@@##*...$$$$OOOOOOOOOO.....XXXXXXXXXX----===========;;;;oooooooooo.....OOOOOOOOOOO%%%%...&++@@##*",
"&++@@##*...$$$$OOOOOOOOOO.....XXXXXXXXXX----===========;;;;oooooooooo.....OOOOOOOOOOO%%%%...&++@@##*",
"&++@@##*...$$$$OOOOOOOOOO.....XXXXXXXXXX----===========;;;;oooooooooo.....OOOOOOOOOOO%%%%...&++@@##*",
"&++@@##*...$$$$OOOOOOOOOO.....XXXXXXXXXX----===========;;;;oooooooooo.....OOOOOOOOOOO%%%%...&++@@##*",
"&++@@##*...$$$$OOOOOOOOOO.....XXXXXXXXXX----===========;;;;oooooooooo.....OOOOOOOOOOO%%%%...&++@@##*",
"&++@@##*...$$$$OOOOOOOOOO.....XXXXXXXXXX----===========;;;;oooooooooo.....OOOOOOOOOOO%%%%...&++@@##*",
"&++@@##*...$$$OOOOOOOOOOO.....XXXXXXXXXX----===========;;;;oooooooooo.....OOOOOOOOOOOO%%%...&++@@##*",
"&++@@##*...$$$OOOOOOOOOOO.....XXXXXXXXXX----===========;;;;oooooooooo.....OOOOOOOOOOOO%%%...&++@@##*",
"&++@@##*...$$$OOOOOOOOOOO.....XXXXXXXXXX----===========;;;;oooooooooo.....OOOOOOOOOOOO%%%...&++@@##*",
"&++@@##*...$$$OOOOOOOOOOO.....XXXXXXXXXX----===========;;;;oooooooooo.....OOOOOOOOOOOO%%%...&++@@##*",
"&++@@##*...$$$OOOOOOOOOOO.....XXXXXXXXXX----===========;;;;oooooooooo.....OOOOOOOOOOOO%%%...&++@@##*",
"&++@@##*...$$$OOOOOOOOOOO.....XXXXXXXXXX----===========;;;;oooooooooo.....OOOOOOOOOOOO%%%...&++@@##*",
"&++@@##*...$$$OOOOOOOOOOO:::::XXXXXXXXXX----===========;;;;oooooooooo:::::OOOOOOOOOOOO%%%...&++@@##*",
"&++@@##*...$$$OOOOOOOOOOOO:::::XXXXXXXXX----===========;;;;ooooooooo:::::OOOOOOOOOOOOO%%%...&++@@##*",
"&++@@##*   $$OOOOOOOOOOOOOO:::::XXXXXXXX----===========;;;;oooooooo:::::OOOOOOOOOOOOOOO%%   &++@@##*",
"&++@@##*   $$OOOOOOOOOOOOOOO:::::XXXXXXX----===========;;;;ooooooo:::::OOOOOOOOOOOOOOOO%%   &++@@##*",
"&++@@##*   $$OOOOOOOOOOOOOOOO:::::XXXXXX-->-===========;;;;oooooo:::::OOOOOOOOOOOOOOOOO%%   &++@@##*",
"&++@@##*   $$OOOOOOOOOOOOOOOOO:::::XXXXX-->-===========;;;;ooooo:::::OOOOOOOOOOOOOOOOOO%%   &++@@##*",
"&++@@##*   $$OOOOOOOOOOOOOOOOOO:::::XXXX-->>===========>;;;oooo:::::OOOOOOOOOOOOOOOOOOO%%   &++@@##*",
"&++@@##*   $$OOOOOOOOOOOOOOOOOOO:::::XXX-->>>>>>>>>>>>>>;;;ooo:::::OOOOOOOOOOOOOOOOOOOO%%   &++@@##*",
"&++@@##*   $$OOOOOOOOOOOOOOOOOOOO:::::XX-->>>>>>>>>>>>>>;;;oo:::::OOOOOOOOOOOOOOOOOOOOO%%   &++@@##*",
"&++@@##*   $$OOOOOOOOOOOOOOOOOOOOOOOOOOO--->>>>>>>>>>>>>;;;OOOOOOOOOOOOOOOOOOOOOOOOOOOO%%   &++@@##*",
"&++@@##*   $$OOOOOOOOOOOOOOOOOOOOOOOOOOO--->>>>>>>>>>>>>;;;OOOOOOOOOOOOOOOOOOOOOOOOOOOO%%   &++@@##*",
"&++@@##*   $$OOOOOOOOOOOOOOOOOOOOOOOOOOO---->>>>>>>>>>>;;;;OOOOOOOOOOOOOOOOOOOOOOOOOOOO%%   &++@@##*",
"&++@@##*   $$OOOOOOOOOOOOOOOOOOOOOOOOOOO----===========;;;;OOOOOOOOOOOOOOOOOOOOOOOOOOOO%%   &++@@##*",
"&++@@##*   $$OOOOOOOOOOOOOOOOOOOOOOOOOOO----===========;;;;OOOOOOOOOOOOOOOOOOOOOOOOOOOO%%   &++@@##*",
"&++@@##*   $$OOOOOOOOOOOOOOOOOOOOOOOOOOO----==========;;;;;OOOOOOOOOOOOOOOOOOOOOOOOOOOO%%   &++@@##*",
"&++@@##*   $$OOOOOOOOOOOOOOOOOOOOOOOOOOO ----=========;;;; OOOOOOOOOOOOOOOOOOOOOOOOOOOO%%   &++@@##*",
"&++@@##*   $$OOOOOOOOOOOOOOOOOOOOOOOOOOO ----=========;;;; OOOOOOOOOOOOOOOOOOOOOOOOOOOO%%   &++@@##*",
"&++@@##*   $$OOOOOOOOOOOOOOOOOOOOOOOOOOO ----=========;;;; OOOOOOOOOOOOOOOOOOOOOOOOOOOO%%   &++@@##*",
"&++@@##*   $$OOOOOOOOOOOOOOOOOOOOOOOOOOO ----=========;;;; OOOOOOOOOOOOOOOOOOOOOOOOOOOO%%   &++@@##*",
"&++@@##*   $$OOOOOOOOOOOOOOOOOOOOOOOOOOO  ---=========;;;  OOOOOOOOOOOOOOOOOOOOOOOOOOOO%%   &++@@##*",
"&++@@##*   $$OOOOOOOOOOOOOOOOOOOOOOOOOOO  ---=========;;;  OOOOOOOOOOOOOOOOOOOOOOOOOOOO%%   &++@@##*",
"&++@@##*   $$OOOOOOOOOOOOOOOOOOOOOOOOOOO  ---=========;;;  OOOOOOOOOOOOOOOOOOOOOOOOOOOO%%   &++@@##*",
"&++@@##*   $$OOOOOOOOOOOOOOOOOOOOOOOOOOO  ---=========;;;  OOOOOOOOOOOOOOOOOOOOOOOOOOOO%%   &++@@##*",
"&++@@##*   $$OOOOOOOOOOOOOOOOOOOOOOOOOOO   --=========;;   OOOOOOOOOOOOOOOOOOOOOOOOOOOO%%   &++@@##*",
"&++@@##*   $$OOOOOOOOOOOOOOOOOOOOOOOOOOO   --========;;;   OOOOOOOOOOOOOOOOOOOOOOOOOOOO%%   &++@@##*",
"&++@@##*   $$OOOOOOOOOOOOOOOOOOOOOOOOOOO   ---=======;;;   OOOOOOOOOOOOOOOOOOOOOOOOOOOO%%   &++@@##*",
"&++@@##*   $$OOOOOOOOOOOOOOOOOOOOOOOOOOO   ---=======;;;   OOOOOOOOOOOOOOOOOOOOOOOOOOOO%%   &++@@##*",
"&++@@##*   $$OOOOOOOOOOOOOOOOOOOOOOOOOOO    --=======;;    OOOOOOOOOOOOOOOOOOOOOOOOOOOO%%   &++@@##*",
"&++@@##*   $$OOOOOOOOOOOOOOOOOOOOOOOOOOO    --=======;;    OOOOOOOOOOOOOOOOOOOOOOOOOOOO%%   &++@@##*",
"&++@@##*   $$OOOOOOOOOOOOOOOOOOOOOOOOOOO    --=======;;    OOOOOOOOOOOOOOOOOOOOOOOOOOOO%%   &++@@##*",
"&++@@##*   $$OOOOOOOOOOOOOOOOOOOOOOOOOOO    --=======;;    OOOOOOOOOOOOOOOOOOOOOOOOOOOO%%   &++@@##*",
"&++@@##*   $$OOOOOOOOOOOOOOOOOOOOOOOOOOO     -=======;     OOOOOOOOOOOOOOOOOOOOOOOOOOOO%%   &++@@##*",
"&++@@##*   $$OOOOOOOOOOOOOOOOOOOOOOOOOOO     -=======;     OOOOOOOOOOOOOOOOOOOOOOOOOOOO%%   &++@@##*",
"&++@@##*   $$OOOOOOOOOOOOOOOOOOOOOOOOOOO     -=======;     OOOOOOOOOOOOOOOOOOOOOOOOOOOO%%   &++@@##*",
"&++@@##*   $$OOOOOOOOOOOOOOOOOOOOOOOOOOO     - ===== ;     OOOOOOOOOOOOOOOOOOOOOOOOOOOO%%   &++@@##*",
"&++@@##*   $$OOOOOOOOOOOOOOOOOOOOOOOOOOO      -=====;      OOOOOOOOOOOOOOOOOOOOOOOOOOOO%%   &++@@##*",
"&++@@##*   $$OOOOOOOOOOOOOOOOOOOOOOOOOOO      -=====;      OOOOOOOOOOOOOOOOOOOOOOOOOOOO%%   &++@@##*",
"&++@@##*   $$OOOOOOOOOOOOOOOOOOOOOOOOOOO      -=====;      OOOOOOOOOOOOOOOOOOOOOOOOOOOO%%   &++@@##*",
"&++@@##*   $$OOOOOOOOOOOOOOOOOOOOOOOOOOO      -=====;      OOOOOOOOOOOOOOOOOOOOOOOOOOOO%%   &++@@##*",
"&++@@##*   $$OOOOOOOOOOOOOOOOOOOOOOOOOOO       -===;       OOOOOOOOOOOOOOOOOOOOOOOOOOOO%%   &++@@##*",
" ++@@##    $$OOOOOOOOOOOOOOOOOOOOOOOOOOO       -===;       OOOOOOOOOOOOOOOOOOOOOOOOOOOO%%    ++@@## ",
" ++@@##    $$OOOOOOOOOOOOOOOOOOOOOOOOOOO       -===;       OOOOOOOOOOOOOOOOOOOOOOOOOOOO%%    ++@@## ",
" ++@@##    $$OOOOOOOOOOOOOOOOOOOOOOOOOOO       -===;       OOOOOOOOOOOOOOOOOOOOOOOOOOOO%%    ++@@## ",
"  +@@#     $$OOOOOOOOOOOOOOOOOOOOOOOOOOO        ===        OOOOOOOOOOOOOOOOOOOOOOOOOOOO%%     +@@#  ",
"   @@      $$$OOOOOOOOOOOOOOOOOOOOOOOOOO        ===        OOOOOOOOOOOOOOOOOOOOOOOOOOO%%%      @@   ",
"            $$OOOOOOOOOOOOOOOOOOOOOOOOOO                   OOOOOOOOOOOOOOOOOOOOOOOOOOO%%            ",
"            $$$OOOOOOOOOOOOOOOOOOOOOOOOO                   OOOOOOOOOOOOOOOOOOOOOOOOOO%%%            ",
"             $$$OOOOOOOOOOOOOOOOOOOOOOOO                   OOOOOOOOOOOOOOOOOOOOOOOOO%%%             ",
"              $$OOOOOOOOOOOOOOOOOOOOOOOO                   OOOOOOOOOOOOOOOOOOOOOOOOO%%              ",
"              $$$OOOOOOOOOOOOOOOOOOOOOOO                   OOOOOOOOOOOOOOOOOOOOOOOO%%%              ",
"               $$$OOOOOOOOOOOOOOOOOOOOOO                   OOOOOOOOOOOOOOOOOOOOOOO%%%               ",
"                $$OOOOOOOOOOOOOOOOOOOOOO                   OOOOOOOOOOOOOOOOOOOOOOO%%                ",
"                $$$OOOOOOOOOOOOOOOOOOOOO                   OOOOOOOOOOOOOOOOOOOOOO%%%                ",
"                 $$$OOOOOOOOOOOOOOOOOOOO                   OOOOOOOOOOOOOOOOOOOOO%%%                 ",
"                 $$$OOOOOOOOOOOOOOOOOOOO                   OOOOOOOOOOOOOOOOOOOOO%%                  ",
"                  $$$OOOOOOOOOOOOOOOOOOO                   OOOOOOOOOOOOOOOOOOOO%%%                  ",
"                   $$$OOOOOOOOOOOOOOOOOOO                 OOOOOOOOOOOOOOOOOOOO%%%                   ",
"                   $$$OOOOOOOOOOOOOOOOOOO                 OOOOOOOOOOOOOOOOOOOO%%                    ",
"                    $$$OOOOOOOOOOOOOOOOOO                 OOOOOOOOOOOOOOOOOOO%%%                    ",
"                     $$$OOOOOOOOOOOOOOOOO                 OOOOOOOOOOOOOOOOOO%%%                     ",
"                     $$$$OOOOOOOOOOOOOOOO                 OOOOOOOOOOOOOOOOOO%%                      ",
"                      $$$OOOOOOOOOOOOOOOO                 OOOOOOOOOOOOOOOOO%%%                      ",
"                       $$$OOOOOOOOOOOOOOO                 OOOOOOOOOOOOOOOO%%%                       ",
"                       $$$$OOOOOOOOOOOOOOO               OOOOOOOOOOOOOOOOO%%                        ",
"                        $$$OOOOOOOOOOOOOOO               OOOOOOOOOOOOOOOO%%%                        ",
"                         $$$OOOOOOOOOOOOOO               OOOOOOOOOOOOOOO%%%                         ",
"                         $$$$OOOOOOOOOOOOO               OOOOOOOOOOOOOOO%%                          ",
"                          $$$OOOOOOOOOOOOO               OOOOOOOOOOOOOO%%%                          ",
"                           $$$OOOOOOOOOOOO               OOOOOOOOOOOOO%%%                           ",
"                           $$$$OOOOOOOOOOO               OOOOOOOOOOOOO%%                            ",
"                            $$$OOOOOOOOOOOO             OOOOOOOOOOOOO%%%                            ",
"                             $$$OOOOOOOOOOO             OOOOOOOOOOOO%%%                             ",
"                             $$$$OOOOOOOOOO             OOOOOOOOOOOO%%                              ",
"                              $$$OOOOOOOOOO             OOOOOOOOOOO%%%                              ",
"                              $$$$OOOOOOOOO             OOOOOOOOOO%%%                               ",
"                               $$$,,,,,,,,,             ,,,,,,,,,%%%                                ",
"                                $$,,,,,,,,,             ,,,,,,,,,%%%                                ",
"                                $$,,,,,,,,,,           ,,,,,,,,,,%%                                 ",
"                                 $,,,,,,,,,,           ,,,,,,,,,,%                                  ",
"                                  ,,,,,,,,,,           ,,,,,,,,,,%                                  ",
"                                  ,,,,,,,,,,           ,,,,,,,,,,                                   "};
