/* XPM */
static char * Enemy7_xpm[] = {
"50 60 15 1",
" 	c None",
".	c #000080808080",
"X	c #AAAA88883434",
"o	c #0000C0C0C0C0",
"O	c #606018180000",
"+	c #000000000000",
"@	c #000040404040",
"#	c #0000A0A0A0A0",
"$	c #606060606060",
"%	c #F2F2C4C44D4D",
"&	c #686854541F1F",
"*	c #C0C0C0C0C0C0",
"=	c #202020202020",
"-	c #0000FFFFFFFF",
";	c #51515151FBFB",
"                                                  ",
"           ......XXXXXXXXXXXXXXXX......           ",
"          o...OO.XX++++++++++++XX.OO...@          ",
"         oo...O..X+XXXXXXXXXXXX+X..O...@@         ",
"        ooo......X+XXXXXXXXXXXX+X......@@@        ",
"       oOoo......X+XXXXXXXXXXXX+X......@@O@       ",
"      ooOoo......X+XXXXXXXXXXXX+X......@@O@@      ",
"     oooOoo......X+XXXXXXXXXXXX+X......@@O@@@     ",
"     oOoooo......X+XXXXXXXXXXXX+X......@@@@O@     ",
"     oOoooo......X+XXXXXXXXXXXX+X......@@@@O@     ",
"     oooooo......X+XXXXXXXXXXXX+X......@@@@@@     ",
"  OOOoooooo......XX++XX++++XX++XX......@@@@@@OOO  ",
" OOOOoooooo##$$##%XXXXXXXXXXXXXX&##$$##@@@@@@OOOO ",
" OOOOooooo##*$$=#%XXXXXXXXXXXXXX&#*$$=##@@@@@OOOO ",
" OOOOoooo###*$$=#%XXXXXXXXXXXXXX&#*$$=###@@@@OOOO ",
" OOOOooo####*$$=%%XXXXXXXXXXXXXX&&*$$=####@@@OOOO ",
" OOOOoo#$$##*$$=%%XXXXXXXXXXXXXX&&*$$=##$$#@@OOOO ",
" OOOOo#*$$=%*$$=%%XXXXXXXXXXXXXX&&*$$=&*$$=#@OOOO ",
" OOOOO#*$$=%*$$=%%XXXXXXXXXXXXXX&&*$$=&*$$=#OOOOO ",
" OOOOOO*$$=%*$$=%%XXXXXXXXXXXXXX&&*$$=&*$$=OOOOOO ",
" OOOOOO*$$=%*$$=%%XXXXXXXXXXXXXX&&*$$=&*$$=OOOOOO ",
" OOOOOO*$$=%*$$=%%XXXXXXXXXXXXXX&&*$$=&*$$=OOOOOO ",
" OOOOOO*$$=%*++=%%XXXXXXXXXXXXXX&&*++=&*$$=OOOOOO ",
"  OOOOO*$$=%*++%%%XXXXXXXXXXXXXX&&&++=&*$$=OOOOO  ",
"  OOOOO*$$=%%%%%-%XX$$$$XX$$$$XX&-&&&&&*$$=OOOOO  ",
"  OOOOO*$$=%%%%--%XX$XX$XX$XX$XX&--&&&&*$$=OOOOO  ",
"  OOOOO*++=%%%%%-%XX$XX$XX$XX$XX&-&&&&&*++=OOOOO  ",
"  OOOOO*++%%%%%%-%XX$XX$XX$XX$XX&-&&&&&&++=OOOOO  ",
"  OOOOOOO%%%%%%%-%%X$XX$XX$XX$X&&-&&&&&&&OOOOOOO  ",
"  OOOOOOO%%%%%%-%%%X$XX$XX$XX$X&&&-&&&&&&OOOOOOO  ",
"  OOOOOOOO%O%%-%%%%X$XX$XX$XX$X&&&&-&&O&OOOOOOOO  ",
"   OOOOOOO%OO%%%%%%X$XX$XX$XX$X&&&&&&OO&OOOOOOO   ",
"   OOOOOOO%O%%%%%%%X$XX$XX$XX$X&&&&&&&O&OOOOOOO   ",
"   OOOOOOO%%%%%%%%%X$XX$XX$XX$X&&&&&&&&&OOOOOOO   ",
"   OOOOOOO%%%%%%%%%X$XX$XX$XX$X&&&&&&&&&OOOOOOO   ",
"   OOOOOOO%%%%%%%%%X$XX$XX$XX$X&&&&&&&&&OOOOOOO   ",
"   OOOOOOO%%%%%%%%%X$$$$XX$$$$X&&&&&&&&&OOOOOOO   ",
"   OOOOOOO%%%%%++++++++++++++++++++&&&&&OOOOOOO   ",
"    OOOOOO%%%%+--++++++++++++++++--+&&&&OOOOOO    ",
"    OOOOOO%%%++++%%X+XXXXXXXX+X&&++++&&&OOOOOO    ",
"    OOOOOO%%+--+%%%X+XXXXXXXX+X&&&+--+&&OOOOOO    ",
"    OOOOOO%++++%%%%X+XXXXXXXX+X&&&&++++&OOOOOO    ",
"     OOOOO+--+%%%;%X+XXXXXXXX+X&;&&&+--+OOOOO     ",
"     OOOOO++++%%;;%X+XXXXXXXX+X&;;&&++++OOOOO     ",
"      OOOO+--+%%;;;XX++++++++XX;;;&&+--+OOOO      ",
"      OOOO++++%%;;;XXXXXXXXXXXX;;;&&++++OOOO      ",
"       OOO+--+%%;;;;;;;;;;;;;;;;;;&&+--+OOO       ",
"        OO++++%%%;;;;;;;;;;;;;;;;&&&++++OO        ",
"        OO+--+%%%;;;;;;;;;;;;;;;;&&&+--+OO        ",
"         O++++%%%%;;;;;;;;;;;;;;&&&&++++O         ",
"         O+--+%%%%%;;;;;;;;;;;;&&&&&+--+O         ",
"          ++++%%%%%XXXXXXXXXXXX&&&&&++++          ",
"             %%%%%%XXXXXXXXXXXX&&&&&&             ",
"              %%%%%%XXXXXXXXXX&&&&&&              ",
"                %%%%XXXXXXXXXX&&&&                ",
"                  %%%XXXXXXXX&&&                  ",
"                    %XXXXXXXX&                    ",
"                      XXXXXX                      ",
"                                                  ",
"                                                  "};
