/* XPM */
static char * EnemyLaser_xpm[] = {
"15 52 4 1",
" 	c None",
".	c #00000000FFFF",
"X	c #00009A9ACDCD",
"o	c #0000AAAAFFFF",
"               ",
"     .....     ",
"    ..XXX..    ",
"    .XoooX.    ",
"    .XoooX.    ",
"    .XoooX.    ",
"    .XoooX.    ",
"    .XoooX.    ",
"    .XoooX.    ",
"    .XoooX.    ",
"    .XoooX.    ",
"    .XoooX.    ",
"    .XoooX.    ",
"    .XoooX.    ",
"    .XoooX.    ",
"    .XoooX.    ",
"    .XoooX.    ",
"    .XoooX.    ",
"    .XoooX.    ",
"    .XoooX.    ",
"    .XoooX.    ",
"    .XoooX.    ",
"    .XoooX.    ",
"    .XoooX.    ",
"    .XoooX.    ",
"    .XoooX.    ",
"    .XoooX.    ",
"    .XoooX.    ",
"    .XoooX.    ",
"    .XoooX.    ",
"    .XoooX.    ",
"    .XoooX.    ",
"    .XoooX.    ",
"    .XoooX.    ",
"    .XoooX.    ",
"    .XoooX.    ",
"    .XoooX.    ",
"    .XoooX.    ",
"    .XoooX.    ",
"    .XoooX.    ",
"    .XoooX.    ",
"    .XoooX.    ",
"    .XoooX.    ",
"    .XoooX.    ",
"    .XoooX.    ",
"    .XoooX.    ",
"    .XoooX.    ",
"    .XoooX.    ",
"    .XoooX.    ",
"    .XoooX.    ",
"    ..XXX..    ",
"     .....     ",
"               "};
