/* XPM */
static char * Enemy1_xpm[] = {
"32 256 7 1",
" 	c None",
".	c #F8F800000000",
"X	c #707070707070",
"o	c #F8F8F8F8F8F8",
"O	c #51515151FBFB",
"+	c #C8C8C8C80000",
"@	c #F8F8F8F80000",
"                                ",
"                                ",
"                                ",
"                                ",
"                                ",
"            ..    ..            ",
"           ..XX  XX..           ",
"          ..XoX  XoX..          ",
"         ..XooX  XooX..         ",
"        ..Xo.oX  Xo.oX..        ",
"        .XoX.oX  Xo.XoX.        ",
"        X.oX.oX  Xo.Xo.X        ",
"       Xo.oX.oX  Xo.Xo.oX       ",
"       X.ooX.oX  Xo.Xoo.X       ",
"       XoooX.oX  Xo.XoooX       ",
"      XoooXX.oX  Xo.XXoooX      ",
"      XooXXX.oX  Xo.XXXooX      ",
"      XooXXX.oX  Xo.XXXooX      ",
"     XooXXXX.oX  Xo.XXXXooX     ",
"     Xo.XXXX.oX  Xo.XXXX.oX     ",
"     XooXXXoooX  XoooXXXooX     ",
"    XooOXoooXXX  XXXoooXOooX    ",
"    XooOXo X   XX   X oXOooX    ",
"    XoOOOo X XX++XX X oOOOoX    ",
"     XoOXoX  X+@@+X  XoXOoX     ",
"      XoooX X+@oo@+X XoooX      ",
"       XXX  X+@oo@+X  XXX       ",
"             X+@@+X             ",
"           X XX++XX X           ",
"          XoX  XX  XoX          ",
"          XooX    XooX          ",
"           XX      XX           ",
"                                ",
"                                ",
"                                ",
"                                ",
"                                ",
"                                ",
"             ........           ",
"            XXXXXXXX.           ",
"          XXooooooooX           ",
"        XXo.ooXX.ooXX           ",
"      XXo..ooXX.ooXX            ",
"    XXooooooXX.ooXX   XX..      ",
"   XoooooooXX.ooXX   XXoX.      ",
"  XooooX.XXX.ooXX   XXooX.      ",
"  XoooOX.XX.ooXX   XXoooX.      ",
"  XOoOOXXX.ooXX   XXoo.oX.      ",
"  XoOOXXX.ooXX   XXoo.XoX.      ",
"  XOOXoooooXX   XXoo.XXoX.      ",
"   XoOoXXoXX   XXoo.XXooX.      ",
"    XXX  XX   XXoo.XXoooX       ",
"       XX    XXoo.XXoo.X        ",
"     XX++XX XXoo.XXoo.oX        ",
"  X  X+@@+X Xoo.XXXoo.X         ",
" XoXX+@oo@+X XoXX..oooX         ",
" XooX+@oo@+X XoXXXXooX          ",
"  XX X+@@+X XooXOOoooX          ",
"     XX++XX XOXOOoooX           ",
"       XX   XoOOooooX           ",
"      XoX    XOoOooX            ",
"      XooX    XXXXX             ",
"       XX                       ",
"                                ",
"                                ",
"                                ",
"                                ",
"                                ",
"        XXX                     ",
"       XoooXXX                  ",
"      XoOoooooXXX               ",
"     XoOOOOo.ooooXXX            ",
"     XoXOXXXXXoooo.oX..         ",
"     XoooooXXXXXooo..X..        ",
" XX   XX  oXXXXXXoooooX..       ",
"XooX    XXooXXXXXXXXXXoX..      ",
"XoX  XX   Xo...........oX..     ",
" X XX++XX XooooooooooooooX.     ",
"   X+@@+X XXXXXXXXXXXXXXXX      ",
"  X+@oo@+X                      ",
"  X+@oo@+X                      ",
"   X+@@+X XXXXXXXXXXXXXXXX      ",
" X XX++XX XooooooooooooooX.     ",
"XoX  XX   Xo...........oX..     ",
"XooX    XXooXXXXXXXXXXoX..      ",
" XX   XX  oXXXXXXoooooX..       ",
"     XoooooXXXXXooo..X..        ",
"     XoXOXXXXXoooo.oX..         ",
"     XoOOOOo.ooooXXX            ",
"      XoOoooooXXX               ",
"       XoooXXX                  ",
"        XXX                     ",
"                                ",
"                                ",
"                                ",
"                                ",
"                                ",
"       XX                       ",
"      XooX    XXXXX             ",
"      XoX    XOoOooX            ",
"       XX   XoOOooooX           ",
"     XX++XX XOXOOoooX           ",
"  XX X+@@+X XooXOOoooX          ",
" XooX+@oo@+  XoXXXXooX          ",
" XoXX+@oo@+X XoXX..oooX         ",
"  X  X+@@+X Xoo.XXXoo.X         ",
"     XX++XX XXoo.XXoo.oX        ",
"       XX    XXoo.XXoo.X        ",
"    XXX  XX   XXoo.XXoooX       ",
"   XoOoXXoXX   XXoo.XXooX.      ",
"  XOOXoooooXX   XXoo.XXoX.      ",
"  XoOOXXX.ooXX   XXoo.XoX.      ",
"  XOoOOXXX.ooXX   XXoo.oX.      ",
"  XoooOX.XX.ooXX   XXoooX.      ",
"  XooooX.XXX.ooXX   XXooX.      ",
"   XoooooooXX.ooXX   XXoX.      ",
"    XXooooooXX.ooXX   XX..      ",
"      XXo..ooXX.ooXX            ",
"        XXo.ooXX.ooXX           ",
"          XXooooooooX           ",
"            XXXXXXXX.           ",
"             ........           ",
"                                ",
"                                ",
"                                ",
"                                ",
"                                ",
"                                ",
"           XX      XX           ",
"          XooX    XooX          ",
"          XoX  XX  XoX          ",
"           X XX++XX X           ",
"             X+@@+X             ",
"       XXX  X+@oo@+X  XXX       ",
"      XoooX X+@oo@+X XoooX      ",
"     XoOXoX  X+@@+X  XoXOoX     ",
"    XoOOOo X XX++XX X oOOOoX    ",
"    XooOXo X   XX   X oXOooX    ",
"    XooOXoooXXX  XXXoooXOooX    ",
"     XooXXXoooX  XoooXXXooX     ",
"     Xo.XXXX.oX  Xo.XXXX.oX     ",
"     XooXXXX.oX  Xo.XXXXooX     ",
"      XooXXX.oX  Xo.XXXooX      ",
"      XooXXX.oX  Xo.XXXooX      ",
"      XoooXX.oX  Xo.XXoooX      ",
"       XoooX.oX  Xo.XoooX       ",
"       X.ooX.oX  Xo.Xoo.X       ",
"       Xo.oX.oX  Xo.Xo.oX       ",
"        X.oX.oX  Xo.Xo.X        ",
"        .XoX.oX  Xo.XoX.        ",
"        ..Xo.oX  Xo.oX..        ",
"         ..XooX  XooX..         ",
"          ..XoX  XoX..          ",
"           ..XX  XX..           ",
"            ..    ..            ",
"                                ",
"                                ",
"                                ",
"                                ",
"                                ",
"                                ",
"                       XX       ",
"             XXXXX    XooX      ",
"            XooOoOX    XoX      ",
"           XooooOOoX   XX       ",
"           XoooOOXOX XX++XX     ",
"          XoooOOXooX X+@@+X XX  ",
"          XooXXXXoX X+@oo@+XooX ",
"         Xooo..XXoX X+@oo@+XXoX ",
"         X.ooXXX.ooX X+@@+X  X  ",
"        Xo.ooXX.ooXX XX++XX     ",
"        X.ooXX.ooXX    XX       ",
"       XoooXX.ooXX   XX  XXX    ",
"      .XooXX.ooXX   XXoXXoOoX   ",
"      .XoXX.ooXX   XXoooooXOOX  ",
"      .XoX.ooXX   XXoo.XXXOOoX  ",
"      .Xo.ooXX   XXoo.XXXOOoOX  ",
"      .XoooXX   XXoo.XX.XOoooX  ",
"      .XooXX   XXoo.XXX.XooooX  ",
"      .XoXX   XXoo.XXoooooooX   ",
"      ..XX   XXoo.XXooooooXX    ",
"            XXoo.XXoo..oXX      ",
"           XXoo.XXoo.oXX        ",
"           XooooooooXX          ",
"           .XXXXXXXX            ",
"           ........             ",
"                                ",
"                                ",
"                                ",
"                                ",
"                                ",
"                                ",
"                                ",
"                                ",
"                                ",
"                                ",
"                     XXX        ",
"                  XXXoooX       ",
"               XXXoooooOoX      ",
"            XXXoooo.oOOOOoX     ",
"         ..Xo.ooooXXXXXOXoX     ",
"        ..X..oooXXXXXoooooX     ",
"       ..XoooooXXXXXXo  XX   XX ",
"      ..XoXXXXXXXXXXooXX    XooX",
"     ..Xo...........oX   XX  XoX",
"     .XooooooooooooooX XX++XX X ",
"      XXXXXXXXXXXXXXXX X+@@+X   ",
"                      X+@oo@+X  ",
"                      X+@oo@+X  ",
"      XXXXXXXXXXXXXXXX X+@@+X   ",
"     .XooooooooooooooX XX++XX X ",
"     ..Xo...........oX   XX  XoX",
"      ..XoXXXXXXXXXXooXX    XooX",
"       ..XoooooXXXXXXo  XX   XX ",
"        ..X..oooXXXXXoooooX     ",
"         ..Xo.ooooXXXXXOXoX     ",
"            XXXoooo.oOOOOoX     ",
"               XXXoooooOoX      ",
"                  XXXoooX       ",
"                     XXX        ",
"                                ",
"                                ",
"                                ",
"                                ",
"                                ",
"                                ",
"                                ",
"                                ",
"                                ",
"                                ",
"           ........             ",
"           .XXXXXXXX            ",
"           XooooooooXX          ",
"           XXoo.XXoo.oXX        ",
"            XXoo.XXoo..oXX      ",
"      ..XX   XXoo.XXooooooXX    ",
"      .XoXX   XXoo.XXoooooooX   ",
"      .XooXX   XXoo.XXX.XooooX  ",
"      .XoooXX   XXoo.XX.XOoooX  ",
"      .Xo.ooXX   XXoo.XXXOOoOX  ",
"      .XoX.ooXX   XXoo.XXXOOoX  ",
"      .XoXX.ooXX   XXoooooXOOX  ",
"      .XooXX.ooXX   XXoXXoOoX   ",
"       XoooXX.ooXX   XX  XXX    ",
"        X.ooXX.ooXX    XX       ",
"        Xo.ooXX.ooXX XX++XX     ",
"         X.ooXXX.ooX X+@@+X  X  ",
"         Xooo..XXoX X+@oo@+XXoX ",
"          XooXXXXoX X+@oo@+XooX ",
"          XoooOOXooX X+@@+X XX  ",
"           XoooOOXOX XX++XX     ",
"           XooooOOoX   XX       ",
"            XooOoOX    XoX      ",
"             XXXXX    XooX      ",
"                       XX       ",
"                                "};
