/* XPM */
static char * Enemy2_xpm[] = {
"32 256 9 1",
" 	c None",
".	c #C8C8C8C8C8C8",
"X	c #0000C8C80000",
"o	c #00000000F8F8",
"O	c #F8F8F8F80000",
"+	c #F8F8F8F8F8F8",
"@	c #707070707070",
"#	c #F8F800000000",
"$	c #0000F8F80000",
"                                ",
"                                ",
"                                ",
"                                ",
"                                ",
"              ...               ",
"             .XXX.              ",
"             .XXX.              ",
"             .ooo.              ",
"             .OOO.              ",
"             .OOO.              ",
"            ..OOO..             ",
"            .oOOOo.             ",
"            .oOOOo.             ",
"            .oOOOo.             ",
"      OO    .ooooo.    OO       ",
"      OOO  .+XXXXX+.  OOO       ",
"      ...  .+XXXXX+.  ...       ",
"     .@@@. .+XXXXX+. .@@@.      ",
"     .XXX... +XXX+ ...XXX.      ",
"    . XX@.+. +XXX+ .+.@XX .     ",
"    . XX@.+.  +X+  .+.@XX .     ",
"     .@X@.+.@ +++ @.+.@X@.      ",
"     .@X@...  +++  ...@X@.      ",
"     .@XX.  .+++++.  .XX@.      ",
"     #.@X.  .+++++.  .XX@.      ",
"     #.@X.  .+++++.  .X@.#      ",
"     #.@@.  . +++ .  .X@.#      ",
"     ##..   #+ + +#  .@@.#      ",
"      ##     #...#    ..##      ",
"                       ##       ",
"                                ",
"                                ",
"                                ",
"                                ",
"                                ",
"                                ",
"                                ",
"                                ",
"                                ",
"         O                      ",
"        OO         ..           ",
"      ...OO       .$$.          ",
"     .$@@.O      .Oo$$.         ",
"     .$$$@.    ..OOOo$.         ",
"    .$$$$.    .oOOOOO.          ",
"   .@$$$.    .$oOOOO.           ",
"   .@$@..  ..$$$oOO.            ",
" #.@$@.+... $$$$$oo.            ",
"##.@@.++.  $$$$$$$.             ",
"#.@$....@  $$$$$$.              ",
"#.@.  .@@ $$$$$$.               ",
"##.   .   $$$$$ .               ",
"      .+++$$$  .   .OO          ",
"     . ++++    .  .@.OOO        ",
"    #+ ++++ @@....$$@.O         ",
"    # +++++ @.++.$$$@.          ",
"    #.++  ....+.@$$$$.          ",
"      . +.   ..@$$$..           ",
"      ###    .@$@@.             ",
"            .$@@..              ",
"           .@@..                ",
"           #..##                ",
"           ####                 ",
"                                ",
"                                ",
"                                ",
"                                ",
"                                ",
"          ..                    ",
"  ####....  ..                  ",
" ##...@@@@XXX@.OO               ",
" #.@@@XXXXXXX@.OO               ",
"  .@XXXX@@@@X@.O                ",
"   ...........                  ",
"        .+++.                   ",
"        ........                ",
"   #.... @   +++.....           ",
"  #+ +++   ++XXXoooo......      ",
"  . +++++++XXXXXoOOOOOOoXX.     ",
"  .+++++++XXXXXXoOOOOOOoXX.     ",
"  . +++++++XXXXXoOOOOOOoXX.     ",
"  #+ +++   ++XXXoooo......      ",
"   #.... @   +++.....           ",
"        ........                ",
"        .+++.                   ",
"    ..........                  ",
"   .@XXX@@@@X@.O                ",
"  #.@@@XXXXXX@.OO               ",
"  ##...@@@XXX@.OO               ",
"   ####...  ..                  ",
"          ..                    ",
"                                ",
"                                ",
"                                ",
"                                ",
"           ####                 ",
"           #..##                ",
"           .@@..                ",
"            .$@@..              ",
"      ###    .@$@@.             ",
"      . +.   ..@$$$..           ",
"    #.++  ....+.@$$$$.          ",
"    # +++++ @.++.$$$@.          ",
"    #+ ++++ @@....$$@.O         ",
"     . ++++    .  .@.OOO        ",
"      .+++$$$  .   .OO          ",
"##.   .   $$$$$ .               ",
"#.@.  .@@ $$$$$$.               ",
"#.@$....@  $$$$$$.              ",
"##.@@.++.  $$$$$$$.             ",
" #.@$@.+... $$$$$oo.            ",
"   .@$@..  ..$$$oOO.            ",
"   .@$$$.    .$oOOOO.           ",
"    .$$$$.    .oOOOOO.          ",
"     .$$$@.    ..OOOo$.         ",
"     .$@@.O      .Oo$$.         ",
"      ...OO       .$$.          ",
"        OO         ..           ",
"         O                      ",
"                                ",
"                                ",
"                                ",
"                                ",
"                                ",
"                                ",
"                                ",
"                                ",
"                                ",
"                       ##       ",
"      ##     #...#    ..##      ",
"     ##..   #+ + +#  .@@.#      ",
"     #.@@.  . +++ .  .X@.#      ",
"     #.@X.  .+++++.  .X@.#      ",
"     #.@X.  .+++++.  .XX@.      ",
"     .@XX.  .+++++.  .XX@.      ",
"     .@X@...  +++  ...@X@.      ",
"     .@X@.+.@ +++ @.+.@X@.      ",
"    . XX@.+.  +X+  .+.@XX .     ",
"    . XX@.+. +XXX+ .+.@XX .     ",
"     .XXX... +XXX+ ...XXX.      ",
"     .@@@. .+XXXXX+. .@@@.      ",
"      ...  .+XXXXX+.  ...       ",
"      OOO  .+XXXXX+.  OOO       ",
"      OO    .ooooo.    OO       ",
"            .oOOOo.             ",
"            .oOOOo.             ",
"            .oOOOo.             ",
"            ..OOO..             ",
"             .OOO.              ",
"             .OOO.              ",
"             .ooo.              ",
"             .XXX.              ",
"             .XXX.              ",
"              ...               ",
"                                ",
"                                ",
"                                ",
"                                ",
"                                ",
"                 ####           ",
"                ##..#           ",
"                ..@@.           ",
"              ..@@$.            ",
"             .@@$@.    ###      ",
"           ..$$$@..   .+ .      ",
"          .$$$$@.+....  ++.#    ",
"          .@$$$.++.@ +++++ #    ",
"         O.@$$....@@ ++++ +#    ",
"        OOO.@.  .    ++++ .     ",
"          OO.   .  $$$+++.      ",
"               . $$$$$   .   .##",
"               .$$$$$$ @@.  .@.#",
"              .$$$$$$  @....$@.#",
"             .$$$$$$$  .++.@@.##",
"            .oo$$$$$ ...+.@$@.# ",
"            .OOo$$$..  ..@$@.   ",
"           .OOOOo$.    .$$$@.   ",
"          .OOOOOo.    .$$$$.    ",
"         .$oOOO..    .@$$$.     ",
"         .$$oO.      O.@@$.     ",
"          .$$.       OO...      ",
"           ..         OO        ",
"                      O         ",
"                                ",
"                                ",
"                                ",
"                                ",
"                                ",
"                                ",
"                                ",
"                                ",
"                                ",
"                                ",
"                                ",
"                                ",
"                                ",
"                    ..          ",
"                  ..  ....####  ",
"               OO.@XXX@@@@...## ",
"               OO.@XXXXXXX@@@.# ",
"                O.@X@@@@XXXX@.  ",
"                  ...........   ",
"                   .+++.        ",
"                ........        ",
"           .....+++   @ ....#   ",
"      ......ooooXXX++   +++ +#  ",
"     .XXoOOOOOOoXXXXX+++++++ .  ",
"     .XXoOOOOOOoXXXXXX+++++++.  ",
"     .XXoOOOOOOoXXXXX+++++++ .  ",
"      ......ooooXXX++   +++ +#  ",
"           .....+++   @ ....#   ",
"                ........        ",
"                   .+++.        ",
"                  ..........    ",
"                O.@X@@@@XXX@.   ",
"               OO.@XXXXXX@@@.#  ",
"               OO.@XXX@@@...##  ",
"                  ..  ...####   ",
"                    ..          ",
"                                ",
"                                ",
"                                ",
"                                ",
"                                ",
"                                ",
"                                ",
"                                ",
"                                ",
"                                ",
"                                ",
"                                ",
"                      O         ",
"           ..         OO        ",
"          .$$.       OO...      ",
"         .$$oO.      O.@@$.     ",
"         .$oOOO..    .@$$$.     ",
"          .OOOOOo.    .$$$$.    ",
"           .OOOOo$.    .$$$@.   ",
"            .OOo$$$..  ..@$@.   ",
"            .oo$$$$$ ...+.@$@.# ",
"             .$$$$$$$  .++.@@.##",
"              .$$$$$$  @....$@.#",
"               .$$$$$$ @@.  .@.#",
"               . $$$$$   .   .##",
"          OO.   .  $$$+++.      ",
"        OOO.@.  .    ++++ .     ",
"         O.@$$....@@ ++++ +#    ",
"          .@$$$.++.@ +++++ #    ",
"          .$$$$@.+....  ++.#    ",
"           ..$$$@..   .+ .      ",
"             .@@$@.    ###      ",
"              ..@@$.            ",
"                ..@@.           ",
"                ##..#           ",
"                 ####           "};
