/* XPM */
static char * EnemyMiss_xpm[] = {
"32 256 7 1",
" 	c None",
".	c #323232323232",
"X	c #999999997777",
"o	c #A2A2B5B5CDCD",
"O	c #F8F800000000",
"+	c #FFFFFFFF0000",
"@	c #F8F8F8F8F8F8",
"                                ",
"                                ",
"                                ",
"               ..               ",
"              .XX.              ",
"             .XooX.             ",
"            .XooooX.            ",
"            .XooooX.            ",
"            .XooooX.            ",
"            .XooooX.            ",
"            .XooooX.            ",
"            .XooooX.            ",
"            .XooooX.            ",
"            .XooooX.            ",
"            .XooooX.            ",
"            .XooooX.            ",
"            .XooooX.            ",
"            .XooooX.            ",
"            .XooooX.            ",
"            ..XooX..            ",
"              ....              ",
"             .XXXX.             ",
"            .XXXXXX.            ",
"            ........            ",
"             O+@@+O             ",
"            O+@@@@+O            ",
"            O+@@@@+O            ",
"             O+@@+O             ",
"             O++++O             ",
"              OOOO              ",
"               OO               ",
"                                ",
"                                ",
"                                ",
"                                ",
"                                ",
"                                ",
"                                ",
"                                ",
"                                ",
"                    ......      ",
"                   .XXXXX.      ",
"                  .XooooX.      ",
"                 .XoooooX.      ",
"                .XooooooX.      ",
"               .XoooooooX.      ",
"              .XoooooooX.       ",
"             .XoooooooX.        ",
"            .XoooooooX.         ",
"           .XoooooooX.          ",
"            .XoooooX.           ",
"        .....XooooX.            ",
"         .XXX.XXoX.             ",
"        OO.XXX..X.              ",
"       O++@.XX. .               ",
"       O+@@@.X.                 ",
"       O+@@+O..                 ",
"       O++++O .                 ",
"       OOOOO                    ",
"                                ",
"                                ",
"                                ",
"                                ",
"                                ",
"                                ",
"                                ",
"                                ",
"                                ",
"                                ",
"                                ",
"                                ",
"                                ",
"                                ",
"                                ",
"                                ",
"                                ",
"    OO ..  ...............      ",
"   O++O.X. .XXXXXXXXXXXXXX.     ",
"  O+@@+.XX..XoooooooooooooX.    ",
" O+@@@@.XXX.oooooooooooooooX.   ",
" O+@@@@.XXX.oooooooooooooooX.   ",
"  O+@@+.XX..XoooooooooooooX.    ",
"   O++O.X. .XXXXXXXXXXXXXX.     ",
"    OO ..  ...............      ",
"                                ",
"                                ",
"                                ",
"                                ",
"                                ",
"                                ",
"                                ",
"                                ",
"                                ",
"                                ",
"                                ",
"                                ",
"                                ",
"                                ",
"                                ",
"                                ",
"                                ",
"                                ",
"    OOOOO                       ",
"    O+++OO                      ",
"    O+@@+OO.                    ",
"    O+@@@+.X.                   ",
"    OO+@@.XX.                   ",
"     OO+.XXX...                 ",
"      O.XXX.XXX.                ",
"      .XXX.ooooX.               ",
"       ...XoooooX.              ",
"         .XooooooX.             ",
"         .XoooooooX.            ",
"          .XoooooooX.           ",
"           .XoooooooX.          ",
"            .XoooooooX.         ",
"             .XoooooooX.        ",
"              .XooooooX.        ",
"               .XoooooX.        ",
"                .XooooX.        ",
"                 .XXXXX.        ",
"                  ......        ",
"                                ",
"                                ",
"                                ",
"                                ",
"                                ",
"                                ",
"                                ",
"                                ",
"               OO               ",
"              OOOO              ",
"             OO++OO             ",
"            OO+@@+OO            ",
"            O+@@@@+O            ",
"             O+@@+O             ",
"            ........            ",
"            .XXXXXX.            ",
"             .XXXX.             ",
"              .XX.              ",
"            ........            ",
"            .XXooXX.            ",
"            .XooooX.            ",
"            .XooooX.            ",
"            .XooooX.            ",
"            .XooooX.            ",
"            .XooooX.            ",
"            .XooooX.            ",
"            .XooooX.            ",
"            .XooooX.            ",
"            .XooooX.            ",
"            .XooooX.            ",
"            .XooooX.            ",
"            .XooooX.            ",
"            .XooooX.            ",
"             .XooX.             ",
"              .XX.              ",
"               ..               ",
"                                ",
"                                ",
"                                ",
"                                ",
"                                ",
"                                ",
"                                ",
"                                ",
"                      OOOOO     ",
"                     OO+++O     ",
"                   .OO+@@+O     ",
"                  .X.+@@@+O     ",
"                  .XX.@@+OO     ",
"                ...XXX.+OO      ",
"               .XXX.XXX.O       ",
"              .Xoooo.XXX.       ",
"             .XoooooX...        ",
"            .XooooooX.          ",
"           .XoooooooX.          ",
"          .XoooooooX.           ",
"         .XoooooooX.            ",
"        .XoooooooX.             ",
"       .XoooooooX.              ",
"       .XooooooX.               ",
"       .XoooooX.                ",
"       .XooooX.                 ",
"       .XXXXX.                  ",
"       ......                   ",
"                                ",
"                                ",
"                                ",
"                                ",
"                                ",
"                                ",
"                                ",
"                                ",
"                                ",
"                                ",
"                                ",
"                                ",
"                                ",
"                                ",
"                                ",
"                                ",
"                                ",
"                                ",
"      ................  .. OO   ",
"     .XXXXXXXXXXXXXXX. .X.O+OO  ",
"    .XooooooooooooooX..XX.+@+OO ",
"   .Xoooooooooooooooo.XXX.@@@+OO",
"   .Xoooooooooooooooo.XXX.@@@+OO",
"    .XooooooooooooooX..XX.+@+OO ",
"     .XXXXXXXXXXXXXXX. .X.O+OO  ",
"      ................  .. OO   ",
"                                ",
"                                ",
"                                ",
"                                ",
"                                ",
"                                ",
"                                ",
"                                ",
"                                ",
"                                ",
"                                ",
"                                ",
"                                ",
"                                ",
"                                ",
"                                ",
"                                ",
"                                ",
"                                ",
"       ......                   ",
"       .XXXXX.                  ",
"       .XooooX.                 ",
"       .XoooooX.                ",
"       .XooooooX.               ",
"       .XoooooooX.              ",
"        .XoooooooX.             ",
"         .XoooooooX.            ",
"          .XoooooooX.           ",
"           .XoooooooX.          ",
"            .XoooooooX.         ",
"             .XooooooX.         ",
"              .XoooooX....      ",
"               .Xoooo.XXXX.     ",
"                .XXX.XXXX.O     ",
"                 ...XXXX.OOO    ",
"                   .XXX.@++O    ",
"                   .@X.@@@+O    ",
"                   .X.O+@@+O    ",
"                    .OO++++O    ",
"                      OOOOOO    ",
"                                ",
"                                ",
"                                ",
"                                "};
