/* XPM */
static char * EnemyBound_xpm[] = {
"32 256 9 1",
" 	c None",
".	c #F8F880804040",
"X	c #F8F800008080",
"o	c #80808080F8F8",
"O	c #8080F8F8F8F8",
"+	c #0000F8F88080",
"@	c #F8F8F8F88080",
"#	c #F8F80000F8F8",
"$	c #00000000F8F8",
"            ........            ",
"         ..............         ",
"       .....XXXXXXXX.....       ",
"      ...XXXXXXXXXXXXXX...      ",
"     ...XXXXooooooooXXXX...     ",
"    ...XXXooooooooooooXXX...    ",
"   ...XXXooooOOOOOOooooXXX...   ",
"  ...XXXoooOOOOOOOOOOoooXXX...  ",
"  ..XXXooOOOO++++++OOOOooXXX..  ",
" ..XXXooOOO++++++++++OOOooXXX.. ",
" ..XXoooOO+++@@@@@@+++OOoooXX.. ",
" ..XXooOO+++@@@@@@@@+++OOooXX.. ",
"..XXoooOO++@@@####@@@++OOoooXX..",
"..XXooOO++@@@######@@@++OOooXX..",
"..XXooOO++@@###$$###@@++OOooXX..",
"..XXooOO++@@##$$$$##@@++OOooXX..",
"..XXooOO++@@##$$$$##@@++OOooXX..",
"..XXooOO++@@###$$###@@++OOooXX..",
"..XXooOO++@@@######@@@++OOooXX..",
"..XXoooOO++@@@####@@@++OOoooXX..",
" ..XXooOO+++@@@@@@@@+++OOooXX.. ",
" ..XXoooOO+++@@@@@@+++OOoooXX.. ",
" ..XXXooOOO++++++++++OOOooXXX.. ",
"  ..XXXooOOOO++++++OOOOooXXX..  ",
"  ...XXXoooOOOOOOOOOOoooXXX...  ",
"   ...XXXooooOOOOOOooooXXX...   ",
"    ...XXXooooooooooooXXX...    ",
"     ...XXXXooooooooXXXX...     ",
"      ...XXXXXXXXXXXXXX...      ",
"       .....XXXXXXXX.....       ",
"         ..............         ",
"            ........            ",
"            $$$$$$$$            ",
"         $$$$$$$$$$$$$$         ",
"       $$$$$........$$$$$       ",
"      $$$..............$$$      ",
"     $$$....XXXXXXXX....$$$     ",
"    $$$...XXXXXXXXXXXX...$$$    ",
"   $$$...XXXXooooooXXXX...$$$   ",
"  $$$...XXXooooooooooXXX...$$$  ",
"  $$...XXooooOOOOOOooooXX...$$  ",
" $$...XXoooOOOOOOOOOOoooXX...$$ ",
" $$..XXXooOOO++++++OOOooXXX..$$ ",
" $$..XXooOOO++++++++OOOooXX..$$ ",
"$$..XXXooOO+++@@@@+++OOooXXX..$$",
"$$..XXooOO+++@@@@@@+++OOooXX..$$",
"$$..XXooOO++@@@##@@@++OOooXX..$$",
"$$..XXooOO++@@####@@++OOooXX..$$",
"$$..XXooOO++@@####@@++OOooXX..$$",
"$$..XXooOO++@@@##@@@++OOooXX..$$",
"$$..XXooOO+++@@@@@@+++OOooXX..$$",
"$$..XXXooOO+++@@@@+++OOooXXX..$$",
" $$..XXooOOO++++++++OOOooXX..$$ ",
" $$..XXXooOOO++++++OOOooXXX..$$ ",
" $$...XXoooOOOOOOOOOOoooXX...$$ ",
"  $$...XXooooOOOOOOooooXX...$$  ",
"  $$$...XXXooooooooooXXX...$$$  ",
"   $$$...XXXXooooooXXXX...$$$   ",
"    $$$...XXXXXXXXXXXX...$$$    ",
"     $$$....XXXXXXXX....$$$     ",
"      $$$..............$$$      ",
"       $$$$$........$$$$$       ",
"         $$$$$$$$$$$$$$         ",
"            $$$$$$$$            ",
"            ########            ",
"         ##############         ",
"       #####$$$$$$$$#####       ",
"      ###$$$$$$$$$$$$$$###      ",
"     ###$$$$........$$$$###     ",
"    ###$$$............$$$###    ",
"   ###$$$....XXXXXX....$$$###   ",
"  ###$$$...XXXXXXXXXX...$$$###  ",
"  ##$$$..XXXXooooooXXXX..$$$##  ",
" ##$$$..XXXooooooooooXXX..$$$## ",
" ##$$...XXoooOOOOOOoooXX...$$## ",
" ##$$..XXoooOOOOOOOOoooXX..$$## ",
"##$$...XXooOOO++++OOOooXX...$$##",
"##$$..XXooOOO++++++OOOooXX..$$##",
"##$$..XXooOO+++@@+++OOooXX..$$##",
"##$$..XXooOO++@@@@++OOooXX..$$##",
"##$$..XXooOO++@@@@++OOooXX..$$##",
"##$$..XXooOO+++@@+++OOooXX..$$##",
"##$$..XXooOOO++++++OOOooXX..$$##",
"##$$...XXooOOO++++OOOooXX...$$##",
" ##$$..XXoooOOOOOOOOoooXX..$$## ",
" ##$$...XXoooOOOOOOoooXX...$$## ",
" ##$$$..XXXooooooooooXXX..$$$## ",
"  ##$$$..XXXXooooooXXXX..$$$##  ",
"  ###$$$...XXXXXXXXXX...$$$###  ",
"   ###$$$....XXXXXX....$$$###   ",
"    ###$$$............$$$###    ",
"     ###$$$$........$$$$###     ",
"      ###$$$$$$$$$$$$$$###      ",
"       #####$$$$$$$$#####       ",
"         ##############         ",
"            ########            ",
"            @@@@@@@@            ",
"         @@@@@@@@@@@@@@         ",
"       @@@@@########@@@@@       ",
"      @@@##############@@@      ",
"     @@@####$$$$$$$$####@@@     ",
"    @@@###$$$$$$$$$$$$###@@@    ",
"   @@@###$$$$......$$$$###@@@   ",
"  @@@###$$$..........$$$###@@@  ",
"  @@###$$....XXXXXX....$$###@@  ",
" @@###$$...XXXXXXXXXX...$$###@@ ",
" @@##$$$..XXXooooooXXX..$$$##@@ ",
" @@##$$..XXXooooooooXXX..$$##@@ ",
"@@##$$$..XXoooOOOOoooXX..$$$##@@",
"@@##$$..XXoooOOOOOOoooXX..$$##@@",
"@@##$$..XXooOOO++OOOooXX..$$##@@",
"@@##$$..XXooOO++++OOooXX..$$##@@",
"@@##$$..XXooOO++++OOooXX..$$##@@",
"@@##$$..XXooOOO++OOOooXX..$$##@@",
"@@##$$..XXoooOOOOOOoooXX..$$##@@",
"@@##$$$..XXoooOOOOoooXX..$$$##@@",
" @@##$$..XXXooooooooXXX..$$##@@ ",
" @@##$$$..XXXooooooXXX..$$$##@@ ",
" @@###$$...XXXXXXXXXX...$$###@@ ",
"  @@###$$....XXXXXX....$$###@@  ",
"  @@@###$$$..........$$$###@@@  ",
"   @@@###$$$$......$$$$###@@@   ",
"    @@@###$$$$$$$$$$$$###@@@    ",
"     @@@####$$$$$$$$####@@@     ",
"      @@@##############@@@      ",
"       @@@@@########@@@@@       ",
"         @@@@@@@@@@@@@@         ",
"            @@@@@@@@            ",
"            ++++++++            ",
"         ++++++++++++++         ",
"       +++++@@@@@@@@+++++       ",
"      +++@@@@@@@@@@@@@@+++      ",
"     +++@@@@########@@@@+++     ",
"    +++@@@############@@@+++    ",
"   +++@@@####$$$$$$####@@@+++   ",
"  +++@@@###$$$$$$$$$$###@@@+++  ",
"  ++@@@##$$$$......$$$$##@@@++  ",
" ++@@@##$$$..........$$$##@@@++ ",
" ++@@###$$...XXXXXX...$$###@@++ ",
" ++@@##$$...XXXXXXXX...$$##@@++ ",
"++@@###$$..XXXooooXXX..$$###@@++",
"++@@##$$..XXXooooooXXX..$$##@@++",
"++@@##$$..XXoooOOoooXX..$$##@@++",
"++@@##$$..XXooOOOOooXX..$$##@@++",
"++@@##$$..XXooOOOOooXX..$$##@@++",
"++@@##$$..XXoooOOoooXX..$$##@@++",
"++@@##$$..XXXooooooXXX..$$##@@++",
"++@@###$$..XXXooooXXX..$$###@@++",
" ++@@##$$...XXXXXXXX...$$##@@++ ",
" ++@@###$$...XXXXXX...$$###@@++ ",
" ++@@@##$$$..........$$$##@@@++ ",
"  ++@@@##$$$$......$$$$##@@@++  ",
"  +++@@@###$$$$$$$$$$###@@@+++  ",
"   +++@@@####$$$$$$####@@@+++   ",
"    +++@@@############@@@+++    ",
"     +++@@@@########@@@@+++     ",
"      +++@@@@@@@@@@@@@@+++      ",
"       +++++@@@@@@@@+++++       ",
"         ++++++++++++++         ",
"            ++++++++            ",
"            OOOOOOOO            ",
"         OOOOOOOOOOOOOO         ",
"       OOOOO++++++++OOOOO       ",
"      OOO++++++++++++++OOO      ",
"     OOO++++@@@@@@@@++++OOO     ",
"    OOO+++@@@@@@@@@@@@+++OOO    ",
"   OOO+++@@@@######@@@@+++OOO   ",
"  OOO+++@@@##########@@@+++OOO  ",
"  OO+++@@####$$$$$$####@@+++OO  ",
" OO+++@@###$$$$$$$$$$###@@+++OO ",
" OO++@@@##$$$......$$$##@@@++OO ",
" OO++@@##$$$........$$$##@@++OO ",
"OO++@@@##$$...XXXX...$$##@@@++OO",
"OO++@@##$$...XXXXXX...$$##@@++OO",
"OO++@@##$$..XXXooXXX..$$##@@++OO",
"OO++@@##$$..XXooooXX..$$##@@++OO",
"OO++@@##$$..XXooooXX..$$##@@++OO",
"OO++@@##$$..XXXooXXX..$$##@@++OO",
"OO++@@##$$...XXXXXX...$$##@@++OO",
"OO++@@@##$$...XXXX...$$##@@@++OO",
" OO++@@##$$$........$$$##@@++OO ",
" OO++@@@##$$$......$$$##@@@++OO ",
" OO+++@@###$$$$$$$$$$###@@+++OO ",
"  OO+++@@####$$$$$$####@@+++OO  ",
"  OOO+++@@@##########@@@+++OOO  ",
"   OOO+++@@@@######@@@@+++OOO   ",
"    OOO+++@@@@@@@@@@@@+++OOO    ",
"     OOO++++@@@@@@@@++++OOO     ",
"      OOO++++++++++++++OOO      ",
"       OOOOO++++++++OOOOO       ",
"         OOOOOOOOOOOOOO         ",
"            OOOOOOOO            ",
"            oooooooo            ",
"         oooooooooooooo         ",
"       oooooOOOOOOOOooooo       ",
"      oooOOOOOOOOOOOOOOooo      ",
"     oooOOOO++++++++OOOOooo     ",
"    oooOOO++++++++++++OOOooo    ",
"   oooOOO++++@@@@@@++++OOOooo   ",
"  oooOOO+++@@@@@@@@@@+++OOOooo  ",
"  ooOOO++@@@@######@@@@++OOOoo  ",
" ooOOO++@@@##########@@@++OOOoo ",
" ooOO+++@@###$$$$$$###@@+++OOoo ",
" ooOO++@@###$$$$$$$$###@@++OOoo ",
"ooOO+++@@##$$$....$$$##@@+++OOoo",
"ooOO++@@##$$$......$$$##@@++OOoo",
"ooOO++@@##$$...XX...$$##@@++OOoo",
"ooOO++@@##$$..XXXX..$$##@@++OOoo",
"ooOO++@@##$$..XXXX..$$##@@++OOoo",
"ooOO++@@##$$...XX...$$##@@++OOoo",
"ooOO++@@##$$$......$$$##@@++OOoo",
"ooOO+++@@##$$$....$$$##@@+++OOoo",
" ooOO++@@###$$$$$$$$###@@++OOoo ",
" ooOO+++@@###$$$$$$###@@+++OOoo ",
" ooOOO++@@@##########@@@++OOOoo ",
"  ooOOO++@@@@######@@@@++OOOoo  ",
"  oooOOO+++@@@@@@@@@@+++OOOooo  ",
"   oooOOO++++@@@@@@++++OOOooo   ",
"    oooOOO++++++++++++OOOooo    ",
"     oooOOOO++++++++OOOOooo     ",
"      oooOOOOOOOOOOOOOOooo      ",
"       oooooOOOOOOOOooooo       ",
"         oooooooooooooo         ",
"            oooooooo            ",
"            XXXXXXXX            ",
"         XXXXXXXXXXXXXX         ",
"       XXXXXooooooooXXXXX       ",
"      XXXooooooooooooooXXX      ",
"     XXXooooOOOOOOOOooooXXX     ",
"    XXXoooOOOOOOOOOOOOoooXXX    ",
"   XXXoooOOOO++++++OOOOoooXXX   ",
"  XXXoooOOO++++++++++OOOoooXXX  ",
"  XXoooOO++++@@@@@@++++OOoooXX  ",
" XXoooOO+++@@@@@@@@@@+++OOoooXX ",
" XXooOOO++@@@######@@@++OOOooXX ",
" XXooOO++@@@########@@@++OOooXX ",
"XXooOOO++@@###$$$$###@@++OOOooXX",
"XXooOO++@@###$$$$$$###@@++OOooXX",
"XXooOO++@@##$$$..$$$##@@++OOooXX",
"XXooOO++@@##$$....$$##@@++OOooXX",
"XXooOO++@@##$$....$$##@@++OOooXX",
"XXooOO++@@##$$$..$$$##@@++OOooXX",
"XXooOO++@@###$$$$$$###@@++OOooXX",
"XXooOOO++@@###$$$$###@@++OOOooXX",
" XXooOO++@@@########@@@++OOooXX ",
" XXooOOO++@@@######@@@++OOOooXX ",
" XXoooOO+++@@@@@@@@@@+++OOoooXX ",
"  XXoooOO++++@@@@@@++++OOoooXX  ",
"  XXXoooOOO++++++++++OOOoooXXX  ",
"   XXXoooOOOO++++++OOOOoooXXX   ",
"    XXXoooOOOOOOOOOOOOoooXXX    ",
"     XXXooooOOOOOOOOooooXXX     ",
"      XXXooooooooooooooXXX      ",
"       XXXXXooooooooXXXXX       ",
"         XXXXXXXXXXXXXX         ",
"            XXXXXXXX            "};
