/* XPM */
static char * EnemyShot_xpm[] = {
"10 40 5 1",
" 	c None",
".	c #FFFFFFFFFFFF",
"X	c #A2A2B5B5CDCD",
"o	c #999999997777",
"O	c #323232323232",
"          ",
"    .X    ",
"   ..XX   ",
"  ...XXX  ",
" ....XXXX ",
" ooooOOOO ",
"  oooOOO  ",
"   ooOO   ",
"    oO    ",
"          ",
"          ",
"    o.    ",
"   oo..   ",
"  ooo...  ",
" oooo.... ",
" OOOOXXXX ",
"  OOOXXX  ",
"   OOXX   ",
"    OX    ",
"          ",
"          ",
"    Oo    ",
"   OOoo   ",
"  OOOooo  ",
" OOOOoooo ",
" XXXX.... ",
"  XXX...  ",
"   XX..   ",
"    X.    ",
"          ",
"          ",
"    XO    ",
"   XXOO   ",
"  XXXOOO  ",
" XXXXOOOO ",
" ....oooo ",
"  ...ooo  ",
"   ..oo   ",
"    .o    ",
"          ",
"          "};
