/* XPM */
static char * EnemyRing_xpm[] = {
"32 128 5 1",
" 	c None",
".	c #FF7700",
"X	c #FF9900",
"o	c #FFBB00",
"O	c #FFDD00",
"            ........            ",
"         ..............         ",
"        ................        ",
"      ....................      ",
"     ......................     ",
"    ........................    ",
"   ..........................   ",
"   ..........................   ",
"  ...........      ...........  ",
" ..........          .......... ",
" .........            ......... ",
" ........              ........ ",
".........              .........",
"........                ........",
"........                ........",
"........                ........",
"........                ........",
"........                ........",
"........                ........",
".........              .........",
" ........              ........ ",
" .........            ......... ",
" ..........          .......... ",
"  ...........      ...........  ",
"   ..........................   ",
"   ..........................   ",
"    ........................    ",
"     ......................     ",
"      ....................      ",
"        ................        ",
"         ..............         ",
"            ........            ",
"            XXXXXXXX            ",
"         XXXXXXXXXXXXXX         ",
"        XXXXXXXXXXXXXXXX        ",
"      XXXXXXXXXXXXXXXXXXXX      ",
"     XXXXXXXXXXXXXXXXXXXXXX     ",
"    XXXXXXXXXXXXXXXXXXXXXXXX    ",
"   XXXXXXXXXXXXXXXXXXXXXXXXXX   ",
"   XXXXXXXXXXXXXXXXXXXXXXXXXX   ",
"  XXXXXXXXXXX      XXXXXXXXXXX  ",
" XXXXXXXXXX          XXXXXXXXXX ",
" XXXXXXXXX            XXXXXXXXX ",
" XXXXXXXX              XXXXXXXX ",
"XXXXXXXXX              XXXXXXXXX",
"XXXXXXXX                XXXXXXXX",
"XXXXXXXX                XXXXXXXX",
"XXXXXXXX                XXXXXXXX",
"XXXXXXXX                XXXXXXXX",
"XXXXXXXX                XXXXXXXX",
"XXXXXXXX                XXXXXXXX",
"XXXXXXXXX              XXXXXXXXX",
" XXXXXXXX              XXXXXXXX ",
" XXXXXXXXX            XXXXXXXXX ",
" XXXXXXXXXX          XXXXXXXXXX ",
"  XXXXXXXXXXX      XXXXXXXXXXX  ",
"   XXXXXXXXXXXXXXXXXXXXXXXXXX   ",
"   XXXXXXXXXXXXXXXXXXXXXXXXXX   ",
"    XXXXXXXXXXXXXXXXXXXXXXXX    ",
"     XXXXXXXXXXXXXXXXXXXXXX     ",
"      XXXXXXXXXXXXXXXXXXXX      ",
"        XXXXXXXXXXXXXXXX        ",
"         XXXXXXXXXXXXXX         ",
"            XXXXXXXX            ",
"            oooooooo            ",
"         oooooooooooooo         ",
"        oooooooooooooooo        ",
"      oooooooooooooooooooo      ",
"     oooooooooooooooooooooo     ",
"    oooooooooooooooooooooooo    ",
"   oooooooooooooooooooooooooo   ",
"   oooooooooooooooooooooooooo   ",
"  ooooooooooo      ooooooooooo  ",
" oooooooooo          oooooooooo ",
" ooooooooo            ooooooooo ",
" oooooooo              oooooooo ",
"ooooooooo              ooooooooo",
"oooooooo                oooooooo",
"oooooooo                oooooooo",
"oooooooo                oooooooo",
"oooooooo                oooooooo",
"oooooooo                oooooooo",
"oooooooo                oooooooo",
"ooooooooo              ooooooooo",
" oooooooo              oooooooo ",
" ooooooooo            ooooooooo ",
" oooooooooo          oooooooooo ",
"  ooooooooooo      ooooooooooo  ",
"   oooooooooooooooooooooooooo   ",
"   oooooooooooooooooooooooooo   ",
"    oooooooooooooooooooooooo    ",
"     oooooooooooooooooooooo     ",
"      oooooooooooooooooooo      ",
"        oooooooooooooooo        ",
"         oooooooooooooo         ",
"            oooooooo            ",
"            OOOOOOOO            ",
"         OOOOOOOOOOOOOO         ",
"        OOOOOOOOOOOOOOOO        ",
"      OOOOOOOOOOOOOOOOOOOO      ",
"     OOOOOOOOOOOOOOOOOOOOOO     ",
"    OOOOOOOOOOOOOOOOOOOOOOOO    ",
"   OOOOOOOOOOOOOOOOOOOOOOOOOO   ",
"   OOOOOOOOOOOOOOOOOOOOOOOOOO   ",
"  OOOOOOOOOOO      OOOOOOOOOOO  ",
" OOOOOOOOOO          OOOOOOOOOO ",
" OOOOOOOOO            OOOOOOOOO ",
" OOOOOOOO              OOOOOOOO ",
"OOOOOOOOO              OOOOOOOOO",
"OOOOOOOO                OOOOOOOO",
"OOOOOOOO                OOOOOOOO",
"OOOOOOOO                OOOOOOOO",
"OOOOOOOO                OOOOOOOO",
"OOOOOOOO                OOOOOOOO",
"OOOOOOOO                OOOOOOOO",
"OOOOOOOOO              OOOOOOOOO",
" OOOOOOOO              OOOOOOOO ",
" OOOOOOOOO            OOOOOOOOO ",
" OOOOOOOOOO          OOOOOOOOOO ",
"  OOOOOOOOOOO      OOOOOOOOOOO  ",
"   OOOOOOOOOOOOOOOOOOOOOOOOOO   ",
"   OOOOOOOOOOOOOOOOOOOOOOOOOO   ",
"    OOOOOOOOOOOOOOOOOOOOOOOO    ",
"     OOOOOOOOOOOOOOOOOOOOOO     ",
"      OOOOOOOOOOOOOOOOOOOO      ",
"        OOOOOOOOOOOOOOOO        ",
"         OOOOOOOOOOOOOO         ",
"            OOOOOOOO            "};
