/* XPM */
static char * Enemy5_xpm[] = {
"32 256 5 1",
" 	c None",
".	c #F8F8A0A04848",
"X	c #D0D050500808",
"o	c #F8F880801818",
"O	c #1818D8D81010",
"                                ",
"                                ",
"                                ",
"                                ",
"                                ",
"                                ",
"                                ",
"              .X                ",
"              .X                ",
"             .ooX               ",
"             .XoX               ",
"               oX               ",
"            ...ooX              ",
"            .XXooX              ",
"               ooX              ",
"            ...ooX              ",
"           .ooooooX             ",
"           .XXXXooX             ",
"                ooX             ",
"           .....ooX             ",
"           .ooooooX             ",
"           .ooooooX             ",
"           .XXXXXXX             ",
"                                ",
"             OOOO               ",
"             O OO               ",
"                O               ",
"                                ",
"                                ",
"                                ",
"                                ",
"                                ",
"                                ",
"                                ",
"                                ",
"                                ",
"                                ",
"                                ",
"                                ",
"                                ",
"                                ",
"                    ..          ",
"                 XX..X          ",
"               .X XoX           ",
"              XX..oXX           ",
"           ...  XooX            ",
"           Xoo. Xoo             ",
"         .  XooooXX             ",
"        .o.  XoooX              ",
"       .ooo.  ooo               ",
"        Xooo.oooX               ",
"         XoooooX                ",
"       O  XoooX                 ",
"      O O  XoX                  ",
"       OOO  X                   ",
"        O   X                   ",
"                                ",
"                                ",
"                                ",
"                                ",
"                                ",
"                                ",
"                                ",
"                                ",
"                                ",
"                                ",
"                                ",
"                                ",
"                                ",
"                                ",
"                                ",
"                                ",
"                                ",
"                                ",
"                                ",
"                                ",
"        .... ..                 ",
"        .ooX .oX ..             ",
"     OO .ooX .oX .X ..          ",
"      O .ooX .oX .X .o..        ",
"     OO .ooX .ooooooooXX        ",
"    OOO .ooooooooooXXX          ",
"        .ooooooXXXX             ",
"        XXXXXXX                 ",
"                                ",
"                                ",
"                                ",
"                                ",
"                                ",
"                                ",
"                                ",
"                                ",
"                                ",
"                                ",
"                                ",
"                                ",
"                                ",
"                                ",
"                                ",
"                                ",
"                                ",
"                                ",
"                                ",
"         O                      ",
"        O O  .                  ",
"       OOO  .oX                 ",
"        O  .oooX                ",
"          .oooX                 ",
"         .oooX  .X              ",
"       ..oooX  .oX              ",
"         .ooo .ooX              ",
"          .oooooX .             ",
"           .oooo  .X            ",
"            .ooo..X.            ",
"              .oooX .           ",
"               .ooo.o           ",
"                 .ooX           ",
"                  ..XX          ",
"                    .X          ",
"                                ",
"                                ",
"                                ",
"                                ",
"                                ",
"                                ",
"                                ",
"                                ",
"                                ",
"                                ",
"                                ",
"                                ",
"                                ",
"                                ",
"             O                  ",
"             OO O               ",
"             OOOO               ",
"                                ",
"           .......X             ",
"           .ooooooX             ",
"           .ooooooX             ",
"           .ooXXXXX             ",
"           .oo                  ",
"           .oo....X             ",
"           .ooooooX             ",
"            .ooXXX              ",
"            .oo                 ",
"            .oo..X              ",
"            .ooXXX              ",
"             .o                 ",
"             .o.X               ",
"             .ooX               ",
"              .X                ",
"              .X                ",
"                                ",
"                                ",
"                                ",
"                                ",
"                                ",
"                                ",
"                                ",
"                                ",
"                                ",
"                                ",
"                                ",
"                                ",
"                                ",
"                                ",
"                                ",
"                 .   O          ",
"                 .  OOO         ",
"                .o.  O O        ",
"               .ooo.  O         ",
"              .ooooo.           ",
"             .oooXooo.          ",
"             ooo  XoooX         ",
"            .ooo.  XoX          ",
"           ..oooo.  X           ",
"           oo. Xoo.             ",
"          .oo.  XXX             ",
"         ..oXX..                ",
"         .o. .X                 ",
"        .XX..                   ",
"        XX                      ",
"                                ",
"                                ",
"                                ",
"                                ",
"                                ",
"                                ",
"                                ",
"                                ",
"                                ",
"                                ",
"                                ",
"                                ",
"                                ",
"                                ",
"                                ",
"                                ",
"                                ",
"                                ",
"                                ",
"                                ",
"                                ",
"               ......X          ",
"           ....ooooooX          ",
"        ...ooooooooooX OOO      ",
"      ..ooooooooX .ooX OO       ",
"      ..oX .X .oX .ooX O        ",
"        .X .X .oX .ooX OO       ",
"           .X .oX .ooX          ",
"               .X .XXX          ",
"                                ",
"                                ",
"                                ",
"                                ",
"                                ",
"                                ",
"                                ",
"                                ",
"                                ",
"                                ",
"                                ",
"                                ",
"                                ",
"                                ",
"                                ",
"                                ",
"                                ",
"                                ",
"                                ",
"                                ",
"                                ",
"        .X                      ",
"        ..XX                    ",
"         .oXX                   ",
"         XXoooX                 ",
"         X .ooXX                ",
"          X.XXoooX              ",
"          .X  ooooX             ",
"           X .oooooX            ",
"            .ooX oooX           ",
"            .oX  .oooXX         ",
"            .X  .oooX           ",
"               .oooX            ",
"              .oooX  O          ",
"               .oX  OOO         ",
"                .  O O          ",
"                    O           ",
"                                ",
"                                ",
"                                ",
"                                ",
"                                ",
"                                ",
"                                "};
