/* XPM */
static char * Enemy6_xpm[] = {
"32 192 12 1",
" 	c None",
".	c #E0E000000000",
"X	c #F8F810104040",
"o	c #F8F800000000",
"O	c #A0A000000000",
"+	c #404040404040",
"@	c #808080808080",
"#	c #202020202020",
"$	c #50505050F8F8",
"%	c #C0C0C0C0C0C0",
"&	c #F8F8F8F80000",
"*	c #000000000000",
" .....Xoo.............XOO.....X ",
".++++++@@++++++++++++++##++++++O",
"@+$++++@@+%+%+%++%+%+%+##++++$+#",
"@+$$+++@@+%+%+%++%+%+%+##+++$$+#",
"@+$$$++@@+%+%+%++%+%+%+##++$$$+#",
"@+$$+++@@++++++++++++++##+++$$+#",
"@+$++++@@++++++++++++++##++++$+#",
"@++++++@@++++++++++++++##++++++#",
"@++++++@@++++++++++++++##++++++#",
"@++++++@@++++++++++++++##++++++#",
"@++++++@@++++++++++++++##++++++#",
"@++++++@@++++++++++++++##++++++#",
"@+++++++@@++++++++++++##+++++++#",
"@+++++++@@++++++++++++##+++++++#",
"@+++++++@@++++++++++++##+++++++#",
"@+++++++@@++++++++++++##+++++++#",
"@+++++++@@++++++++++++##+++++++#",
"@+++++++@@++++++++++++##+++++++#",
"@+++++++@@++++++++++++##+++++++#",
"@+++++++@@++++++++++++##+++++++#",
"X+++++++@@++++++++++++##+++++++X",
"XX++++++@@++++++++++++##++++++XX",
" X++++++@@@++++++++++###++++++X ",
" X@++++++@@++++++++++##++++++#X ",
"  @+++++++XX++++++++XX+++++++#  ",
"  @@+++++&&X+++++++XX&&+++++##  ",
"   @@+++++&&&++++++&&&+++++##   ",
"    @@++++++&&&&&&&&++++++##    ",
"     @@@+++++&&&&&&+++++###     ",
"       @@@++++++++++++###       ",
"         @@@++++++++###         ",
"           @+++++++##           ",
"                                ",
"                                ",
"                                ",
"        ................        ",
" .....Xo@++++++++++++++#O.....X ",
"o++++++@@++++++++++++++##++++++O",
"@+$++++@@+%+%+%++%+%+%+##++++$+#",
"@+$$+++@@+%+%+%++%+%+%+##+++$$+#",
"@+$$$++@@+%+%+%++%+%+%+##++$$$+#",
"@+$$+++@@++++++++++++++##+++$$+#",
"@+$++++@@++++++++++++++##++++$+#",
"@++++++@@++++++++++++++##++++++#",
"@++++++@@++++++++++++++##++++++#",
"@++++++@@++++++++++++++##++++++#",
"@++++++@@++++++++++++++##++++++#",
"@+++++++@@++++++++++++##+++++++#",
"X+++++++@@++++++++++++##+++++++X",
"XX++++++@@++++++++++++##++++++XX",
" X+++++++@++++++++++++#+++++++X ",
" X@++++++XX++++++++++XX++++++#X ",
"  @++++++&XX++++++++XX&++++++#  ",
"  @@++++++&&++++++++&&++++++##  ",
"   @@+++++&&&++++++&&&+++++##   ",
"    @@+++++&&&&&&&&&&+++++##    ",
"     @@@++++&&&&&&&&++++###     ",
"       @@@++++++++++++###       ",
"         @@@++++++++###         ",
"           @+++++++##           ",
"                                ",
"                                ",
"                                ",
"                                ",
"                                ",
"                                ",
"                                ",
"                                ",
"        o..............O        ",
"        o+%+%+%++%+%+%+O        ",
"       oo+%+%+%++%+%+%+OO       ",
"       o@++%+%+%%+%+%++#O       ",
"  .....o@++++++++++++++#O.....  ",
" o+++++@@++++++++++++++##+++++O ",
"o+$$$$+@@++++++++++++++##+$$$$+O",
"@+$$+++@@++++++++++++++##+++$$+#",
"@+$++++@@++++++++++++++##++++$+#",
"@++++++@@++++++++++++++##++++++#",
"@++++++@@++++++++++++++##++++++#",
"X++++++X@++++++++++++++#X++++++X",
"XX+++++XX++++++++++++++XX+++++XX",
" X+++++&&&++++++++++++&&&+++++X ",
" X@++++&&&&&++++++++&&&&&++++#X ",
"  @@++++&&&&&&&&&&&&&&&&++++##  ",
"  @@@+++++&&&&&&&&&&&&+++++###  ",
"   @@@+++++++++++++++++++####   ",
"    @@@@@@++++++++++++#####     ",
"      @@@@@@@@@@#########       ",
"          @@@@@@######          ",
"                                ",
"                                ",
"                                ",
"                                ",
"                                ",
"                                ",
"                                ",
"                                ",
"                                ",
"                                ",
"                                ",
"                                ",
"                                ",
"                                ",
"          @@@@@@######          ",
"      @@@@@@@@@@##########      ",
"    @@@@@@##################    ",
"   @@@######********#########   ",
"  @@@##******######******#####  ",
"  @@##########################  ",
" @@@########################### ",
" @@############################ ",
"@@@#############################",
"@###############################",
"@###############################",
"@#####@##################@######",
"@#####@##################@######",
"@#########************##########",
"@########**##########**#########",
"@#######@@###############@@#####",
" XX######@@###############@@#OO ",
" XX#####@@###############@@##OO ",
"  XX........................OO  ",
"                                ",
"                                ",
"                                ",
"                                ",
"                                ",
"                                ",
"                                ",
"                                ",
"                                ",
"          @@@@@@######          ",
"      @@@@@###############      ",
"    @@@#####################    ",
"   @@#######********#########   ",
"  @@###******######******#####  ",
"  @###########################  ",
" @@############################ ",
" @############################# ",
"@@##############################",
"@###############################",
"@####@#####################@####",
"@####@#####################@####",
"@####@#####################@####",
"@####@#####################@####",
"@####@#####################@####",
"@###############################",
"@#########************##########",
"@#####****############****######",
"@####*####################*#####",
"@######@@################@@#####",
"@#######@@################@@####",
"@########@#################@####",
"@#######@@################@@####",
"X######@@################@@####O",
"XX############################OO",
"  ............................  ",
"                                ",
"                                ",
"                                ",
"          @@@@@@######          ",
"      @@@@@###############      ",
"    @@@#####################    ",
"   @@#######********#########   ",
"  @@###******######******#####  ",
"  @###########################  ",
" @@############################ ",
" @############################# ",
"@@##############################",
"@###############################",
"@###############################",
"@###############################",
"@###############################",
"@####@#####################@####",
"@####@#####################@####",
"@####@#####################@####",
"@####@#####################@####",
"@####@#####################@####",
"@###############################",
"@#########************##########",
"@###############################",
"@###############################",
"@###############################",
"@#####****############****######",
"@####*####################*#####",
"@######@@################@@#####",
"@#######@@################@@####",
"@########@#################@####",
"@#######@@################@@####",
"X######@@################@@####O",
"XX############################OO",
"  ............................  "};
