/* XPM */
static char * Enemy3_xpm[] = {
"32 256 8 1",
" 	c None",
".	c #707070707070",
"X	c #F8F8F8F8F8F8",
"o	c #C8C8C8C8C8C8",
"O	c #F8F800000000",
"+	c #F8F8F8F80000",
"@	c #00000000F8F8",
"#	c #0000F8F8F8F8",
"                                ",
"                                ",
"                                ",
"                                ",
"                                ",
"                                ",
"           .        .           ",
"          ..X      X..          ",
"         XXXX      XXXX         ",
"        X  XX      XX  X        ",
"       X o XX      XX o X       ",
"       X o XX      XX o X       ",
"       Xoo XX      XX ooX       ",
"      OOOX XX      XX XOOO      ",
"     O OOOoX+X    X+XoOOO O     ",
"    OO OOOO + XXXX + OOOO OO    ",
"    O O OOXO XXXXXX OXOO O O    ",
"    OO OOOXO XX@@XX OXOOO OO    ",
"    OOOOOOOXoX@##@XoXOOOOOOO    ",
"    OOOOOOOXoX@##@XoXOOOOOOO    ",
"     OOOOOOXoX@##@XoXOOOOOO     ",
"     XOOOOOXoX@@@@XoXOOOOOX     ",
"     XOOOOOXoXoXXoXoXOOOOOX     ",
"    XXXOOOXO XoXXoX OXOOOXXX    ",
"   XXXXXOOXO XoXXoX OXOOXXXXX   ",
"   XXXXXXOXO .oXXo. OXOXXXXXX   ",
"   XXXXX  OO ...... OO  XXXXX   ",
"                                ",
"                                ",
"                                ",
"                                ",
"                                ",
"                                ",
"                                ",
"                                ",
"                                ",
"                  .. .          ",
"               XXXX..           ",
"              XX  XX.           ",
"          OOOXX oo X            ",
"         O  OOooo XX            ",
"        OO  OOOX XX             ",
"        OOOOOXOoXX         .    ",
"        OOOOXOO+X        ..     ",
"       OOOOXOO+X       XXX..    ",
"  XXX XOOOOXO X       XX XX.    ",
"  XXXXXOOOXoXXXXX    XX o X     ",
"  XXXXOOXXoXX@@@XX  XX oo X     ",
"   XXXOXOoXX@@##@X X+oXo XX     ",
"    XOXO XX@@###@XX+OOOoXX      ",
"     OO  XX@@##@@X OOXOOX       ",
"        XXoX@@@@XXOOXOOOO       ",
"        .ooXX@@XXoXXOO  O       ",
"        ..XooXXXoXOOOO  O       ",
"         ..oXXXoXOOOOOOO        ",
"          ..X  OXOOOOOO         ",
"              OXOOOO            ",
"             OXOOXX             ",
"             OOXXX              ",
"              XXXXX             ",
"               XXXX             ",
"                XXX             ",
"                                ",
"                                ",
"                                ",
"                                ",
"                                ",
"     XXX                        ",
"     XXXX   OOOOO               ",
"     XXXXXXOOOO OO              ",
"     XXXXOOOOO O  O             ",
"     XXXOOOOOOO OOOXXX          ",
"      XOOOOOOOOOOOOo  X         ",
"      OOOOOOOOOOOOXooo X        ",
"     OXXXOOOOOXXOo     X.       ",
"     OOOOXXXXXOO XXXXXXX..      ",
"         ooooo  ++XXXXXXX       ",
"     ..XXXXXXXXX X              ",
"     .oooo@@@@XXX               ",
"     .XXXX@###@XX               ",
"     .XXXX@###@XX               ",
"     .oooo@@@@XXX               ",
"     ..XXXXXXXXX X              ",
"         ooooo  ++XXXXXXX       ",
"     OOOOXXXXXOO XXXXXXX..      ",
"     OXXXOOOOOXXOo     X.       ",
"      OOOOOOOOOOOOXooo X        ",
"      XOOOOOOOOOOOOo  X         ",
"     XXXOOOOOOO OOOXXX          ",
"     XXXXOOOOO O  O             ",
"     XXXXXXOOOO OO              ",
"     XXXX   OOOOO               ",
"     XXX                        ",
"                                ",
"                                ",
"                                ",
"                                ",
"                                ",
"                XXX             ",
"               XXXX             ",
"              XXXXX             ",
"             OOXXX              ",
"             OXOOXX             ",
"              OXOOOO            ",
"          ..X  OXOOOOOO         ",
"         ..oXXXoXOOOOOOO        ",
"        ..XooXXXoXOOOO  O       ",
"        .ooXX@@XXoXXOO  O       ",
"        XXoX@@@@XXOOXOOOO       ",
"     OO  XX@@##@@X OOXOOX       ",
"    XOXO XX@@###@XX+OOOoXX      ",
"   XXXOXOoXX@@##@X X+oXo XX     ",
"  XXXXOOXXoXX@@@XX  XX oo X     ",
"  XXXXXOOOXoXXXXX    XX o X     ",
"  XXX XOOOOXO X       XX XX.    ",
"       OOOOXOO+X       XXX..    ",
"        OOOOXOO+X        ..     ",
"        OOOOOXOoXX         .    ",
"        OO  OOOX XX             ",
"         O  OOooo XX            ",
"          OOOXX oo X            ",
"              XX  XX.           ",
"               XXXX..           ",
"                  .. .          ",
"                                ",
"                                ",
"                                ",
"                                ",
"                                ",
"                                ",
"                                ",
"                                ",
"                                ",
"   XXXXX  OO ...... OO  XXXXX   ",
"   XXXXXXOXO .oXXo. OXOXXXXXX   ",
"   XXXXXOOXO XoXXoX OXOOXXXXX   ",
"    XXXOOOXO XoXXoX OXOOOXXX    ",
"     XOOOOOXoXoXXoXoXOOOOOX     ",
"     XOOOOOXoX@@@@XoXOOOOOX     ",
"     OOOOOOXoX@##@XoXOOOOOO     ",
"    OOOOOOOXoX@##@XoXOOOOOOO    ",
"    OOOOOOOXoX@##@XoXOOOOOOO    ",
"    OO OOOXO XX@@XX OXOOO OO    ",
"    O O OOXO XXXXXX OXOO O O    ",
"    OO OOOO + XXXX + OOOO OO    ",
"     O OOOoX+X    X+XoOOO O     ",
"      OOOX XX      XX XOOO      ",
"       Xoo XX      XX ooX       ",
"       X o XX      XX o X       ",
"       X o XX      XX o X       ",
"        X  XX      XX  X        ",
"         XXXX      XXXX         ",
"          ..X      X..          ",
"           .        .           ",
"                                ",
"                                ",
"                                ",
"                                ",
"                                ",
"                                ",
"                                ",
"                                ",
"             XXX                ",
"             XXXX               ",
"             XXXXX              ",
"              XXXOO             ",
"             XXOOXO             ",
"            OOOOXO              ",
"         OOOOOOXO  X..          ",
"        OOOOOOOXoXXXo..         ",
"       O  OOOOXoXXXooX..        ",
"       O  OOXXoXX@@XXoo.        ",
"       OOOOXOOXX@@@@XoXX        ",
"       XOOXOO X@@##@@XX  OO     ",
"      XXoOOO+XX@###@@XX OXOX    ",
"     XX oXo+X X@##@@XXoOXOXXX   ",
"     X oo XX  XX@@@XXoXXOOXXXX  ",
"     X o XX    XXXXXoXOOOXXXXX  ",
"    .XX XX       X OXOOOOX XXX  ",
"    ..XXX       X+OOXOOOO       ",
"     ..        X+OOXOOOO        ",
"    .         XXoOXOOOOO        ",
"             XX XOOO  OO        ",
"            XX oooOO  O         ",
"            X oo XXOOO          ",
"           .XX  XX              ",
"           ..XXXX               ",
"          . ..                  ",
"                                ",
"                                ",
"                                ",
"                                ",
"                                ",
"                                ",
"                                ",
"                        XXX     ",
"               OOOOO   XXXX     ",
"              OO OOOOXXXXXX     ",
"             O  O OOOOOXXXX     ",
"          XXXOOO OOOOOOOXXX     ",
"         X  oOOOOOOOOOOOOX      ",
"        X oooXOOOOOOOOOOOO      ",
"       .X     oOXXOOOOOXXXO     ",
"      ..XXXXXXX OOXXXXXOOOO     ",
"       XXXXXXX++  ooooo         ",
"              X XXXXXXXXX..     ",
"               XXX@@@@oooo.     ",
"               XX@###@XXXX.     ",
"               XX@###@XXXX.     ",
"               XXX@@@@oooo.     ",
"              X XXXXXXXXX..     ",
"       XXXXXXX++  ooooo         ",
"      ..XXXXXXX OOXXXXXOOOO     ",
"       .X     oOXXOOOOOXXXO     ",
"        X oooXOOOOOOOOOOOO      ",
"         X  oOOOOOOOOOOOOX      ",
"          XXXOOO OOOOOOOXXX     ",
"             O  O OOOOOXXXX     ",
"              OO OOOOXXXXXX     ",
"               OOOOO   XXXX     ",
"                        XXX     ",
"                                ",
"                                ",
"                                ",
"                                ",
"                                ",
"                                ",
"                                ",
"          . ..                  ",
"           ..XXXX               ",
"           .XX  XX              ",
"            X oo XXOOO          ",
"            XX oooOO  O         ",
"             XX XOOO  OO        ",
"    .         XXoOXOOOOO        ",
"     ..        X+OOXOOOO        ",
"    ..XXX       X+OOXOOOO       ",
"    .XX XX       X OXOOOOX XXX  ",
"     X o XX    XXXXXoXOOOXXXXX  ",
"     X oo XX  XX@@@XXoXXOOXXXX  ",
"     XX oXo+X X@##@@XXoOXOXXX   ",
"      XXoOOO+XX@###@@XX OXOX    ",
"       XOOXOO X@@##@@XX  OO     ",
"       OOOOXOOXX@@@@XoXX        ",
"       O  OOXXoXX@@XXoo.        ",
"       O  OOOOXoXXXooX..        ",
"        OOOOOOOXoXXXo..         ",
"         OOOOOOXO  X..          ",
"            OOOOXO              ",
"             XXOOXO             ",
"              XXXOO             ",
"             XXXXX              ",
"             XXXX               ",
"             XXX                ",
"                                ",
"                                "};
