/* XPM */
static char * Enemy4_xpm[] = {
"32 128 10 1",
" 	c None",
".	c #585820200000",
"X	c #686850501818",
"o	c #707030300000",
"O	c #808070702020",
"+	c #909038380000",
"@	c #A8A888883030",
"#	c #B0B048480000",
"$	c #C0C0A0A04040",
"%	c #000000000000",
"                                ",
".....                           ",
".........                       ",
"............             XXXXXXX",
".ooooooooooooo    XXXXXXXXXXXXXX",
".oooooooooooooXXXXXXXXXXXXOOOOOX",
".ooooooooooXXXXXXXOOOOOOOOOOOOOX",
".++++++++XXXXXOOOOOOOOOOOOOOOOOX",
".+++++++XXXOOOOOOOOOOOOOOO@@@@@X",
".++++++XXOOOOOOOOO@@@@@@@@@@@@@X",
".#####XXOOO@@@@@@@@@@@@@@@@@@@@X",
".####XXOO@@@@@@@@@$$$$$$$$$$$$$X",
".####XOO@@@$$$$$$$$$$$$$$$$$$$$X",
".###XXOO@@$$$$$$$$$$$$$$$$$$$$$X",
".###XOOO@@$$$$$$$$$$$$$$$$$$$$$X",
".###XOO@@@$$$$$$$$$$$$$%$$$$$$$X",
".++XXOO@@$$$$$$$$$$$$$$%$$$$$$$X",
".++XOOO@@$$$$$$$$$$$@@%%@@@@@@@X",
".++XOO@@@$$$$$$$$$$@@@%%@@@@@@@X",
".ooXOO@@$$$$$$$$$@@@OO%%OO@@@@@X",
".ooXOO@@$$$$$$$$$@@@OO%%OOOOOOOX",
".oXXOO@@$$$$$$$@@@OOOX%%OOOOOOOX",
"..XOOO@@@@@@@@@@@OOOX$%%XOOOOOOX",
"..XOO@@@@@@@@@@OOOXX$O% XXXXXXXX",
"..XOO@@@@@OOOOOOOX$$@X  XXXXXXXX",
"  XO@@OOOOOOOOOXX$@@OX          ",
"  XO@@OOOOOXXXX$$@@OX           ",
"  XOOOOXOOX  $$@@@OX            ",
"  XOOOX XX   @@@OOX             ",
"  XXXX   X   OOOXX              ",
"             XXX                ",
"                                ",
"                                ",
".....                           ",
".........                       ",
"............             XXXXXXX",
".ooooooooooooo    XXXXXXXXXXXXXX",
".oooooooooooooXXXXXXXXXXXXOOOOOX",
".ooooooooooXXXXXXXOOOOOOOOOOOOOX",
".++++++++XXXXXOOOOOOOOOOOOOOOOOX",
".+++++++XXXOOOOOOOOOOOOOOO@@@@@X",
".++++++XXOOOOOOOOO@@@@@@@@@@@@@X",
".#####XXOOO@@@@@@@@@@@@@@@@@@@@X",
".####XXOO@@@@@@@@@$$$$$$$$$$$$$X",
".####XOO@@@$$$$$$$$$$$$$$$$$$$$X",
".###XXOO@@$$$$$$$$$$$$$$$$$$$$$X",
".###XOOO@@$$$$$$$$$$$$$$$$$$$$$X",
".###XOO@@@$$$$$$$$$$$$$%$$$$$$$X",
".++XXOO@@$$$$$$$$$$$$$$%$$$$$$$X",
".++XOOO@@$$$$$$$$$$$@@%%@@@@@@@X",
".++XOO@@@@@@@@$$$$$@@@%%@@@@@@@X",
".ooXOO@@OOOO@@$$$@@@OO%%OO@@@@@X",
".ooXOO@OOXXXO@$$$@@@OO%%OOOOOOOX",
".oXXOO@OX  XO@@@@@OOOX%%OOOOOOOX",
"..XOOOOX   XO@@@@OOOX$%%XOOOOOOX",
"..XOOOX    XO@@OOOXX$O% XXXXXXXX",
"..XOOX     XO@OOOX$$@X  XXXXXXXX",
"  XOOX     XOOOXX$@@OX          ",
"  XOOX     XXXX$$@@OX           ",
"  XOOX       $$@@@OX            ",
"  XOOX       @@@OOX             ",
"  XXXX       OOOXX              ",
"             XXX                ",
"                                ",
"                                ",
"                           .....",
"                       .........",
"XXXXXX              ............",
"XXXXXXXXXXXXXX    ooooooooooooo.",
"XOOOOXXXXXXXXXXXXXooooooooooooo.",
"XOOOOOOOOOOOOOXXXXXXXoooooooooo.",
"XOOOOOOOOOOOOOOOOOOOOXXX+++++++.",
"X@@@@OOOOOOOOOOOOOOOOOOOX++++++.",
"X@@@@@@@@@@@@@OOOOOOOOOOOX+++++.",
"X@@@@@@@@@@@@@@@@@@@@OOOOX#####.",
"X$$$$$$$$$$$$$@@@@@@@@@OOOX####.",
"X$$$$$$$$$$$$$$$$$$$$@@@OOX####.",
"X$$$$$$$$$$$$$$$$$$$$$@@OOOX###.",
"X$$$$$$$$$$$$$$$$$$$$$@@@OOX###.",
"X$$$$$$$%$$$$$$$$$$$$$$@@OOX###.",
"X$$$$$$$%$$$$$$$$$$$$$$@@OOOX++.",
"X@@@@@@@%%@@$$$$$$$$$$$@@@OOX++.",
"X@@@@@@@%%@@@$$$$$$$$$$$@@OOX++.",
"X@@@@@OO%%OO@@@$$$$$$$$$@@OOXoo.",
"XOOOOOOO%%OO@@@$$$$$$$$$@@OOXoo.",
"XOOOOOOO%%XOOO@@@$$$$$$$@@OOOXo.",
"XOOOOOOX%%$XOOO@@@@@@@@@@@OOOX..",
"XXXXXXXX %O$XXOOO@@@@@@@@@@OOX..",
"XXXXXXXX  X@$$XOOOOOOO@@@@@OOX..",
"          XO@@$XXOOOOOOOOO@@OX  ",
"           XO@@$$XXXXOOOOO@@OX  ",
"            XO@@@$$  XOOXOOOOX  ",
"             XOO@@@   XX XOOOX  ",
"              XXOOO   X   XXXX  ",
"                XXX             ",
"                                ",
"                                ",
"                           .....",
"                       .........",
"XXXXXX              ............",
"XXXXXXXXXXXXXX    ooooooooooooo.",
"XOOOOXXXXXXXXXXXXXooooooooooooo.",
"XOOOOOOOOOOOOOXXXXXXXoooooooooo.",
"XOOOOOOOOOOOOOOOOOOOOXXX+++++++.",
"X@@@@OOOOOOOOOOOOOOOOOOOX++++++.",
"X@@@@@@@@@@@@@OOOOOOOOOOOX+++++.",
"X@@@@@@@@@@@@@@@@@@@@OOOOX#####.",
"X$$$$$$$$$$$$$@@@@@@@@@OOOX####.",
"X$$$$$$$$$$$$$$$$$$$$@@@OOX####.",
"X$$$$$$$$$$$$$$$$$$$$$@@OOOX###.",
"X$$$$$$$$$$$$$$$$$$$$$@@@OOX###.",
"X$$$$$$$%$$$$$$$$$$$$$$@@OOX###.",
"X$$$$$$$%$$$$$$$$$$$$$$@@OOOX++.",
"X@@@@@@@%%@@$$$$$$$$$$$@@@OOX++.",
"X@@@@@@@%%@@@$$$$$$@@@@@@@OOX++.",
"X@@@@@OO%%OO@@@$$$$@OOOOO@OOXoo.",
"XOOOOOOO%%OO@@@$$$$@OXXXOOOOXoo.",
"XOOOOOOO%%XOOO@@@$$@OX  XOOOOXo.",
"XOOOOOOX%%$XOOO@@@@@OX   XOOOX..",
"XXXXXXXX %O$XXOOO@@@OX    XOOX..",
"XXXXXXXX  X@$$XOOOOOOX    XOOX..",
"          XO@@$XXOOOOX    XOOX  ",
"           XO@@$$XXXXX    XOOX  ",
"            XO@@@$$       XOOX  ",
"             XOO@@@       XOOX  ",
"              XXOOO       XXXX  ",
"                XXX             ",
"                                "};
