/* XPM */
static char * ExpSmall_xpm[] = {
"32 160 6 1",
" 	c None",
".	c #F8F800000000",
"X	c #F8F8F8F8F8F8",
"o	c #F8F8F8F80000",
"O	c #C8C800000000",
"+	c #C8C8C8C80000",
"                                ",
"         .                      ",
"            .                   ",
"       .     . . . . .          ",
"             .. .     .         ",
"       .   . ... . . . .        ",
"         ......... ....         ",
"       . . ........X.. . .      ",
"      .........o.........       ",
"     . .....o.XXXX.X.X.. .      ",
"  .   ......o.XXXoX....         ",
"     ... ..ooXXXX.XX.. X . .    ",
"    . .....XXXXXXXX.XX...   .   ",
"   . ....ooXXXXXXXXXXX...X .    ",
"     .....o.oXXXXXXXo.....      ",
"   ........XXXXXXXXX.X.... . .  ",
"    ......o..XXXXXXoo.......    ",
"   . ... X.oXXXXXXXXo.....      ",
"      .....o.oXXX.X......       ",
"     . . ..XXoXXoXo... . . .    ",
"    .  ......Xoo.o... ...       ",
"       ... X.X...X.. ..  .      ",
"     .  ... o.....o....         ",
"     . . . ... .. .... .        ",
"            .........   .       ",
"       .     . . . . .          ",
"          . . ....  .           ",
"           .   . .              ",
"                                ",
"                                ",
"                                ",
"                                ",
"                                ",
"         . . . . . .            ",
"         ... . ..   .   ..      ",
"       . .X.....X.....  ..      ",
"    .  .   ..............       ",
"         .....X.X.X.X.X.        ",
"       ...........X....... .    ",
"   .X. .......XXX......... ..   ",
"   ........oo.XXooo........ ..  ",
" .  ....XoX.o.XXXXoo..........  ",
"   ....XoXoXXXXXXXooX..X.....   ",
" .X...XoooXXXXXXXXoX..XoX.. ..  ",
"  ....X.XXXXXXXXXXX..XX.X..  .  ",
" .....X.XXXXXXXXXXXXXXX.X.      ",
" ....o.XXXXXXXXXXXXXXXXX...     ",
" .X...XooXXXXXXXXXXXXXX.X...    ",
" . ....oo.XXXXXXXXXXXXXX...     ",
" . .....ooXoooXXXXXXX...X..     ",
" . ...X..X.oooXXXXXXX...X...    ",
"   ...X.....XoXXXXXoX..oX.   .  ",
"    ...X.....XoooXXoXX.X...     ",
" .  ..X.X.....XoooooX.X... .X.  ",
"      ...........Xo.......  .   ",
"       ...X.......o.X.X......   ",
"        ....X.....X.........    ",
"     . .X.......X.X....  .  .   ",
"        X................       ",
"       . .X  .......X .         ",
"         ... .   .....          ",
"         .   . .. .. .          ",
"                  .             ",
"                                ",
"                                ",
"         . . . . . . .          ",
"         .............          ",
"       . . . o.o o.. . .        ",
"      ... ..oooo..o.. ...       ",
"     . ..o . o o o.o o . .      ",
"    . .. ooooooooo ooo .. .     ",
"   . ..o o oooXoXooo o o . .    ",
"   .....oooooXXXXXooooooo...    ",
" . . o..ooXoXXXXXXXoXooo o . .  ",
"  ...oooooXXXXXXXXXXXooooo...   ",
" . . oooooXXXXXXXXXXXooo . . .  ",
" ...oo.ooXXXXXXXXXXXXXooo.o...  ",
" . ..o.oXXXXXXXXXXXXXXXooo o .  ",
" ...ooooXXXXXXXXXXXXXXXoooo...  ",
" . o oooXXXXXXXXXXXXXXXooo.o .  ",
" ...ooooXXXXXXXXXXXXXXXooo....  ",
" . o oooXXXXXXXXXXXXXXXo o o .  ",
" ....o ooXXXXXXXXXXXXXoo.oo...  ",
" . . o oooXXXXXXXXXXXooo.o.. .  ",
"  ...oo ooXXXXXXXXXXXooooo...   ",
" . . . oooXoXXXXXXXoXooo o . .  ",
"   ....ooooooXXXXXoooooo....    ",
"   . . o.o oooXoXooooo o . .    ",
"    . .. oooooooooooo. .. .     ",
"     . . o.o o o o . . . .      ",
"      ... ..oooooo... ...       ",
"       . . . . o o . . .        ",
"         .............          ",
"         . . . . . . .          ",
"                                ",
"                                ",
"            O.....O             ",
"        O.............O         ",
"      O.................O       ",
"     O......+ooooo+......O      ",
"    O....+ooooooooooo+....O     ",
"   O....+oooXXXXXXXooo+....O    ",
"  O....+ooXXXXXXXXXXXoo+....O   ",
"  ....+ooXXXXXXXXXXXXXoo+....   ",
" O...+ooXXXXXXXXXXXXXXXoo+...O  ",
" ...+ooXXXXXXXXXXXXXXXXXoo+...  ",
" ...ooXXXXXXXXXXXXXXXXXXXoo...  ",
" ...ooXXXXXXXXXXXXXXXXXXXoo...O ",
"O..+oXXXXXXXXXXXXXXXXXXXXXo+... ",
"...ooXXXXXXXXXXXXXXXXXXXXXoo... ",
"...ooXXXXXXXXXXXXXXXXXXXXXoo... ",
"...ooXXXXXXXXXXXXXXXXXXXXXoo... ",
"...ooXXXXXXXXXXXXXXXXXXXXXoo... ",
"...ooXXXXXXXXXXXXXXXXXXXXXoo... ",
"O..+oXXXXXXXXXXXXXXXXXXXXXo+... ",
" ...ooXXXXXXXXXXXXXXXXXXXoo...O ",
" ...ooXXXXXXXXXXXXXXXXXXXoo...  ",
" ...+ooXXXXXXXXXXXXXXXXXoo+...  ",
" O...+ooXXXXXXXXXXXXXXXoo+...O  ",
"  ....+ooXXXXXXXXXXXXXoo+....   ",
"  O....+ooXXXXXXXXXXXoo+....O   ",
"   O....+oooXXXXXXXooo+....O    ",
"    O....+ooooooooooo+....O     ",
"     O......+ooooo+......O      ",
"      O.................O       ",
"       O...............O        ",
"          O.........O           ",
"                                ",
"     .....                      ",
"  . . o o . .                   ",
"  .. ooooo. .                   ",
". ..oXoXoXo....                 ",
" . oooXXXooo .                  ",
"..oooXXXXXoXo .   . . . .       ",
".oooXXXXXXXoo .     ... .       ",
"..oXoXXXXXoXoX. ...oooo ..      ",
". ooXXXXXXXoo ... .oooo...      ",
"..o.oXXXXXoXo.....oXoooXo.      ",
" .ooooXXXoooX. ...ooXXXo ..     ",
". . oXoXoo.X.   .XoXoXoooX.     ",
"  .. oooo.....  . oXoooX. .     ",
"  . ..o..X..oo  .X.XoXoX. . .   ",
"     ..o.oooo...... oo...       ",
"    ..oooooooooo... . . .       ",
"    ..ooXoooooo.o...     .      ",
"    . oooXoXoXoXoX.             ",
"   .. ooXXXXXXXooo.. .          ",
"  . oXooXXXXXXXXoo...           ",
"   .o oXXXXXXXXXoo..            ",
"  . oooXXXXXXXXXoX.X.           ",
"   .oooXXXXXXXXXoo..            ",
"  ..oooooXXXXXoXoo..            ",
"    ..oooXXXXXooXo..            ",
"    . oooooXooooo..             ",
"  .   .oooooooo..               ",
"      . oXoXoX...               ",
"       . .....                  ",
"          . .                   ",
"                                ",
"                                "};
