/* XPM */
static char * font5_xpm[] = {
"7 224 2 1",
" 	c None",
".	c #FFFFFF",
"   .   ",
"    .  ",
"     . ",
"       ",
"       ",
"       ",
"       ",
"       ",
"       ",
"       ",
"       ",
"       ",
"       ",
"       ",
"       ",
"       ",
"       ",
"       ",
" ....  ",
".    . ",
"     . ",
" ..... ",
".    . ",
".    . ",
" ..... ",
"       ",
"       ",
"       ",
"       ",
".      ",
".      ",
".      ",
". ...  ",
"..   . ",
".    . ",
".    . ",
".    . ",
"..   . ",
". ...  ",
"       ",
"       ",
"       ",
"       ",
"       ",
"       ",
"       ",
" ....  ",
".    . ",
".      ",
".      ",
".      ",
".    . ",
" ....  ",
"       ",
"       ",
"       ",
"       ",
"     . ",
"     . ",
"     . ",
" ... . ",
".   .. ",
".    . ",
".    . ",
".    . ",
".   .. ",
" ... . ",
"       ",
"       ",
"       ",
"       ",
"       ",
"       ",
"       ",
" ....  ",
".    . ",
".    . ",
"...... ",
".      ",
".    . ",
" ....  ",
"       ",
"       ",
"       ",
"   ..  ",
"  .  . ",
"  .    ",
"  .    ",
".....  ",
"  .    ",
"  .    ",
"  .    ",
"  .    ",
"  .    ",
"       ",
"       ",
"       ",
"       ",
"       ",
"       ",
"       ",
"       ",
" ... . ",
".   .  ",
".   .  ",
".   .  ",
" ...   ",
" .     ",
". ...  ",
".    . ",
" ....  ",
"       ",
"       ",
".      ",
".      ",
".      ",
". ...  ",
"..   . ",
".    . ",
".    . ",
".    . ",
".    . ",
".    . ",
"       ",
"       ",
"       ",
"       ",
"   .   ",
"   .   ",
"       ",
"  ..   ",
"   .   ",
"   .   ",
"   .   ",
"   .   ",
"   .   ",
" ..... ",
"       ",
"       ",
"       ",
"     . ",
"     . ",
"       ",
"    .. ",
"     . ",
"     . ",
"     . ",
"     . ",
"     . ",
" .   . ",
" .   . ",
"  ...  ",
"       ",
"       ",
"       ",
".      ",
".      ",
".      ",
".   .  ",
".  .   ",
". .    ",
"...    ",
".  .   ",
".   .  ",
".    . ",
"       ",
"       ",
"       ",
"       ",
"  ..   ",
"   .   ",
"   .   ",
"   .   ",
"   .   ",
"   .   ",
"   .   ",
"   .   ",
"   .   ",
" ..... ",
"       ",
"       ",
"       ",
"       ",
"       ",
"       ",
"       ",
" .. .  ",
" . . . ",
" . . . ",
" . . . ",
" . . . ",
" . . . ",
" .   . ",
"       ",
"       ",
"       ",
"       ",
"       ",
"       ",
"       ",
". ...  ",
"..   . ",
".    . ",
".    . ",
".    . ",
".    . ",
".    . ",
"       ",
"       ",
"       ",
"       ",
"       ",
"       ",
"       ",
" ....  ",
".    . ",
".    . ",
".    . ",
".    . ",
".    . ",
" ....  ",
"       ",
"       ",
"       "};
