/* XPM */
static char * font3_xpm[] = {
"7 224 2 1",
" 	c None",
".	c #FFFFFF",
"       ",
"   ... ",
"  .   .",
" .  ...",
" . .  .",
" . .  .",
" . .  .",
" . .  .",
" .  ...",
"  .    ",
"   ....",
"       ",
"       ",
"       ",
"       ",
"  ..   ",
" .  .  ",
".    . ",
".    . ",
".    . ",
"...... ",
".    . ",
".    . ",
".    . ",
".    . ",
"       ",
"       ",
"       ",
"       ",
"....   ",
".   .  ",
".    . ",
".   .  ",
"....   ",
".   .  ",
".    . ",
".    . ",
".   .  ",
"....   ",
"       ",
"       ",
"       ",
"       ",
" ....  ",
".    . ",
".    . ",
".      ",
".      ",
".      ",
".      ",
".    . ",
".    . ",
" ....  ",
"       ",
"       ",
"       ",
"       ",
"....   ",
".   .  ",
".    . ",
".    . ",
".    . ",
".    . ",
".    . ",
".    . ",
".   .  ",
"....   ",
"       ",
"       ",
"       ",
"       ",
"...... ",
".      ",
".      ",
".      ",
"....   ",
".      ",
".      ",
".      ",
".      ",
"...... ",
"       ",
"       ",
"       ",
"...... ",
".      ",
".      ",
".      ",
"....   ",
".      ",
".      ",
".      ",
".      ",
".      ",
"       ",
"       ",
"       ",
"       ",
"       ",
" ....  ",
".    . ",
".    . ",
".      ",
".      ",
".  ... ",
".    . ",
".    . ",
".   .. ",
" ... . ",
"       ",
"       ",
"       ",
"       ",
".    . ",
".    . ",
".    . ",
".    . ",
"...... ",
".    . ",
".    . ",
".    . ",
".    . ",
".    . ",
"       ",
"       ",
"       ",
"       ",
" ..... ",
"   .   ",
"   .   ",
"   .   ",
"   .   ",
"   .   ",
"   .   ",
"   .   ",
"   .   ",
" ..... ",
"       ",
"       ",
"       ",
"   ... ",
"    .  ",
"    .  ",
"    .  ",
"    .  ",
"    .  ",
"    .  ",
".   .  ",
".   .  ",
" ...   ",
"       ",
"       ",
"       ",
"       ",
"       ",
".    . ",
".   .  ",
".  .   ",
". .    ",
"..     ",
". .    ",
".  .   ",
".   .  ",
".    . ",
".    . ",
"       ",
"       ",
"       ",
"       ",
".      ",
".      ",
".      ",
".      ",
".      ",
".      ",
".      ",
".      ",
".      ",
"...... ",
"       ",
"       ",
"       ",
"       ",
".    . ",
"..  .. ",
"..  .. ",
". .. . ",
". .. . ",
".    . ",
".    . ",
".    . ",
".    . ",
".    . ",
"       ",
"       ",
"       ",
"       ",
".    . ",
".    . ",
"..   . ",
"..   . ",
". .  . ",
".  . . ",
".   .. ",
".   .. ",
".    . ",
".    . ",
"       ",
"       ",
"       ",
"       ",
" ....  ",
".    . ",
".    . ",
".    . ",
".    . ",
".    . ",
".    . ",
".    . ",
".    . ",
" ....  ",
"       ",
"       ",
"       "};
