/* XPM */
static char * font4_xpm[] = {
"7 224 2 1",
" 	c None",
".	c #FFFFFF",
"       ",
" ..... ",
" .    .",
" .    .",
" .    .",
" .    .",
" ..... ",
" .     ",
" .     ",
" .     ",
" .     ",
"       ",
"       ",
"       ",
"       ",
" ....  ",
".    . ",
".    . ",
".    . ",
".    . ",
".    . ",
"...  . ",
".  . . ",
".   .. ",
" ....  ",
"    .  ",
"     . ",
"       ",
"       ",
".....  ",
".    . ",
".    . ",
".    . ",
".    . ",
".....  ",
".  .   ",
".   .  ",
".    . ",
".    . ",
"       ",
"       ",
"       ",
"       ",
" ....  ",
".    . ",
".    . ",
".      ",
" ..    ",
"   ..  ",
"     . ",
".    . ",
".    . ",
" ....  ",
"       ",
"       ",
"       ",
"       ",
".......",
"   .   ",
"   .   ",
"   .   ",
"   .   ",
"   .   ",
"   .   ",
"   .   ",
"   .   ",
"   .   ",
"       ",
"       ",
"       ",
"       ",
".    . ",
".    . ",
".    . ",
".    . ",
".    . ",
".    . ",
".    . ",
".    . ",
".    . ",
" ....  ",
"       ",
"       ",
"       ",
".    . ",
".    . ",
".    . ",
".    . ",
" .  .  ",
" .  .  ",
" .  .  ",
"  ..   ",
"  ..   ",
"  ..   ",
"       ",
"       ",
"       ",
"       ",
"       ",
" .   . ",
" .   . ",
" .   . ",
" .   . ",
" .   . ",
" .   . ",
" . . . ",
" . . . ",
" . . . ",
"  . .  ",
"       ",
"       ",
"       ",
"       ",
".    . ",
".    . ",
" .  .  ",
" .  .  ",
"  ..   ",
"  ..   ",
" .  .  ",
" .  .  ",
".    . ",
".    . ",
"       ",
"       ",
"       ",
"       ",
" .   . ",
" .   . ",
" .   . ",
"  . .  ",
"  . .  ",
"   .   ",
"   .   ",
"   .   ",
"   .   ",
"   .   ",
"       ",
"       ",
"       ",
"...... ",
"     . ",
"    .  ",
"   .   ",
"   .   ",
"  .    ",
" .     ",
" .     ",
".      ",
"...... ",
"       ",
"       ",
"       ",
"       ",
"  .... ",
"  .    ",
"  .    ",
"  .    ",
"  .    ",
"  .    ",
"  .    ",
"  .    ",
"  .    ",
"  .    ",
"  .    ",
"  .    ",
"  .... ",
"       ",
".      ",
".      ",
" .     ",
" .     ",
"  .    ",
"  .    ",
"  .    ",
"   .   ",
"   .   ",
"    .  ",
"    .  ",
"     . ",
"     . ",
"       ",
" ....  ",
"    .  ",
"    .  ",
"    .  ",
"    .  ",
"    .  ",
"    .  ",
"    .  ",
"    .  ",
"    .  ",
"    .  ",
"    .  ",
" ....  ",
"       ",
"  ..   ",
" .  .  ",
".    . ",
"       ",
"       ",
"       ",
"       ",
"       ",
"       ",
"       ",
"       ",
"       ",
"       ",
"       ",
"       ",
"       ",
"       ",
"       ",
"       ",
"       ",
"       ",
"       ",
"       ",
"       ",
"       ",
"       ",
"...... ",
"       "};
