/* XPM */
static char * font2_xpm[] = {
"7 224 2 1",
" 	c None",
".	c #FFFFFF",
"       ",
"   ..  ",
"  .  . ",
" .    .",
" .    .",
" .    .",
" .    .",
" .    .",
" .    .",
"  .  . ",
"   ..  ",
"       ",
"       ",
"       ",
"       ",
"   .   ",
"  ..   ",
" . .   ",
"   .   ",
"   .   ",
"   .   ",
"   .   ",
"   .   ",
"   .   ",
" ..... ",
"       ",
"       ",
"       ",
"       ",
" ....  ",
".    . ",
".    . ",
"     . ",
"    .  ",
"    .  ",
"   .   ",
"  .    ",
" .     ",
"...... ",
"       ",
"       ",
"       ",
"       ",
"...... ",
"     . ",
"    .  ",
"   .   ",
"  ...  ",
"     . ",
"     . ",
".    . ",
".    . ",
" ....  ",
"       ",
"       ",
"       ",
"       ",
"    .  ",
"   ..  ",
"  . .  ",
"  . .  ",
" .  .  ",
" .  .  ",
".   .  ",
"...... ",
"    .  ",
"    .  ",
"       ",
"       ",
"       ",
"       ",
"...... ",
".      ",
".      ",
".....  ",
".    . ",
"     . ",
"     . ",
".    . ",
".    . ",
" ....  ",
"       ",
"       ",
"       ",
"       ",
"  ...  ",
" .     ",
".      ",
".      ",
". ...  ",
"..   . ",
".    . ",
".    . ",
".    . ",
" ....  ",
"       ",
"       ",
"       ",
"       ",
"...... ",
"     . ",
"    .  ",
"    .  ",
"   .   ",
"   .   ",
"  .    ",
"  .    ",
" .     ",
" .     ",
"       ",
"       ",
"       ",
"       ",
" ....  ",
".    . ",
".    . ",
" .  .  ",
"  ..   ",
" .  .  ",
".    . ",
".    . ",
".    . ",
" ....  ",
"       ",
"       ",
"       ",
"       ",
" ....  ",
".    . ",
".    . ",
".    . ",
".   .. ",
" ... . ",
"     . ",
".    . ",
".   .  ",
" ...   ",
"       ",
"       ",
"       ",
"       ",
"       ",
"   .   ",
"  ...  ",
"   .   ",
"       ",
"       ",
"   .   ",
"  ...  ",
"   .   ",
"       ",
"       ",
"       ",
"       ",
"       ",
"       ",
"       ",
"       ",
"  ..   ",
"  ..   ",
"       ",
"       ",
"  ..   ",
"   .   ",
"   .   ",
"  .    ",
"       ",
"       ",
"       ",
"       ",
"     . ",
"    .  ",
"   .   ",
"  .    ",
" .     ",
"  .    ",
"   .   ",
"    .  ",
"     . ",
"       ",
"       ",
"       ",
"       ",
"       ",
"       ",
"       ",
"...... ",
"       ",
"       ",
"...... ",
"       ",
"       ",
"       ",
"       ",
"       ",
"       ",
"       ",
"       ",
" .     ",
"  .    ",
"   .   ",
"    .  ",
"     . ",
"    .  ",
"   .   ",
"  .    ",
" .     ",
"       ",
"       ",
"       ",
"       ",
" ....  ",
".    . ",
".    . ",
"    .  ",
"   .   ",
"   .   ",
"   .   ",
"       ",
"   .   ",
"   .   ",
"       ",
"       ",
"       "};
