/* XPM */
static char * font_4_xpm[] = {
"256 60 4 1",
" 	c None",
".	c #FFFFFF",
"+	c #FCFEFC",
"@	c #E1E1E2",
"                                                                                                                                                                                                                                                                ",
"..  .  .   .       .               ...    .   .. .    .                      .  ..          ...    ..      .   ....   ..   .....  ...    ..                                 ....                                                                                ",
"..  .  .   . ..  ..... ...   .    .. .    .  ..  ..  ...                    .  ....    ..  .....  ....    ..   ....  ..... ..... .. ..  ....                               .. ..                                                                                ",
"..  .  .   . .  .. ... .  . .     .. .    .  .    .  ...                    . ..  .. ....  ..  ....  ..  ...  ..     .        .. .   . ..  ..                              ..  ..                                                                               ",
"..       ...... .. .   .  . .      ...       .    .  ...    .               . ..  ..   ..  .   ..    ..  . .  ....  .. .      .  ..  . ..  .. ..  ..                           ..                                                                               ",
" .        .. .   ....  ... .      .... .     .    ..        .                 ..  ..   ..     ..    ..  .  .  ..... .....    ..   .... ... ..  .   .    ...  .....  ...       ..                                                                                ",
" .        .. .     ...      .... .. ....     .    ..      .....     ...    .  ..  ..   ..    ..      .. .  ..     . ..  ..   .   .   .. .....         ...             ...    ..                                                                                 ",
"         ......    . .    . .  . ..  ..      .    ..     ......            .  ..  ..   ..   ..   ..  .. ..... .   . ..  ..  ..   .   ..    ..         ...             ...                                                                                       ",
" .        . ..  .. ...    . .  . ... ...     .    .         .    .      .. .   ....    ..  ...   ..  ..    .. .. ..  .. .   ..   .. .. ..  .   .   .   ....  .....  ....     .                                                                                  ",
"..        . .    ....    .   ..   .... .     ..   .         .    ..     ..     ....    ..  ...... ....     .   ...   ....   ..    ....  ....  ..  ..      .         .        ..                                                                                 ",
"                   .                          .  ..               .                                                                                .                                                                                                            ",
"                                              .. .               .                                                                                                                                                                                              ",
"                                                                                                                                                                                                                                                                ",
"                                                                                                                                                                                                                                                                ",
"                                                                                                                                                                                                                                                                ",
"                                                                                                                                                                                                                                                                ",
"                                                                                                                                                                                                                                                                ",
"                                                                                                                                                                                                                                                                ",
"                                                                                                                                                                                                                                                                ",
"                                                                                                                                                                                                                                                                ",
"    ....       ..    ......    ....   ......   ......  ......   .....  ..   ..  ..    .. ..   ..  ..     ...   ... ..   ..   .....   .....    .....   ......    ....  ....... ..   .. ..    ....  ..   .. ..  .. ...  .. ......  ....   ...                     ",
"  ..    ..    ...    ...  ..  ... ... ...  ..  ..      ..      ... ... ..   ..  ..    .. ..  ..   ..     ...   ... ...  ..  ... ...  ..  ..  ... ...  ..   ..  .. ...   ...   ..   ..  ..  ..  .  ...  .  ..  .   ..  ..     ..  .       ..   ..                ",
" ..      .    ....   ..   ..  ..   .. ..   ... ..      ..     ...   .. ..   ..  ..    .. .. ..    ..     .... .... ...  ..  ..   ..  ..  ..  ..   ..  ..   ..  .   ..    .    ..   ..  ..  ..  .. ... ..   ....   ..  .      ..  .   .   ..  ...                ",
" .  .... .    ....   ...  .. ..       ..    .. ..      ..     ..       ...  ..  ..    .. .....    ..     .... .... .... .. ..     .. ..  .. ..     .. ..   ..  ..        .    ..   ..  ..  .   .. ... ..   ...     ....     ..   .   .   ..  ....               ",
".. ..  .  .  ..  .   ....... ..       ..    .. ......  .....  ..   ... .......  ..    .. .....    ..     .... . .. .. . .. ..     .. ...... ..     .. ......   .....     .    ..   ..   .  .   .. . . ..    ..     ...     ...   .   .   ..  .  .               ",
".  .   . ..  ..  ..  ..   .. ..       ..    .. ..      ..     ..   ... ..   ..  .. .  .. .....    ..     .. ... .. .. .... ..     .. ....   ..     .. ..  ...      ..    .    ..   ..   ....   .... ...    ...      ..     ..    .    .  ..     .               ",
".  .  .. .   ......  ..   ..  ..   .. ..   ... ..      ..     ...   .. ..   ..  .. .  .. ..  ..   ..     .. ... .. ..  ...  ..   ..  ..      ..  ...  ..   .. ..   ..    .    ..   ..   ...     ... ...   .....     ..    ..     .    .  ..                     ",
" . .......   ..  ..  ...  ..  ... ... ...  ..  ..      ..      ..  ... ..   ..  .. .. .. ..   ..  ..     .. ... .. ..  ...  ... ...  ..      ... ...  ..   ..  ..  ..    .    ... ...    ..     ..  ...   ..  ..    ..   ...     .    .  ..                     ",
" ..         ..    .. .......   ....   ......   ....... ..       .... . ..   ..  .. ....  ..   ... ...... ..  .  .. ..   ..   .....   ..       ......  ..   ..   ....     .     .....     ..     ..   .   ...  ..    ..   ......  .     . ..                     ",
"  ...  .                                                                                                                                                                                                                         .       ..                     ",
"    ...                                                                                                                                                                                                                          ...    ...        ......       ",
"                                                                                                                                                                                                                                                                ",
"                                                                                                                                                                                                                                                                ",
"                                                                                                                                                                                                                                                                ",
"                                                                                                                                                                                                                                                                ",
"                                                                                                                                                                                                                                                                ",
"                                                                                                                                                                                                                                                                ",
"                                                                                                                                                                                                                                                                ",
"                                                                                                                                                                                                                                                                ",
"                                                                                                                                                                                                                                                                ",
"                                                                                                                                                                                                                                                                ",
" .         .                 .         ..         .      .  ..  .      .                                                                                                      ... .  ...                                                                        ",
" .         .                 .         .          .             .      .                                                      ..                                              ..  .   ..                                                                        ",
"           .                 .        ...         .      .  ..  .      .                                                      ..                                              ..  .   ..                                                                        ",
"     ....  .....   ....  .....  ..... ...  .....  .....  .  ..  .  .   .  ........   .....  .....  .....   .....  .... ..... .... .   .  .  ..  .  ..  . ..  .  ..  .  .....  ..  .   ..                                                                        ",
"     .  .. ..  .. ..  . ..  ..  .   .  .  ..  ..  ..  .  .  ..  . .    .  ..  .  ..  ..  .  ..  .. ..  .. ..  ..  ..   .   .  ..  .   .  .. ..  .  .. ..  ....  ..  .     .   ..  .   ..                                                                        ",
"     ..... .   .. .     ..   . +.....  .  .   ..  .   .  .  ..  ...    .  .   .  ..  .   .  .   .. ..   . ..   .  ..   ....   ..  .   .  .. .   ..... ..   ..    ....   ...   .   .    .  ... .                                                                 ",
"    ..  .. .   .. .   . ..   . @.      .  ..  ..  .   .  .  ..  ....   .  .   .  ..  .   .  .   .. ..  .. ..   .  .       ..  ..  .   .   ...   ... ...   ...    ...    ..    ..  .   ..  . ...                                                                 ",
"    ..  .. ..  .  ..  .  .. ..  .. ..  .  ..  ..  .   .  .  ..  .  .   .  .   .  ..  .   .  ..  .  ... ..  .. ..  .   ..   .  ..  .. ..   ...    ..  ..   ....   ...   ..     ..  .   ..                                                                        ",
"     ..... .....   ...   .....   ...   .   .....  .   .  .  ..  .  ..  .  .   .  ..  .   .   ....  .....   .....  .    ....   ... .....   ..     ..  ..  ..  ..   ..   .....  ..  .   ..                                                                        ",
"                                          .   ..            ..                                     ..          .                                                  ..          ..  .   ..                                                                        ",
"                                          .....             ..                                     ..          .                                                 ..           ..  .   ..                                                                        ",
"                                                                                                                                                                                                                                                                ",
"                                                                                                                                                                                                                                                                ",
"                                                                                                                                                                                                                                                                ",
"                                                                                                                                                                                                                                                                ",
"                                                                                                                                                                                                                                                                ",
"                                                                                                                                                                                                                                                                ",
"                                                                                                                                                                                                                                                                ",
"                                                                                                                                                                                                                                                                "};
