/* XPM */
static char * Item_xpm[] = {
"32 128 13 1",
" 	c None",
".	c #808060600000",
"X	c #A0A078780000",
"o	c #E0E0A8A80000",
"O	c #00000000F8F8",
"+	c #F8F8F8F80000",
"@	c #50505050F8F8",
"#	c #0000F8F8F8F8",
"$	c #F8F800000000",
"%	c #202020202020",
"&	c #606060606060",
"*	c #C0C0C0C0C0C0",
"=	c #808080808080",
"                                ",
"                                ",
"                                ",
"             ......             ",
"          ............          ",
"         ....XXXXXX....         ",
"       ....XXXXXXXXXX....       ",
"      ...XXXXooooooXXXX...      ",
"     ...XXXooooooooooXXX...     ",
"     .OOOOOOOOOOOOooooXXX..     ",
"    ..OOOOOO+++++OOooooXX...    ",
"    ..OOOOOO+ooooOO+ooooXX..    ",
"   ...OOOOOO+ooooOO+ooooXX...   ",
"   ..XOOOOOO+ooooOO+oooooXX..   ",
"   ..XOOOOOOOOOOOO++oooooXX..   ",
"   ..XOOOOOO+++++++ooooooXX..   ",
"   ..XOOOOOO+oOOOOooOOoOoOX..   ",
"   ..XOOOOOO+OOO++OoOO+O+O+..   ",
"   ..XOOOOOO+OOO+oO+OO+O+O+..   ",
"   ...OOOOOO+OOO+oO+OO+O+O+..   ",
"    ..OOOOOO+OOO+oO+OO+O+O+.    ",
"    ..OOOOOO+OOO+oO+OOO+O+..    ",
"     .OOOOOO+oOOOO++OO+O+..     ",
"     ..++++++oo++++oo+X+...     ",
"      ...XXXXooooooXXXX...      ",
"       ....XXXXXXXXXX....       ",
"         ....XXXXXX....         ",
"          ............          ",
"             ......             ",
"                                ",
"                                ",
"                                ",
"                                ",
"                                ",
"                                ",
"             ......             ",
"          ............          ",
"         ....XXXXXX....         ",
"       ....XXXXXXXXXX....       ",
"      ...XXXXooooooXXXX...      ",
"     ...XXXooooooooooXXX...     ",
"     ..XXXooooooooooooXXX..     ",
"    ...XXoo@@oooooo@@ooXX...    ",
"    ..XXoo@##@oooo@##@ooXX..    ",
"   ...XXoo@##@oooo@##@ooXX...   ",
"   ..XXooo@##@oooo@##@oooXX..   ",
"   ..XXooo@##@oooo@##@oooXX..   ",
"   ..XXooo@##@oooo@##@oooXX..   ",
"   ..XXooo@##@oooo@##@oooXX..   ",
"   ..XXooo@##@oooo@##@oooXX..   ",
"   ..XXooo@##@oooo@##@oooXX..   ",
"   ...XXoo@##@oooo@##@ooXX...   ",
"    ..XXoo@##@oooo@##@ooXX..    ",
"    ...XXoo@@oooooo@@ooXX...    ",
"     ..XXXooooooooooooXXX..     ",
"     ...XXXooooooooooXXX...     ",
"      ...XXXXooooooXXXX...      ",
"       ....XXXXXXXXXX....       ",
"         ....XXXXXX....         ",
"          ............          ",
"             ......             ",
"                                ",
"                                ",
"                                ",
"                                ",
"                                ",
"                                ",
"             ......             ",
"          ............          ",
"         ....XXXXXX....         ",
"       ....XXXXXXXXXX....       ",
"      ...XXXXooooooXXXX...      ",
"     ...XXXooooooooooXXX...     ",
"     ..XXXooooooooooooXXX..     ",
"    ...XXoooooo$$ooooooXX...    ",
"    ..XXoooooo$++$ooooooXX..    ",
"   ...XXoooooo$++$ooooooXX...   ",
"   ..XXoo$$oooo$$oooo$$ooXX..   ",
"   ..XXo$++$oooooooo$++$oXX..   ",
"   ..XXo$++$oooooooo$++$oXX..   ",
"   ..XXoo$$oooooooooo$$ooXX..   ",
"   ..XXooooooooooooooooooXX..   ",
"   ..XXooooooooooooooooooXX..   ",
"   ...XXooooooooooooooooXX...   ",
"    ..XXooooooooooooooooXX..    ",
"    ...XXooooooooooooooXX...    ",
"     ..XXXooooooooooooXXX..     ",
"     ...XXXooooooooooXXX...     ",
"      ...XXXXooooooXXXX...      ",
"       ....XXXXXXXXXX....       ",
"         ....XXXXXX....         ",
"          ............          ",
"             ......             ",
"                                ",
"                                ",
"                                ",
"                                ",
"                                ",
"                                ",
"             ......             ",
"          ............          ",
"         ....XXXXXX....         ",
"       ....XXXXXXXXXX....       ",
"      ...XXXXooooooXXXX...      ",
"     ...XXXooooooooooXXX...     ",
"     ..XXXooooooooooooXXX..     ",
"    ...XXoooooo%%ooooooXX...    ",
"    ..XXoooooo%&&%ooooooXX..    ",
"   ...XXooooo%&**&%oooooXX...   ",
"   ..XXoooooo%&**&%ooooooXX..   ",
"   ..XXoooooo%&**&%ooooooXX..   ",
"   ..XXoooooo%&**&%ooooooXX..   ",
"   ..XXoooooo%&**&%ooooooXX..   ",
"   ..XXoooooo%&**&%ooooooXX..   ",
"   ..XXooooooo%&&%oooooooXX..   ",
"   ...XXoooooo%%%%ooooooXX...   ",
"    ..XXooooo%=%%=%oooooXX..    ",
"    ...XXoooo%%oo%%ooooXX...    ",
"     ..XXXooooooooooooXXX..     ",
"     ...XXXooooooooooXXX...     ",
"      ...XXXXooooooXXXX...      ",
"       ....XXXXXXXXXX....       ",
"         ....XXXXXX....         ",
"          ............          ",
"             ......             ",
"                                ",
"                                ",
"                                "};
