/* XPM */
static char * PlayerShot1_xpm[] = {
"15 52 4 1",
" 	c None",
".	c #00000000FFFF",
"X	c #00009A9ACDCD",
"o	c #0000FFFFFFFF",
"               ",
"       .       ",
"      .X.      ",
"     .XoX.     ",
"     .XoX.     ",
"     .XoX.     ",
"     .XoX.     ",
"     .XoX.     ",
"     .XoX.     ",
"     .XoX.     ",
"     .XoX.     ",
"     .XoX.     ",
"     .XoX.     ",
"     .XoX.     ",
"     .XoX.     ",
"     .XoX.     ",
"     .XoX.     ",
"     .XoX.     ",
"     .XoX.     ",
"     .XoX.     ",
"     .XoX.     ",
"     .XoX.     ",
"     .XoX.     ",
"      .X.      ",
"       .       ",
"               ",
"               ",
"               ",
"               ",
"               ",
"               ",
"               ",
"               ",
"       .       ",
"     .....     ",
"    ..XXX..    ",
"   ..XoooX..   ",
"   .XoooooX.   ",
"  ..XoooooX..  ",
"   .XoooooX.   ",
"   ..XoooX..   ",
"    ..XXX..    ",
"     .....     ",
"       .       ",
"               ",
"               ",
"               ",
"               ",
"               ",
"               ",
"               ",
"               "};
