/* XPM */
static char * Player_xpm[] = {
"32 192 40 1",
" 	c None",
".	c #606060606060",
"X	c #B0B0B0B0B0B0",
"o	c #888888888888",
"O	c #0000C8C8F8F8",
"+	c #60609898F8F8",
"@	c #A0A0A0A0A0A0",
"#	c #000030309898",
"$	c #787878787878",
"%	c #989898989898",
"&	c #00000000F8F8",
"*	c #707070707070",
"=	c #F8F8F8F80000",
"-	c #484848484848",
";	c #303030303030",
":	c #B8B8B8B8B8B8",
">	c #909090909090",
",	c #303060609898",
"<	c #F8F800000000",
"1	c #C0C0C0C0C0C0",
"2	c #C8C8C8C8C8C8",
"3	c #383838383838",
"4	c #A8A8A8A8A8A8",
"5	c #686868686868",
"6	c #585858585858",
"7	c #F8F898983030",
"8	c #808080808080",
"9	c #48488080E0E0",
"0	c #000018188080",
"q	c #00000000E0E0",
"w	c #E0E0E0E00000",
"e	c #181818181818",
"r	c #181848488080",
"t	c #E0E000000000",
"y	c #202020202020",
"u	c #505050505050",
"i	c #E0E080801818",
"p	c #000000004848",
"a	c #E0E0E0E0E0E0",
"s	c #000000006060",
"               ..               ",
"               ..               ",
"              .Xo.              ",
"              .Xo.              ",
"              .Xo.              ",
"              .O+.              ",
"              .O+.              ",
"              .O+.              ",
"             .@##$.             ",
"             .@%o$.             ",
"             .@%o$.             ",
"             .@%o$.             ",
"         &   X@%o$.   &         ",
"         &  .X@%o$*.  &         ",
"        #&  .X@%o$*.  &#        ",
"        #& ..X@%o$*.. &#        ",
" =     #&##-.X@%o$*.-##&#     = ",
" =     #&##-.X@%o$*.-##&#     = ",
" X    #&&=#-.X@%o$*.-#=&&#    X ",
" X    #&&X;-.X@%o$*.-;X&&#    X ",
" X   #&&&XX-.X@%o$*.-XX&&&#   X ",
" X   #&&&X:.;X@%o$*;.oX&&&#   X ",
" X  #&&&&X::.X@%o$*.>oX&&&&#  X ",
" X  #&&&&X::X$@%o$$>>oX&&&&#  X ",
" X #&&&,,X::XX@%o$*>>oX,,&&&# X ",
" X #&,,<<X::XX@%o$*>>oX<<,,&# X ",
" XX,,11XXX::-X@%o$*->oXXX21,,XX ",
" XX221.  X:X-.@%o$3-XoX  .1X4XX ",
" X22..   X:X .$%o-3 XoX   ..4@X ",
" X2.     XX  .$56-3  XX     XXX ",
" XX      7    $56-    7      XX ",
" <                            < ",
"              8                 ",
"              8                 ",
"             -%8                ",
"             -%8                ",
"             -%8                ",
"             -98                ",
"             -98                ",
"             -98                ",
"            ;.9o%               ",
"            ;.$o%               ",
"            ;.$o%               ",
"            ;.$o%               ",
"         0  ;.$oX-  q           ",
"         0  ;.$oX-  q           ",
"         0  ;.$oX-  q9          ",
"         0 ;;.$oX%. qq          ",
"   w    000;;.$oX%.00q9     w   ",
"   w    000;;.$oX%.0qqq     w   ",
"   8   00w0;;.$oX%.wqqq9    2   ",
"   8   008e;;.$oX%.2qqqq    2   ",
"   8  00088;;.$oX%%2qqqq9   2   ",
"   8  0008*-;.$oX-@2qqqqq   2   ",
"   8 00008**6.$oX%@2qqqqq9  2   ",
"   8 00008**..$o.%@2qqqqqq  2   ",
"   8 000r8**6.$o%%@2rrrqqq9 2   ",
"   8 0rrt8**6.$o%%22tttrrqq 2   ",
"   88r8X88**6.$o%%22%%%%4rr22   ",
"   88888 8*%y.$o-%22 ..-44X22   ",
"   8o88  8*%y;$.-%22    --X22   ",
"   888   88 y;u.- %2      -22   ",
"   88    i   ;u.   i       %2   ",
"   t                        t   ",
"              X                 ",
"              X                 ",
"             -%X                ",
"             -%X                ",
"             -%X                ",
"             9%X                ",
"             9%X                ",
"             9%X%               ",
"            ;.%2%               ",
"            ;.$2%               ",
"            ;.$2%               ",
"            ;.$2%               ",
"            ;.$2%               ",
"            ;.$2%9              ",
"           p;.$2%9              ",
"        w p0;.$2%9              ",
"        wp00;.$2%q9  w          ",
"        ;000;.$2%q9  w          ",
"        ;w00;.w2%qq9 2          ",
"        ;800;.XX%qq9 2          ",
"        ;800;.X%%qq9 2          ",
"        ;8--;.X%%qqq92          ",
"        ;8**6.X%%qqq92          ",
"        ;8**..X2%rqq92          ",
"        ;8**6.X2%trq92          ",
"        ;8**6.X2%%tr92          ",
"        ;8**6.X2%%%422          ",
"        ;8* y.X2-  422          ",
"        ;8  y;X2-  -22          ",
"        ;8  y;X.-   22          ",
"        ;i   ;i.    %2          ",
"        t            t          ",
"                 %              ",
"                 %              ",
"                %X.             ",
"                %X.             ",
"                %X.             ",
"                %+.             ",
"                %+.             ",
"                %+.             ",
"               X@+$-            ",
"               X@%$-            ",
"               X@%$-            ",
"               X@%$-            ",
"           &  .2@%$-  #         ",
"           &  .2@%$-  #         ",
"          +&  .2@%$-  #         ",
"          && $X2@%$-- #         ",
"   =     +&##$X2@%$--###    =   ",
"   =     &&&#$X2@%$--###    =   ",
"   a    +&&&=$X2@%$--#=##   %   ",
"   a    &&&&a$X2@%$--;%##   %   ",
"   a   +&&&&aXX2@%$--%%###  %   ",
"   a   &&&&&a:.2@%$-.o%###  %   ",
"   a  +&&&&&a::2@%$*>o%#### %   ",
"   a  &&&&&&a::$@%$$>o%#### %   ",
"   a +&&&,,,a::X@%$*>o%,### %   ",
"   a &&,,<<<aa:X@%$*>o%<,,# %   ",
"   aa,,1XXXXaa:X@%$*>o%%2%,%%   ",
"   aa221.$$ aaX.@%$3Xo% %%%%%   ",
"   aa2..  e aaX.$%-3Xo%  %%@%   ",
"   aa.    e aX .$5-3 %%   %%%   ",
"   aX     e 7   $5-   7    %%   ",
"   <      e                 <   ",
"                 2              ",
"                 2              ",
"                2X.             ",
"                2X.             ",
"                2X.             ",
"                2X+             ",
"                2X+             ",
"               X2X+             ",
"               XaX$-            ",
"               Xa%$-            ",
"               Xa%$-            ",
"               Xa%$-            ",
"               Xa%$-            ",
"              +Xa%$-            ",
"              +Xa%$-s           ",
"              +Xa%$-#s =        ",
"          =  +&Xa%$-##s=        ",
"          =  +&Xa%$-###-        ",
"          a +&&Xa=$-##=-        ",
"          a +&&X22$-##%-        ",
"          a +&&XX2$-##%-        ",
"          a+&&&XX2$-..%-        ",
"          a+&&&XX2$*>o%-        ",
"          a+&&,Xa2$$>o%-        ",
"          a+&,<Xa2$*>o%-        ",
"          a+,<XXa2$*>o%-        ",
"          aa1XXXa2$*>o%-        ",
"          aa1  .a2$3 o%-        ",
"          aa.  .a2-3  %-        ",
"          aa   .$2-3  %-        ",
"          aX    $7-   7-        ",
"          <            <        ",
"                                ",
"                                ",
"                                ",
"                                ",
"                                ",
"                                ",
"                                ",
"                                ",
"                                ",
"                                ",
"                                ",
"                                ",
"                                ",
"                                ",
"                                ",
"                                ",
"                                ",
"                                ",
"                                ",
"                                ",
"                                ",
"                                ",
"                                ",
"                                ",
"                                ",
"                                ",
"                                ",
"                                ",
"                                ",
"                                ",
"                                ",
"                                "};
