/* XPM */
static char * PlayerShot2_xpm[] = {
"32 64 7 1",
" 	c None",
".	c #FFFF00000000",
"X	c #FFFFFFFF0000",
"o	c #FFFFFFFFFFFF",
"O	c #808000000000",
"+	c #E0E038380000",
"@	c #FFFF80800000",
"                                ",
"                                ",
"                                ",
"                                ",
"                                ",
"                                ",
"                                ",
"                                ",
"                                ",
"                                ",
"                                ",
"                                ",
"              ....              ",
"             .XXXX.             ",
"            .XooooX.            ",
"            .XooooX.            ",
"            .XooooX.            ",
"            .XooooX.            ",
"             .XXXX.             ",
"              ....              ",
"                                ",
"                                ",
"                                ",
"                                ",
"                                ",
"                                ",
"                                ",
"                                ",
"                                ",
"                                ",
"                                ",
"                                ",
"                                ",
"                                ",
"                                ",
"                                ",
"                                ",
"                                ",
"                                ",
"                                ",
"                                ",
"                O               ",
"                O               ",
"                O               ",
"               O+O              ",
"              O++O              ",
"             O+@@+O             ",
"           OO+@@@@+O            ",
"         OO++@@@@@@+O           ",
"           O+@@@@@@++OO         ",
"            O+@@@@+OO           ",
"             O+@@+O             ",
"              O++O              ",
"              O+O               ",
"               O                ",
"               O                ",
"                                ",
"                                ",
"                                ",
"                                ",
"                                ",
"                                ",
"                                ",
"                                "};
