/* XPM */
static char * Star2_xpm[] = {
"4 16 4 1",
" 	c None",
".	c #000098989898",
"X	c #000000009898",
"o	c #989898989898",
" .X ",
".o.X",
".o.X",
" .X ",
" .X ",
".o.X",
".o.X",
" .X ",
" XX ",
"XoXX",
"oooX",
" oX ",
" XX ",
"XoXX",
"oooX",
" oX "};
