/* XPM */
static char * Star2_xpm[] = {
"4 48 5 1",
" 	c None",
".	c #000040404040",
"X	c #000040408080",
"o	c #000060606060",
"O	c #00005050A0A0",
"    ",
" .  ",
" .  ",
"  . ",
" .. ",
"  X ",
" XX ",
" X  ",
" .. ",
".XX.",
".XX.",
" .. ",
"    ",
" .  ",
" .  ",
"  . ",
" .. ",
"  X ",
" XX ",
" X  ",
" .. ",
".XX.",
".XX.",
" .. ",
"    ",
" o  ",
" o  ",
"  o ",
" oo ",
"  O ",
" OO ",
" O  ",
" oo ",
"oOOo",
"oOOo",
" oo ",
"    ",
" o  ",
" o  ",
"  o ",
" oo ",
"  O ",
" OO ",
" O  ",
" oo ",
"oOOo",
"oOOo",
" oo "};
