/* XPM */
static char * glade_xpm[] = {
"100 45 64 1",
" 	c None",
".	c #FFEAE2",
"+	c #FFFB48",
"@	c #F1FF05",
"#	c #FDD4AE",
"$	c #CCCCFF",
"%	c #FFC53E",
"&	c #FFCE1B",
"*	c #CFB5E3",
"=	c #C9B3F8",
"-	c #3EF9FF",
";	c #BAB2F8",
">	c #79D3FA",
",	c #92ED08",
"'	c #63D6FA",
")	c #C29BED",
"!	c #55FF00",
"~	c #B49BF0",
"{	c #3CD5FF",
"]	c #AF99F4",
"^	c #FF8C63",
"/	c #FF9132",
"(	c #A491F7",
"_	c #FF8D10",
":	c #BD88CF",
"<	c #A991CA",
"[	c #B880E5",
"}	c #A47AEB",
"|	c #9C79F2",
"1	c #977EA8",
"2	c #56C706",
"3	c #B06BDF",
"4	c #A96BC7",
"5	c #3595F8",
"6	c #9E5AE8",
"7	c #FF4848",
"8	c #FF5320",
"9	c #417AEF",
"0	c #87659C",
"a	c #756CA3",
"b	c #8B46F3",
"c	c #D0377A",
"d	c #764E99",
"e	c #3F52F6",
"f	c #5A4E91",
"g	c #FF1322",
"h	c #685A00",
"i	c #603E70",
"j	c #FF0000",
"k	c #2449C5",
"l	c #622D91",
"m	c #6E08FA",
"n	c #62390B",
"o	c #453E53",
"p	c #A81F00",
"q	c #3C2F93",
"r	c #312F3A",
"s	c #2D3A16",
"t	c #5E0000",
"u	c #261335",
"v	c #100071",
"w	c #290A0A",
"x	c #10100C",
"y	c #000000",
"                                                                                                    ",
"                                                                     m                              ",
"                                                                     m                              ",
"                                                                     m                              ",
"                                                                     m                              ",
"                                                                     |  ^                           ",
"                                                                   /    7                           ",
"                                                          |mm      ^    7    ^      #               ",
"                                                           mmb     ^    8#   8^     ^               ",
"                                                            [m3   ^8    __  ^//^ g^ /^              ",
"$$$$;;;;;;;;;;;;;;;;;;;;;;;;;;;$;;;;;;;;;)))))~~~~~~;~~~~~~~~}bb[[8/[[[[&_77/@@gjj%g%ggjc           ",
"$$$$$$$$$$$$$$$$$$$$$$$$$$$$$$$$$$$==================;;;;;)))))]))7/))^7&@&/@@@%g8@_@gjj/j7         ",
"$$$$$====$$$$$$$$=$$$$$$$$$$$$$$=========)))))))))));~~~~~~~~~[[[]8/4g&&@@@&___&&@@@@gjj%jjj        ",
"$$(]]]]]]]]];;;;;;;;;;;;;;;;;;;;]]]]]]]]][[[[}}}}}}}|||||||||66666_&77@&pwyyyyyyyt_@@gjg%jjjj7      ",
"$$((]]]]];;;;;;;;;;;;;;;;;;;;;;;;~~~~~~~[[[[[[[}}}}}}}|||||||66664&@@@tyyyyyyu55uyyw&+/&@jjjjj      ",
"$=((]]]]]]];;;;;;;;;;;;;;;;;;];;;;;;;~~~~[[[[[[[[}}}}bb||||6666647@@_yyys,+@,nqsn2wyyp@@@gjjjjg     ",
"==(]]]]]]u(;;o~;;;;===$;;;;;yy;;;;;;;;))]0[[[[[[[33}bmmmmmb6666cj%@8yyh+++@tyqkuqk5qxyt@@8jjjjj     ",
"==]]];;]oy]]uy]===$$$$$$$==]yy]=========~yx)))))[[[}6bbbbbbb664jg@&yy2++,2wv{------w,syt@%jjjjj     ",
"==]]]];(yya(yy<===;;;;=$$;;(yx;=;;;;====]<[[[[[[[[[33}}}666666jj%@xy,++,wywq-'''{rww!!sy8@gjjjj     ",
"$$]]];;}yyi|yya===<xyo$$;uyoxu;;our1)===~y)<y4ux43[[333366666gjj+pys++,wu955'>>'-uuw2!,yy&/jjj^     ",
"$$]]];;}yyu~yyo;;fyxxxi;xxxxxf;xxorr<===1x<<xxxxx3[[[33366666jjg&yy@+,!htk-{'>'{{k5u,htsyp%jjj      ",
"$;]]]]]iyiyayoy;;xx;;x;<x~;;xa~x~;rr)===<x::xx[dx3[[[3336666cjj/_yx,hwsnw5-''''{{qshhoqwyw/gj       ",
"$;]]]](yy<yyo1y;<x~=<x=ax;$;x11ssro=====<x::xo3ix3[[[3336666jjj/pvunvw555{'''''{{wthq9euwy887       ",
"==]]]](yo(yy<;x<=x<;;x*1x))~x11s1;~*====<x::s<[is3)[[[333364jjj%tkww{9---'''''''{uwqqqrhhyp/        ",
"==]]]]aya(yy~~xr;xxxxsr;sssssf=srrroi***<s::s<[is3[[[[33336cjjj&w5ww--{'>''''''>-5urhh2,!yp/        ",
"==(]]]}y~~ru))xx;;rsiir=*rsrr0=*ooo0=***:s::s<)os3)[[[33333cjjj&w5ou--{'>'''''''{qt!!,,,!yt_        ",
"==(]]]]]];;;;;;;=====************)********))))):::::::33333cjjj&tkkw95{--'''''''ew2!222,!yt_        ",
"=;(]]]];;;;;=====********************************::::::3333cjjj%pv-wtwukuue5''''kt!!22,,2yp_        ",
"=;((]]]]];;))===****===**************************:[33666333cjjj/_y-y@@nnhwk{'''{kw2!!!!hxy8&   }bb  ",
"=;}(((]]]~~~;;;;***;1r0;*=i1********)r)**)r1))***[yyyyyy4334jjj8&yky@+,,,wk{''''{wt2!2tkvw_+  mmmb  ",
"=;(((((]]]~~~;;;**;fyyyy<;yy)******)uy1**1yyyi)))[yyiouy4333jjjj&pxx,+,,2we-'''''-uwww9-vp_         ",
"=;(||(((]]~~~;;;*;ayu]1y*~yy)*****)1yyo)*1yuyyy<)3yi333333337jjj/@xvx@+,ww5->'''''-{{{-vy_%         ",
";~|(((((]]]]~~~~~]yy;;;;;]yy)****))yyyx))1y:)oyy:3yi66663333cjjjj%&yyw@+hu{''''''''5{-qy8&          ",
";;|||||(((}]~~~~~fy~;1ooo(yy)****)oy:yy))1y1)):yx6yyyyyy3333}jjjjg+_yyw@@t9->>>>>>'-{vyp_%          ",
";~||||((((((]~~~]xyoyyyyy(yy~***))yy<yy[)1y1**[ry6yyyxru63333cjjjjg+_yyy2tv--''----kxyp_/           ",
";~||||||}}}((~~~(yy<u<(yu~yx)*))[yyyyyy0[1y1)*[rybyi63333333}3gjjjj8+&wyyywk---{5qxyy8_/l  b6       ",
";~|||||||}}}]]]~(yy(((uy<<yf}]::<yu13:yu[1y<[[3yy6yi63333333}}3jjjjjg%&_tyyyyxyyyywp_/cil   mm      ",
";~|||||||}}}((]]]iyuoyyu]<yuoyyyuy:::[yy30yuiuyy46yxiruu6333}}}3gjjjjj8//_ppttttpg8&&4lll    mm     ",
")]||||||||}}}(]]](uyyyi]~<yyyyu[ix[::[1y[:uyyyy133oyyyyy63333}}}}cjjjjjj^%_______/^466lll    |m     ",
"~~||||||||}}}((]]]((((~;;~~}}}[[[[[:::[333366633::36bbb63333}}}}|||4cc4||||}<<<<66bbbmlil           ",
"~(|||||||||}}}}]]]];~~~)))))):::::::::::::::::::::::4333333}}}}}||||||||||||||||6666bmlol           ",
"]}|||||||||}}}(]]]~~~~~~~~~~~:::::::[333444444444443333333}}}}|||||||||||||||||666666mlol           ",
"(}4aaadddddddddaaaaaa1111000000000000000ddddddd00000ddddddddddddddfffffffffffffflllllmmui           ",
"}aafffffiiiifffffffaaaaaaaddddddddddddddiiiiiiiiddddddiiiifffiiffffffffffffffiiiiiiiommui           ",
"|aaaaaffddddddddaaaaaaaaaa00000000d0dddddddllldddddddddddddddddddfffffffffafffffllllllmll           "};
