/* XPM */
static char * snap2_xpm[] = {
"32 32 256 2",
"  	c None",
". 	c #AB2704",
"+ 	c #BC2605",
"@ 	c #B62A02",
"# 	c #C8280D",
"$ 	c #C22C0A",
"% 	c #BD3000",
"& 	c #BD3007",
"* 	c #CD2D07",
"= 	c #C63003",
"- 	c #B83405",
"; 	c #BE3209",
"> 	c #CF2F00",
", 	c #D52C0E",
"' 	c #C93306",
") 	c #C33602",
"! 	c #CB3400",
"~ 	c #D23201",
"{ 	c #CE3700",
"] 	c #C83A00",
"^ 	c #D73705",
"/ 	c #B84200",
"( 	c #D33B03",
"_ 	c #DB3B00",
": 	c #D63E06",
"< 	c #D73F00",
"[ 	c #E14003",
"} 	c #DB4300",
"| 	c #EA3F00",
"1 	c #CB4A02",
"2 	c #E54300",
"3 	c #DD450E",
"4 	c #DF4703",
"5 	c #E64509",
"6 	c #E84600",
"7 	c #088536",
"8 	c #E44B09",
"9 	c #E64C00",
"0 	c #DA5002",
"a 	c #E25009",
"b 	c #008E44",
"c 	c #D6540F",
"d 	c #F04E06",
"e 	c #EB5001",
"f 	c #F35000",
"g 	c #EB5111",
"h 	c #E75400",
"i 	c #CA5D0A",
"j 	c #EE5306",
"k 	c #CC5E00",
"l 	c #D35D02",
"m 	c #00954A",
"n 	c #00973E",
"o 	c #EC5806",
"p 	c #009845",
"q 	c #DC5F00",
"r 	c #F45800",
"s 	c #119544",
"t 	c #E65B24",
"u 	c #F15C00",
"v 	c #EE5A20",
"w 	c #EF5B17",
"x 	c #F05C0C",
"y 	c #7F7C23",
"z 	c #00A046",
"A 	c #ED600B",
"B 	c #0D9D44",
"C 	c #E76115",
"D 	c #ED6119",
"E 	c #09A544",
"F 	c #E56728",
"G 	c #DD683B",
"H 	c #ED6724",
"I 	c #D77202",
"J 	c #E66938",
"K 	c #EC6C11",
"L 	c #F26B29",
"M 	c #E56E33",
"N 	c #F76F1A",
"O 	c #14AD51",
"P 	c #E8713C",
"Q 	c #E17247",
"R 	c #DE753A",
"S 	c #DB7C0E",
"T 	c #EE7533",
"U 	c #DF7F01",
"V 	c #00BB4F",
"W 	c #36AA64",
"X 	c #F0773C",
"Y 	c #D98400",
"Z 	c #AE8B3B",
"` 	c #21B357",
" .	c #E8794D",
"..	c #EC7A42",
"+.	c #EB7B48",
"@.	c #D98057",
"#.	c #12BB5D",
"$.	c #26B65A",
"%.	c #1CBA55",
"&.	c #EA7F44",
"*.	c #F48041",
"=.	c #EB8258",
"-.	c #36B66D",
";.	c #DD8E0E",
">.	c #D9900D",
",.	c #E9854D",
"'.	c #1AC255",
").	c #E78F03",
"!.	c #37BA64",
"~.	c #15C55F",
"{.	c #EA875B",
"].	c #32BE60",
"^.	c #EC8856",
"/.	c #2DC35E",
"(.	c #45BD6E",
"_.	c #F08C5F",
":.	c #EA9800",
"<.	c #E69064",
"[.	c #EF9054",
"}.	c #F0936A",
"|.	c #F5926B",
"1.	c #E6A014",
"2.	c #32CF61",
"3.	c #2ED169",
"4.	c #4BC77D",
"5.	c #F0A20B",
"6.	c #3DCE68",
"7.	c #EF9A73",
"8.	c #EA9C79",
"9.	c #F19C7B",
"0.	c #37D759",
"a.	c #67C491",
"b.	c #F8A801",
"c.	c #3ED768",
"d.	c #F1AE00",
"e.	c #EBA47E",
"f.	c #58D274",
"g.	c #EBA585",
"h.	c #ECA78D",
"i.	c #59D67E",
"j.	c #F4A890",
"k.	c #FAB500",
"l.	c #F5B700",
"m.	c #D6B28D",
"n.	c #77CEA1",
"o.	c #57DC7C",
"p.	c #66D68C",
"q.	c #63D793",
"r.	c #EFAF8C",
"s.	c #ECAF98",
"t.	c #45E56D",
"u.	c #F0BE00",
"v.	c #68DA82",
"w.	c #72D599",
"x.	c #F6AF8E",
"y.	c #65DB8A",
"z.	c #7ED393",
"A.	c #EBB394",
"B.	c #57E186",
"C.	c #FCBD07",
"D.	c #70D996",
"E.	c #FFBE00",
"F.	c #61E17A",
"G.	c #F9C008",
"H.	c #E7B79C",
"I.	c #58E57C",
"J.	c #FDC300",
"K.	c #61E684",
"L.	c #FAC600",
"M.	c #F3B8A6",
"N.	c #82DBA1",
"O.	c #F8CA00",
"P.	c #EFBD9C",
"Q.	c #5DED75",
"R.	c #F4CC00",
"S.	c #ECBEA8",
"T.	c #90D9B4",
"U.	c #84E3A1",
"V.	c #88E39B",
"W.	c #F9C2A8",
"X.	c #83E79E",
"Y.	c #F0C6A8",
"Z.	c #F9C3AF",
"`.	c #F1C5B4",
" +	c #96E1AE",
".+	c #F4C5AF",
"++	c #F7D50C",
"@+	c #EFC7AF",
"#+	c #93E3A9",
"$+	c #90E5A4",
"%+	c #F9D700",
"&+	c #F1CAB1",
"*+	c #EFCAB7",
"=+	c #EACCB7",
"-+	c #9DE3B8",
";+	c #F6C9B9",
">+	c #A1E3B2",
",+	c #F6DA15",
"'+	c #EDCCC5",
")+	c #98E8AE",
"!+	c #AEE2BA",
"~+	c #F8DC29",
"{+	c #AFE2C7",
"]+	c #FDE006",
"^+	c #F4D1C4",
"/+	c #F8E21F",
"(+	c #F6E50A",
"_+	c #ACE9BF",
":+	c #97F1B5",
"<+	c #B8EABB",
"[+	c #F6D7C2",
"}+	c #B9E9C8",
"|+	c #B7ECC3",
"1+	c #F6DACB",
"2+	c #FDEC1B",
"3+	c #C8EBD4",
"4+	c #F1DFD4",
"5+	c #BCF1C8",
"6+	c #F8DED4",
"7+	c #FCF121",
"8+	c #DDE9D6",
"9+	c #C3F3D2",
"0+	c #C6F3CB",
"a+	c #CEF1D9",
"b+	c #FBF626",
"c+	c #D1F0DF",
"d+	c #F2E7DA",
"e+	c #F9E6DB",
"f+	c #D6F2DB",
"g+	c #F8E8E3",
"h+	c #DBF1E3",
"i+	c #FAFC2C",
"j+	c #FBEBE6",
"k+	c #F9ECEC",
"l+	c #E4F3E6",
"m+	c #F8EFE8",
"n+	c #E1F8E9",
"o+	c #E5F7F0",
"p+	c #EDF7F2",
"q+	c #F9F4F2",
"r+	c #EBFAED",
"s+	c #F6F9F5",
"t+	c #FDF7F6",
"u+	c #FFF7FD",
"v+	c #F5FCF0",
"w+	c #FDFAFF",
"x+	c #F1FEFF",
"y+	c #FAFCF9",
"z+	c #F8FDFF",
"A+	c #FBFDFA",
"B+	c #FFFCFA",
"C+	c #F5FFFA",
"D+	c #FFFCFF",
"E+	c #F9FFFF",
"F+	c #FCFFFB",
"G+	c #FEFFFC",
"G+G+G+G+G+G+G+G+G+G+G+G+A+B+D+D+D+A+G+z+G+G+G+G+G+G+G+G+G+G+G+G+",
"G+G+G+G+G+G+A+G+G+G+G+z+z+B+y+z+z+z+A+G+G+A+A+G+G+G+G+G+G+G+G+G+",
"G+G+G+G+G+G+G+G+G+G+G+B+A+y+w+g+Y.P.1+t+y+A+t+D+G+G+G+G+G+G+G+G+",
"G+G+G+G+G+G+G+A+G+G+G+A+A+z+^+_.w x M h.m+x+z+D+G+G+G+G+G+G+G+G+",
"G+G+G+G+G+G+G+z+q+6+`.S.4+j+[.r } ] | w W.d+1+1+j+y+z+G+B+D+G+G+",
"G+G+G+G+G+D+A+g+8.M A x P e.T 4 ' * ~ 5 X *.L H {.@+y+A+y+z+G+G+",
"G+G+G+G+G+G+t+M.D r 6 4 e h 9 ( = ' ! 9 h } _ 9 r &.g+w+z+z+G+G+",
"G+G+G+G+G+G+q+h.A 4 > ' { 9 4 ! ) % } u < ' * ' a T 6+D+B+G+G+G+",
"G+G+G+G+G+z+t+Z.v : ) = = * [ ^ = + 8 } > > ! > 5 T 1+z+D+D+G+G+",
"G+G+G+G+G+B+A+e++.8 > > @ ; q :.1.;.K ( = ; = > 4 {.m+G+A+G+G+G+",
"D+G+y+B+z+s+4+'+j.P } > ) Y 2+i+b+b+2+>.. + > ^ Q *+y+z+z+G+G+G+",
"D+A+D+G+y+.+J D N K h } I ~+b+(+++%+]+~+i ' { G ^+s+t+t+z+z+G+G+",
"G+D+D+G+j+}.u u } ^ [ 4 5.7+,+L.k.J.L.++b.A j A *.x.g+s+G+D+G+G+",
"G+G+G+G+g+^.o < > ! = ' 1.7+R.J.L.C.E.J.d.0 _ < 4 x _.[+A+z+G+G+",
"D+B+G+z+g+|.5 > > ' @ @ >.2+J.G.O.J.J.O.Y - + = ' _ x ,.j+G+G+G+",
"D+B+A+G+s+A.o 6 ' = = { U /+++J.L.L.L.k.1 $ ; = > { j L ^+G+G+G+",
"G+G+G+A+G+j+7.L g 3 _ 8 a S u.G.C.l.).q 8 _ * ' ' ^ j &.4+G+G+G+",
"G+G+G+A+y+A+m+[+&+g.C 9 * @ / k l 1 ; * } j e 6 6 d F A.t+D+G+G+",
"G+G+A+G+G+w+w+z+q+r.x [ = + # , { ' = > ! _ t P R @.^+t+y+G+G+G+",
"G+G+G+G+G+D+D+z+k+8.j < * ' { ^ { ] = * { 6  .;+e+m+y+B+t+D+G+G+",
"G+G+G+G+G+A+A+A+q+s.x 9 = ' ( c i : { ~ } o 9.g+A+A+A+A+A+G+G+G+",
"G+G+G+G+G+G+A+y+s+;+H r h 9 j Z y h r f j =.6+w+w+w+w+D+B+B+G+G+",
"G+G+G+G+G+z+D+A+B+t+@+<...^.H.w.W m.8.g.=+8+9+|+5+f+s+w+D+D+G+G+",
"G+G+G+G+G+z+z+z+w+w+y+s+k+q+o+q.-.c+w+n+:+B.6.3.3.i.|+v+D+D+G+G+",
"G+G+G+G+G+D+p+}+U.X.V.V.$+!+a+U.` {+<+f.V z s s E ~.)+o+w+G+G+G+",
"G+G+G+G+G+G+-+o.2.#.%.V ~.3.i.p./.a.W n 7 b p B '.o.0+y+D+G+G+G+",
"G+G+G+G+G+C+>+F.0.O m s m s B n /.O !.$.%.%.'.c.X.9+y+D+G+G+G+G+",
"G+G+G+G+G+D+l+ +I.t.'.E p n E ].i.#.4.D.v.y.N.|+n+s+u+w+G+G+G+G+",
"G+G+G+G+G+G+A+y+3+#+K.Q.t.t.K.#+n+z.` n.p+z+y+A+z+B+B+B+G+G+G+G+",
"G+G+G+G+G+z+G+G+A+p+a+5+_+>+5+r+A+f+(.O n.o+G+G+G+A+A+G+D+G+G+G+",
"G+G+G+G+G+G+y+y+A+z+w+D+D+D+z+w+z+z+h+T.}+r+A+B+w+D+z+G+G+G+G+G+",
"G+G+G+G+G+G+A+w+D+A+A+A+D+D+z+z+z+z+w+z+G+A+A+G+G+G+z+G+G+G+G+G+"};
